<svg width="201" height="240" viewBox="0 0 201 240" fill="none" xmlns="http://www.w3.org/2000/svg">
<path d="M100.468 114.516C102.308 114.516 103.798 116.005 103.798 117.846C103.798 119.681 102.308 121.171 100.47 121.173C98.6325 121.171 97.1429 119.681 97.1405 117.843C97.1429 116.005 98.6325 114.516 100.468 114.516Z" fill="white" fill-opacity="0.16"/>
<path d="M100.471 54.6216C109.666 54.6218 117.109 62.0644 117.11 71.2599C117.11 80.4312 109.646 87.8949 100.47 87.8978C91.2987 87.8949 83.8333 80.4333 83.8333 71.2597C83.8333 62.0653 91.2754 54.6213 100.471 54.6216ZM90.4886 71.2594C90.4883 76.7623 94.9669 81.2408 100.471 81.2425C105.976 81.2408 110.454 76.7625 110.454 71.2597C110.454 65.743 105.989 61.2766 100.471 61.2766C94.9549 61.2764 90.4883 65.742 90.4886 71.2594Z" fill="white" fill-opacity="0.16"/>
<path d="M100.472 1.38048C101.396 1.38071 102.277 1.76094 102.908 2.44118C103.421 2.99224 115.579 16.1685 125.314 36.5482C133.12 52.8743 137.078 69.031 137.077 84.5696C137.077 88.0515 136.925 91.5917 136.629 95.1305C148.832 98.2905 153.57 105.864 155.379 111.838C159.544 125.594 152.07 144.16 142.757 153.473C141.805 154.424 140.373 154.709 139.13 154.194C138.718 154.023 138.354 153.776 138.051 153.473C137.438 152.86 137.076 152.019 137.076 151.119C137.076 141.669 130.952 136.136 128.797 134.482L127.149 134.482C124.912 139.962 122.381 145.106 119.608 149.796C118.603 151.493 117.057 152.805 115.236 153.598C116.457 156.908 117.11 160.626 117.11 164.432C117.109 176.546 103.578 192.537 103.002 193.212C102.37 193.952 101.446 194.379 100.472 194.379C99.586 194.379 98.7404 194.026 98.1192 193.405C98.0575 193.343 97.998 193.279 97.941 193.212C97.3648 192.537 83.8333 176.546 83.8333 164.433C83.8333 160.628 84.486 156.91 85.707 153.601C83.7787 152.761 82.2872 151.404 81.3345 149.794C78.562 145.106 76.0312 139.964 73.7938 134.482L72.1458 134.482C69.9915 136.137 63.8675 141.67 63.8677 151.12C63.8675 152.465 63.0569 153.679 61.8136 154.194C60.5703 154.709 59.1392 154.424 58.1875 153.472C48.8745 144.159 41.4007 125.593 45.5656 111.838C47.3741 105.864 52.112 98.2905 64.3159 95.1303C64.0192 91.5931 63.867 88.0527 63.867 84.5694C63.867 69.0305 67.8249 52.8741 75.6296 36.5489C85.3656 16.1682 97.5239 2.99201 98.0366 2.44119C98.666 1.76472 99.5483 1.38071 100.472 1.38048ZM142.557 143.151C148.169 134.616 151.686 122.609 149.009 113.766C147.219 107.857 142.81 103.851 135.888 101.827C134.687 110.65 132.6 119.363 129.659 127.827C129.716 127.841 130.672 127.732 131.636 128.341C132.033 128.591 139.598 133.478 142.557 143.151ZM90.4886 164.432C90.4886 170.903 96.3717 180.199 100.472 185.692C104.572 180.198 110.455 170.902 110.455 164.432C110.455 160.809 109.728 157.334 108.39 154.449L92.5535 154.449C91.2156 157.334 90.4884 160.809 90.4886 164.432ZM87.062 146.405C87.5686 147.26 88.6133 147.793 89.7851 147.794C95.8731 147.794 98.2547 147.794 99.0018 147.794C100.372 147.794 103.733 147.794 111.155 147.794C112.33 147.793 113.375 147.26 113.881 146.406C116.062 142.718 118.088 138.721 119.929 134.482L81.014 134.482C82.8559 138.722 84.8813 142.718 87.062 146.405ZM51.9345 113.766C49.2576 122.608 52.7738 134.616 58.3858 143.151C60.3745 136.651 65.2799 130.752 69.3799 128.3C70.3322 127.73 71.2112 127.844 71.2839 127.827C68.3437 119.363 66.2571 110.65 65.0555 101.827C58.1329 103.852 53.7235 107.858 51.9345 113.766ZM70.5216 84.5689C70.5218 88.8091 70.7566 93.1404 71.2199 97.4423C72.3357 107.782 74.7333 117.992 78.3493 127.827L122.593 127.828C126.21 117.992 128.608 107.782 129.723 97.4434C130.186 93.1383 130.422 88.807 130.421 84.5686C130.422 70.6272 126.973 56.0833 120.187 41.3106L80.7559 41.3106C73.9698 56.0825 70.5213 70.6265 70.5216 84.5689ZM84.0256 34.655L116.918 34.655C110.741 22.9118 103.988 14.0746 100.471 9.80918C96.9547 14.0755 90.202 22.9129 84.0256 34.655Z" fill="white" fill-opacity="0.16"/>
<path d="M67.1967 161.103C69.0347 161.103 70.524 162.593 70.5238 164.431L70.5215 177.741C70.521 179.578 69.0309 181.068 67.1936 181.068C65.3558 181.067 63.866 179.577 63.8665 177.739L63.8688 164.43C63.8693 162.592 65.3593 161.102 67.1967 161.103Z" fill="white" fill-opacity="0.16"/>
<path d="M133.746 161.102C135.584 161.102 137.073 162.591 137.074 164.429L137.077 177.739C137.077 179.577 135.587 181.067 133.75 181.067C131.913 181.067 130.423 179.579 130.422 177.74L130.42 164.43C130.419 162.593 131.909 161.103 133.746 161.102Z" fill="white" fill-opacity="0.16"/>
<path d="M80.5033 181.069C82.3405 181.068 83.8307 182.559 83.8311 184.396L83.8335 216.272C83.8337 218.11 82.3438 219.6 80.5061 219.6C78.6689 219.601 77.1783 218.111 77.1783 216.273L77.1759 184.397C77.1757 182.559 78.6656 181.069 80.5033 181.069Z" fill="white" fill-opacity="0.16"/>
<path d="M99.3269 199.892C101.164 199.892 102.654 201.382 102.655 203.22L102.657 235.096C102.657 236.934 101.167 238.424 99.3297 238.424C97.4925 238.424 96.0018 236.934 96.0018 235.096L95.9995 203.22C95.9992 201.382 97.4892 199.892 99.3269 199.892Z" fill="white" fill-opacity="0.16"/>
<path d="M120.438 181.068C122.275 181.068 123.766 182.558 123.766 184.396L123.763 216.273C123.763 218.11 122.273 219.6 120.435 219.6C118.598 219.6 117.108 218.11 117.108 216.272L117.11 184.396C117.11 182.558 118.6 181.068 120.438 181.068Z" fill="white" fill-opacity="0.16"/>
<path d="M100.472 94.5517C102.31 94.5519 103.799 96.0412 103.799 97.8792L103.799 104.533C103.799 106.37 102.31 107.86 100.472 107.86C98.6343 107.86 97.1448 106.371 97.1446 104.533L97.1446 97.8792C97.1446 96.0417 98.6343 94.5519 100.472 94.5517Z" fill="white" fill-opacity="0.16"/>
</svg>
