<svg width="187" height="187" viewBox="0 0 187 187" fill="none" xmlns="http://www.w3.org/2000/svg">
<path d="M151.758 162.871L144.776 141.921C142.336 134.607 136.11 129.208 128.522 127.826L108.365 124.159V122.596C111.873 120.561 114.925 117.837 117.356 114.613H123.446C128.434 114.613 132.494 110.553 132.494 105.564V69.3708C132.494 47.7512 114.904 30.1611 93.2843 30.1611C71.6647 30.1611 54.0746 47.7512 54.0746 69.3708V90.4837C54.0746 96.2988 58.2097 101.164 63.6931 102.298C65.3851 110.966 70.8021 118.301 78.2037 122.596V124.159L58.0439 127.826C50.4583 129.208 44.23 134.607 41.7929 141.921L40.5865 145.543L30.3136 135.27C29.1373 134.094 29.1373 132.179 30.3136 131.002L42.2273 119.092L19.8657 96.7301L6.40169 110.194C2.41437 114.181 0.218628 119.484 0.218628 125.124C0.218628 130.764 2.41437 136.063 6.40169 140.051L47.1647 180.814C51.152 184.801 56.4544 187 62.0945 187C67.7347 187 73.034 184.801 76.9278 180.904L91.6194 167.443L87.0379 162.871H151.758ZM126.462 105.564C126.462 107.229 125.107 108.58 123.446 108.58H120.909C121.784 106.587 122.447 104.485 122.876 102.298C124.166 102.029 125.355 101.517 126.462 100.871V105.564ZM123.446 95.6775V85.2899C125.24 86.3365 126.462 88.2608 126.462 90.4837C126.462 92.7066 125.24 94.6309 123.446 95.6775ZM63.123 95.6775C61.3284 94.6309 60.1069 92.7066 60.1069 90.4837C60.1069 88.2608 61.3284 86.3365 63.123 85.2899V95.6775ZM63.123 75.4031V78.8475C62.0493 79.128 61.0419 79.5502 60.1069 80.0962V69.3708C60.1069 51.078 74.9915 36.1934 93.2843 36.1934C111.577 36.1934 126.462 51.078 126.462 69.3708V80.0962C125.527 79.5502 124.519 79.125 123.446 78.8475V75.4031H120.429C111.511 75.4031 103.126 71.9285 96.8162 65.6218L93.2843 62.0899L89.7524 65.6218C83.4427 71.9285 75.0578 75.4031 66.1391 75.4031H63.123ZM69.1553 96.516V81.3207C78.2127 80.6391 86.6579 76.9021 93.2843 70.6014C99.9107 76.9021 108.356 80.6421 117.413 81.3207V96.516C117.413 100.913 116.213 105.027 114.15 108.58H93.2843V114.613H109.191C104.939 118.356 99.3799 120.645 93.2843 120.645C79.9802 120.645 69.1553 109.82 69.1553 96.516ZM102.333 125.287V125.429L93.2843 134.477L84.2359 125.429V125.287C87.0952 126.186 90.1324 126.677 93.2843 126.677C96.4362 126.677 99.4734 126.186 102.333 125.287ZM47.5115 143.827C49.2518 138.603 53.7006 134.745 59.1206 133.756L80.2034 129.926L93.2843 143.007L106.362 129.929L127.442 133.759C132.862 134.748 137.311 138.603 139.051 143.83L143.391 156.839H81.0056L69.2578 145.091L56.204 156.899C55.0669 158.042 53.0793 158.042 51.9392 156.899L45.352 150.312L47.5115 143.827ZM19.8627 105.26L33.6946 119.092L30.4191 122.367L16.5872 108.535L19.8627 105.26ZM72.7505 176.555C69.9033 179.396 66.115 180.968 62.0885 180.968C58.062 180.968 54.2737 179.396 51.4234 176.549L10.6605 135.789C7.81324 132.942 6.24485 129.153 6.24485 125.127C6.24485 121.097 7.81324 117.309 10.6605 114.462L12.3193 112.803L26.1513 126.635L26.0427 126.744C22.5169 130.272 22.5169 136.012 26.0427 139.541L47.6714 161.17C49.3815 162.877 51.6527 163.821 54.0716 163.821C56.4905 163.821 58.7617 162.88 60.3602 161.275L60.5864 161.073L74.4818 174.968L72.7505 176.555ZM78.9336 170.885L65.0684 157.02L69.0527 153.418L82.8937 167.259L78.9336 170.885Z" fill="white" fill-opacity="0.16"/>
<path d="M177.736 0H135.51C130.521 0 126.462 4.05971 126.462 9.04839V33.1774C126.462 38.1661 130.521 42.2258 135.51 42.2258H143.566L140.447 60.4161L169.553 42.2258H177.736C182.725 42.2258 186.784 38.1661 186.784 33.1774V9.04839C186.784 4.05971 182.725 0 177.736 0ZM180.752 33.1774C180.752 34.8393 179.398 36.1936 177.736 36.1936H167.822L148.666 48.1646L150.72 36.1936H135.51C133.848 36.1936 132.494 34.8393 132.494 33.1774V9.04839C132.494 7.3865 133.848 6.03226 135.51 6.03226H177.736C179.398 6.03226 180.752 7.3865 180.752 9.04839V33.1774Z" fill="white" fill-opacity="0.16"/>
<path d="M174.72 12.0645H138.526V18.0967H174.72V12.0645Z" fill="white" fill-opacity="0.16"/>
<path d="M162.655 24.1289H138.526V30.1612H162.655V24.1289Z" fill="white" fill-opacity="0.16"/>
<path d="M174.72 24.1289H168.688V30.1612H174.72V24.1289Z" fill="white" fill-opacity="0.16"/>
<path d="M93.2843 9.04883C53.8755 9.04883 19.929 36.3086 11.1038 74.3329L5.38824 64.805L0.215576 67.9086L10.8173 85.5741L28.4827 74.9724L25.3791 69.7997L17.2054 74.7039C25.7531 39.9189 57.0334 15.0811 93.2843 15.0811C101.208 15.0811 109.025 16.2574 116.521 18.5798L118.306 12.819C110.232 10.3156 101.814 9.04883 93.2843 9.04883Z" fill="white" fill-opacity="0.16"/>
<path d="M185.318 66.7833L167.653 56.1816L157.054 73.8501L162.227 76.9537L167.505 68.1557C170.283 76.2841 171.704 84.7866 171.704 93.5002C171.704 111.437 165.49 128.973 154.213 142.874L158.897 146.675C171.046 131.702 177.736 112.815 177.736 93.5002C177.736 84.2739 176.249 75.2647 173.35 66.6386L182.215 71.956L185.318 66.7833Z" fill="white" fill-opacity="0.16"/>
</svg>
