<svg width="161" height="188" viewBox="0 0 161 188" fill="none" xmlns="http://www.w3.org/2000/svg">
<path d="M126.029 144.96C126.531 145.462 127.212 145.744 127.922 145.744C128.632 145.744 129.314 145.462 129.816 144.96L144.961 129.815C145.463 129.313 145.745 128.632 145.745 127.921C145.745 127.211 145.463 126.53 144.961 126.028L134.486 115.553C138.765 108.973 141.794 101.66 143.422 93.982L158.236 93.9649C158.946 93.9643 159.626 93.6823 160.127 93.1807C160.629 92.6792 160.911 91.9991 160.911 91.2898L160.912 69.8966C160.911 69.1873 160.629 68.5072 160.127 68.0057C159.626 67.5041 158.946 67.2221 158.236 67.2215L143.422 67.2007C141.794 59.5223 138.765 52.2098 134.486 45.6295L144.961 35.1544C145.463 34.6523 145.745 33.9713 145.745 33.2612C145.745 32.5511 145.463 31.8701 144.961 31.368L129.816 16.2223C129.314 15.7202 128.632 15.4382 127.922 15.4382C127.212 15.4382 126.531 15.7202 126.029 16.2223L115.554 26.6975C108.974 22.4187 101.661 19.3895 93.9829 17.7615L93.9659 2.9472C93.9653 2.2379 93.6832 1.55784 93.1817 1.05629C92.6801 0.554743 92.0001 0.272707 91.2908 0.272099L69.8976 0.272099C69.1883 0.272708 68.5082 0.554742 68.0067 1.05629C67.5051 1.55783 67.2231 2.2379 67.2225 2.9472L67.2054 17.7615C59.5257 19.389 52.2119 22.4183 45.6305 26.6975L35.1554 16.2223C34.6533 15.7202 33.9723 15.4382 33.2622 15.4382C32.5521 15.4382 31.8711 15.7202 31.369 16.2223L16.2233 31.368C15.7212 31.8701 15.4391 32.5511 15.4391 33.2612C15.4391 33.9713 15.7212 34.6523 16.2233 35.1544L26.6984 45.6295C22.4197 52.2098 19.3904 59.5223 17.7625 67.2007L2.94817 67.2177C2.23888 67.2183 1.55881 67.5004 1.05726 68.0019C0.555708 68.5035 0.273671 69.1835 0.273068 69.8928V91.286C0.273678 91.9953 0.555704 92.6754 1.05725 93.1769C1.5588 93.6785 2.23887 93.9605 2.94816 93.9611L17.7625 93.9782C19.39 101.658 22.4192 108.972 26.6984 115.553L16.2233 126.028C15.7212 126.53 15.4391 127.211 15.4391 127.921C15.4391 128.632 15.7212 129.313 16.2233 129.815L31.369 144.96C31.8711 145.462 32.5521 145.744 33.2622 145.744C33.9723 145.744 34.6533 145.462 35.1554 144.96L45.6305 134.485C52.2137 138.758 59.5272 141.782 67.2054 143.406L67.2054 174.299C67.2209 177.84 68.6382 181.23 71.147 183.727C73.6559 186.225 77.052 187.628 80.5923 187.628C84.1326 187.628 87.5287 186.225 90.0376 183.727C92.5464 181.23 93.9636 177.84 93.9791 174.299L93.9791 143.406C101.657 141.782 108.971 138.758 115.554 134.485L126.029 144.96ZM80.5923 182.332C79.5374 182.332 78.4928 182.125 77.5181 181.721C76.5435 181.317 75.6579 180.726 74.912 179.98C74.1661 179.234 73.5744 178.348 73.1707 177.373C72.767 176.399 72.5593 175.354 72.5594 174.299L72.5575 101.799C72.5564 100.039 72.2068 98.297 71.529 96.673C70.8512 95.049 69.8585 93.5752 68.6083 92.3368C68.2136 91.9418 67.7957 91.5707 67.3569 91.2255C64.6057 89.0642 62.4263 86.2615 61.0095 83.0626C59.5928 79.8637 58.9819 76.3662 59.2304 72.8765C59.4789 69.3868 60.5792 66.0111 62.4349 63.0453C64.2906 60.0794 66.8452 57.6137 69.8749 55.8642L69.873 72.5679C69.8728 73.2779 70.1548 73.9589 70.6567 74.4611L78.6896 82.494C79.1917 82.9961 79.8727 83.2782 80.5828 83.2782C81.2929 83.2782 81.9739 82.9961 82.476 82.494L90.5184 74.4517C91.0203 73.9495 91.3023 73.2685 91.3021 72.5585L91.3097 55.8642C94.3374 57.6147 96.89 60.0807 98.7439 63.0462C100.598 66.0117 101.697 69.3864 101.945 72.875C102.192 76.3636 101.581 79.8597 100.165 83.0574C98.7486 86.2552 96.5701 89.057 93.8201 91.2179C92.205 92.4676 90.8968 94.07 89.9955 95.9025C89.0942 97.735 88.6235 99.7493 88.6195 101.791L88.6251 174.299C88.6252 175.354 88.4175 176.399 88.0139 177.373C87.6102 178.348 87.0185 179.234 86.2726 179.98C85.5266 180.726 84.6411 181.317 83.6664 181.721C82.6918 182.125 81.6472 182.332 80.5923 182.332ZM93.9716 101.808C93.978 100.577 94.2661 99.3635 94.8138 98.2606C95.3615 97.1577 96.1542 96.1948 97.1313 95.4454C100.902 92.4859 103.809 88.5678 105.547 84.1005C107.285 79.6333 107.791 74.7811 107.013 70.0513C106.234 65.3215 104.199 60.8878 101.12 57.2137C98.0411 53.5397 94.0318 50.7602 89.5112 49.166C89.1074 49.0241 88.6754 48.9811 88.2516 49.0406C87.8277 49.1001 87.4243 49.2603 87.0751 49.5079C86.726 49.7554 86.4413 50.0831 86.2448 50.4633C86.0484 50.8436 85.946 51.2654 85.9463 51.6934L85.9482 71.449L80.5923 76.8049L75.2364 71.449L75.2383 51.6934C75.2385 51.2654 75.1361 50.8436 74.9397 50.4633C74.7433 50.0831 74.4586 49.7554 74.1094 49.5079C73.7603 49.2603 73.3568 49.1001 72.933 49.0406C72.5091 48.9811 72.0772 49.0241 71.6734 49.166C67.1541 50.7598 63.1459 53.5382 60.0676 57.2109C56.9894 60.8836 54.9542 65.3157 54.1747 70.0439C53.3952 74.7722 53.9 79.6231 55.6364 84.0895C57.3729 88.5559 60.2771 92.4739 64.0457 95.434C65.0225 96.1839 65.815 97.1473 66.3623 98.2505C66.9096 99.3537 67.1974 100.568 67.2035 101.799L67.2054 121.274C57.5217 118.091 49.2894 111.561 43.9858 102.855C38.6823 94.1502 36.6545 83.8399 38.2666 73.7745C39.8786 63.7092 45.0248 54.5478 52.7818 47.9343C60.5388 41.3208 70.3987 37.6882 80.5923 37.6882C90.7859 37.6882 100.646 41.3208 108.403 47.9343C116.16 54.5478 121.306 63.7092 122.918 73.7745C124.53 83.8399 122.502 94.1502 117.199 102.855C111.895 111.561 103.663 118.091 93.9791 121.274L93.9716 101.808ZM114.327 128.851C108.189 133.163 101.277 136.252 93.9697 137.948V126.876C105.139 123.651 114.767 116.501 121.085 106.742C127.403 96.9837 129.985 85.2719 128.356 73.7612C126.727 62.2505 120.997 51.7149 112.22 44.0921C103.443 36.4694 92.2082 32.272 80.5828 32.272C68.9574 32.272 57.723 36.4694 48.9456 44.0921C40.1682 51.7149 34.4382 62.2505 32.8094 73.7612C31.1806 85.2719 33.7625 96.9837 40.0803 106.742C46.3982 116.501 56.027 123.651 67.196 126.876L67.196 137.948C59.8886 136.252 52.9766 133.163 46.8383 128.851C46.3248 128.488 45.6997 128.317 45.0727 128.369C44.4458 128.42 43.857 128.691 43.4097 129.133L33.2622 139.281L21.9029 127.921L32.0505 117.774C32.4967 117.327 32.7706 116.737 32.824 116.108C32.8773 115.479 32.7066 114.851 32.3421 114.336C27.4153 107.318 24.096 99.3008 22.6205 90.8544C22.5121 90.2336 22.1882 89.6709 21.7058 89.2654C21.2234 88.8599 20.6134 88.6375 19.9832 88.6374L5.63841 88.6242L5.63841 72.5774L19.9832 72.5641C20.6134 72.5641 21.2234 72.3417 21.7058 71.9362C22.1882 71.5307 22.5121 70.968 22.6205 70.3472C24.0975 61.8966 27.4201 53.8759 32.3515 46.8563C32.7174 46.339 32.888 45.7086 32.8329 45.0774C32.7777 44.4461 32.5005 43.8549 32.0505 43.4088L21.9029 33.2612L33.2622 21.902L43.4097 32.0495C43.8564 32.4957 44.4464 32.7696 45.0755 32.823C45.7046 32.8763 46.3323 32.7057 46.8478 32.3411C53.8654 27.4143 61.8828 24.095 70.3292 22.6195C70.95 22.5111 71.5127 22.1872 71.9182 21.7048C72.3237 21.2224 72.5461 20.6125 72.5462 19.9823L72.5594 5.63744H88.6062L88.6195 19.9823C88.6195 20.6125 88.8419 21.2224 89.2474 21.7048C89.6529 22.1872 90.2156 22.5111 90.8364 22.6195C99.287 24.0965 107.308 27.4191 114.327 32.3506C114.845 32.7165 115.475 32.887 116.106 32.8319C116.737 32.7768 117.329 32.4996 117.775 32.0495L127.922 21.902L139.282 33.2612L129.134 43.4088C128.688 43.8555 128.414 44.4455 128.361 45.0746C128.307 45.7037 128.478 46.3314 128.843 46.8468C133.774 53.8664 137.097 61.8872 138.574 70.3377C138.682 70.9585 139.006 71.5212 139.488 71.9267C139.971 72.3322 140.581 72.5546 141.211 72.5547L155.556 72.5679L155.556 88.6147L141.211 88.628C140.581 88.628 139.971 88.8504 139.488 89.2559C139.006 89.6614 138.682 90.2241 138.574 90.8449C137.097 99.2954 133.774 107.316 128.842 114.336C128.478 114.851 128.307 115.479 128.361 116.108C128.414 116.737 128.688 117.327 129.134 117.774L139.282 127.921L127.922 139.281L117.775 129.133C117.328 128.687 116.738 128.413 116.109 128.36C115.48 128.306 114.852 128.477 114.337 128.842L114.327 128.851Z" fill="white" fill-opacity="0.16"/>
</svg>
