<svg width="169" height="169" viewBox="0 0 169 169" fill="none" xmlns="http://www.w3.org/2000/svg">
<g clip-path="url(#clip0)">
<path d="M84.5 27.5549C86.5206 27.5549 88.1739 25.9016 88.1739 23.881V22.044C88.1739 20.0234 86.5206 18.3701 84.5 18.3701C82.4793 18.3701 80.826 20.0234 80.826 22.044V23.881C80.826 25.9016 82.4793 27.5549 84.5 27.5549Z" fill="white" fill-opacity="0.16"/>
<path d="M84.5 141.446C82.4793 141.446 80.826 143.1 80.826 145.12V146.957C80.826 148.978 82.4793 150.631 84.5 150.631C86.5206 150.631 88.1739 148.978 88.1739 146.957V145.12C88.1739 143.1 86.5206 141.446 84.5 141.446Z" fill="white" fill-opacity="0.16"/>
<path d="M23.8804 80.8271H22.0435C20.0228 80.8271 18.3696 82.4804 18.3696 84.5011C18.3696 86.5217 20.0228 88.175 22.0435 88.175H23.8804C25.9011 88.175 27.5543 86.5217 27.5543 84.5011C27.5543 82.4804 25.9011 80.8271 23.8804 80.8271Z" fill="white" fill-opacity="0.16"/>
<path d="M146.957 80.8271H145.12C143.099 80.8271 141.446 82.4804 141.446 84.5011C141.446 86.5217 143.099 88.175 145.12 88.175H146.957C148.977 88.175 150.63 86.5217 150.63 84.5011C150.63 82.4804 148.977 80.8271 146.957 80.8271Z" fill="white" fill-opacity="0.16"/>
<path d="M42.9848 37.8424C41.5152 36.3728 39.3109 36.3728 37.8413 37.8424C36.3717 39.312 36.3717 41.5163 37.8413 42.9859L39.1272 44.2718C39.862 45.0065 40.7804 45.3739 41.6989 45.3739C42.6174 45.3739 43.5359 45.0065 44.2707 44.2718C45.7402 42.8022 45.7402 40.5978 44.2707 39.1283L42.9848 37.8424Z" fill="white" fill-opacity="0.16"/>
<path d="M39.1272 124.73L37.8413 126.016C36.3717 127.486 36.3717 129.69 37.8413 131.159C38.5761 131.894 39.4946 132.262 40.413 132.262C41.3315 132.262 42.25 131.894 42.9848 131.159L44.2707 129.874C45.7402 128.404 45.7402 126.2 44.2707 124.73C42.8011 123.261 40.5967 123.261 39.1272 124.73Z" fill="white" fill-opacity="0.16"/>
<path d="M126.015 37.8424L124.729 39.1283C123.26 40.5978 123.26 42.8022 124.729 44.2718C125.464 45.0065 126.383 45.3739 127.301 45.3739C128.22 45.3739 129.138 45.0065 129.873 44.2718L131.159 42.9859C132.628 41.5163 132.628 39.312 131.159 37.8424C129.689 36.3728 127.485 36.3728 126.015 37.8424Z" fill="white" fill-opacity="0.16"/>
<path d="M88.1739 83.0313V49.5987C88.1739 47.5781 86.5206 45.9248 84.5 45.9248C82.4793 45.9248 80.826 47.5781 80.826 49.5987V84.5009C80.826 85.4194 81.1934 86.3378 81.9282 87.0726L122.158 127.302C122.892 128.037 123.811 128.404 124.729 128.404C125.648 128.404 126.566 128.037 127.301 127.302C128.771 125.832 128.771 123.628 127.301 122.158L88.1739 83.0313Z" fill="white" fill-opacity="0.16"/>
<path d="M84.5 0.000976562C37.8413 0.000976562 0 37.8423 0 84.501C0 131.16 37.8413 169.001 84.5 169.001C131.159 169.001 169 131.16 169 84.501C169 37.8423 131.159 0.000976562 84.5 0.000976562ZM84.5 161.653C41.8826 161.653 7.34783 127.118 7.34783 84.501C7.34783 41.8836 41.8826 7.3488 84.5 7.3488C127.117 7.3488 161.652 41.8836 161.652 84.501C161.652 127.118 127.117 161.653 84.5 161.653Z" fill="white" fill-opacity="0.16"/>
</g>
<defs>
<clipPath id="clip0">
<rect width="169" height="169" fill="white" transform="translate(0 0.000976562)"/>
</clipPath>
</defs>
</svg>
