<svg width="169" height="139" viewBox="0 0 169 139" fill="none" xmlns="http://www.w3.org/2000/svg">
<path d="M6.1005 61.4705C5.63314 61.4705 5.16614 61.2923 4.80941 60.936L0.793 56.9197C0.0799049 56.2066 0.0799049 55.0506 0.793 54.3379L4.80941 50.3216C5.5225 49.6089 6.67814 49.6089 7.39123 50.3216L11.4076 54.3379C12.1207 55.051 12.1207 56.207 11.4076 56.9197L7.39123 60.936C7.03487 61.2923 6.56787 61.4705 6.1005 61.4705ZM4.66591 55.6286L6.1005 57.0632L7.53509 55.6286L6.1005 54.1941L4.66591 55.6286Z" fill="#023872"/>
<path d="M137.746 25.9142C137.278 25.9142 136.811 25.7361 136.454 25.3797L132.438 21.3633C131.725 20.6502 131.725 19.4942 132.438 18.7814L136.454 14.765C137.168 14.0523 138.323 14.0523 139.036 14.765L143.053 18.7814C143.766 19.4945 143.766 20.6505 143.053 21.3633L139.036 25.3797C138.68 25.7357 138.213 25.9142 137.746 25.9142ZM136.311 20.0722L137.746 21.5068L139.18 20.0722L137.746 18.6376L136.311 20.0722Z" fill="#023872"/>
<path d="M47.501 9.72946C44.8812 9.72946 42.7499 7.59824 42.7499 4.9785C42.7499 2.35875 44.8812 0.227539 47.501 0.227539C50.1208 0.227539 52.2521 2.35875 52.2521 4.9785C52.2521 7.59824 50.1208 9.72946 47.501 9.72946ZM47.501 3.87875C46.8945 3.87875 46.4012 4.37203 46.4012 4.9785C46.4012 5.58496 46.8945 6.07824 47.501 6.07824C48.1075 6.07824 48.6008 5.58496 48.6008 4.9785C48.6008 4.37203 48.1075 3.87875 47.501 3.87875Z" fill="#023872"/>
<path opacity="0.1" d="M165.421 85.7372C162.774 76.7652 154.34 71.0841 145.391 71.5533C142.14 66.3046 137.275 62.1622 131.489 59.8166C129.242 35.6033 108.872 16.6465 84.0713 16.6465C59.0087 16.6465 38.4676 36.0053 36.5853 60.5855C31.2351 61.2902 26.067 63.6946 21.956 67.8056C18.6476 71.1141 16.448 75.1089 15.3442 79.331C7.64763 81.1033 1.90668 87.9926 1.90668 96.2274C1.90668 105.806 9.67155 113.571 19.2504 113.571C23.2865 113.571 26.9974 112.189 29.944 109.877C33.94 113.759 39.3892 116.153 45.4003 116.153C49.6084 116.153 53.5398 114.978 56.8913 112.942L80.9085 136.959C82.655 138.706 85.4865 138.706 87.233 136.959L109.996 114.197C113.261 115.458 116.806 116.153 120.516 116.153C127.469 116.153 133.852 113.721 138.871 109.668C142.904 111.331 147.509 111.683 152.019 110.353C162.518 107.256 168.518 96.2354 165.421 85.7372V85.7372Z" fill="#023872"/>
<path d="M165.421 75.8778C162.774 66.9058 154.34 61.2248 145.391 61.694C142.14 56.4452 137.275 52.3028 131.489 49.9572C129.242 25.744 108.872 6.78711 84.0713 6.78711C59.0087 6.78711 38.4676 26.146 36.5853 50.7262C31.2351 51.4309 26.067 53.8353 21.956 57.9463C18.6476 61.2547 16.448 65.2496 15.3442 69.4716C7.64763 71.244 1.90668 78.1332 1.90668 86.368C1.90668 95.9469 9.67155 103.712 19.2504 103.712C23.2865 103.712 26.9974 102.329 29.944 100.017C33.94 103.899 39.3892 106.294 45.4003 106.294C51.605 106.294 57.2119 103.745 61.2386 99.6394C67.7912 103.851 75.5886 106.294 83.9566 106.294C91.2268 106.294 98.066 104.45 104.033 101.204C108.726 104.414 114.401 106.294 120.516 106.294C127.469 106.294 133.852 103.862 138.871 99.8085C142.904 101.471 147.509 101.824 152.019 100.493C162.518 97.3968 168.518 86.3761 165.421 75.8778V75.8778Z" fill="white"/>
<path d="M151.226 100.711C146.972 101.781 142.667 101.376 138.87 99.8091C133.853 103.866 127.471 106.297 120.515 106.297C114.403 106.297 108.725 104.417 104.033 101.208C98.0668 104.454 91.2279 106.297 83.9581 106.297C75.5893 106.297 67.7902 103.851 61.2397 99.6412C57.2123 103.745 51.6039 106.297 45.4003 106.297C39.3903 106.297 33.9389 103.902 29.9444 100.021C26.9978 102.332 23.288 103.712 19.2497 103.712C18.304 103.712 17.3766 103.636 16.471 103.49C15.4122 101.467 14.8134 99.1628 14.8134 96.7201C14.8134 89.779 19.6513 83.9698 26.1397 82.4765C27.0708 78.9201 28.922 75.55 31.7116 72.764C35.1767 69.2953 39.5327 67.2688 44.0421 66.6773C45.6304 45.9563 62.9449 29.6387 84.0713 29.6387C104.975 29.6387 122.147 45.6167 124.042 66.0274C128.92 68.0064 133.021 71.497 135.759 75.9224C143.303 75.5244 150.412 80.3149 152.643 87.8767C153.961 92.3495 153.322 96.9319 151.226 100.711V100.711Z" fill="#023872"/>
<path d="M51.0105 97.2031L80.9092 127.102C82.6556 128.848 85.4872 128.848 87.2337 127.102L117.132 97.2031C119.95 94.3857 117.954 89.5689 113.97 89.5689H107.803V53.3461C107.803 50.8764 105.801 48.874 103.331 48.874H64.8121C62.3423 48.874 60.3399 50.876 60.3399 53.3461V89.5689H54.1725C50.1886 89.5689 48.1931 94.3857 51.0105 97.2031Z" fill="white"/>
<path d="M167.173 75.3609C164.437 66.0862 156.017 59.8425 146.455 59.8425C146.426 59.8425 146.398 59.8425 146.369 59.8425C143.128 54.9921 138.509 51.0866 133.192 48.7002C131.834 36.905 126.278 26.0194 117.47 17.9467C108.334 9.57351 96.4726 4.96191 84.0713 4.96191C71.5294 4.96191 59.5685 9.66443 50.3917 18.2034C41.6179 26.3673 36.1501 37.3092 34.897 49.1474C29.4894 50.1523 24.5934 52.7294 20.6635 56.656C17.5055 59.8176 15.1715 63.7107 13.8717 67.9699C5.69749 70.3385 0.0803223 77.7554 0.0803223 86.3714C0.0803223 96.9415 8.67951 105.541 19.2497 105.541C23.0551 105.541 26.6753 104.448 29.81 102.368C34.1576 106.09 39.6364 108.122 45.4 108.122C49.3131 108.122 53.1488 107.168 56.5821 105.357L79.6178 128.393C80.8071 129.582 82.3888 130.237 84.0709 130.237C85.7531 130.237 87.3345 129.582 88.5241 128.393L118.423 98.4944C120.258 96.6593 120.781 94.0296 119.788 91.6315C118.795 89.2336 116.565 87.7439 113.97 87.7439H109.628V77.0332C109.628 76.0251 108.81 75.2075 107.802 75.2075C106.794 75.2075 105.977 76.0251 105.977 77.0332V89.5696C105.977 90.5777 106.794 91.3952 107.802 91.3952H113.97C115.077 91.3952 115.991 92.0061 116.415 93.0288C116.838 94.0515 116.624 95.1298 115.841 95.9126L85.9422 125.811C85.4424 126.311 84.7782 126.586 84.0713 126.586C83.3644 126.586 82.6999 126.311 82.2 125.811L52.3013 95.913C51.5181 95.1301 51.3041 94.0519 51.7277 93.0292C52.1512 92.0064 53.0655 91.3956 54.1726 91.3956H60.34C61.3481 91.3956 62.1657 90.5781 62.1657 89.5699V53.3468C62.1657 51.8877 63.3527 50.7007 64.8121 50.7007H103.33C104.79 50.7007 105.977 51.8877 105.977 53.3468V64.6187C105.977 65.6269 106.794 66.4444 107.803 66.4444C108.811 66.4444 109.628 65.6269 109.628 64.6187V53.3468C109.628 49.8744 106.803 47.0494 103.33 47.0494H64.8121C61.3397 47.0494 58.5144 49.8744 58.5144 53.3468V87.7443H54.1726C51.5772 87.7443 49.3478 89.234 48.3542 91.6318C47.3611 94.0296 47.884 96.6597 49.7195 98.4948L53.8557 102.631C51.2161 103.839 48.3345 104.472 45.4 104.472C40.0767 104.472 35.0394 102.426 31.2161 98.7113C30.5607 98.0742 29.5358 98.0201 28.8172 98.5843C26.0601 100.747 22.7516 101.89 19.2493 101.89C10.6925 101.89 3.73126 94.9289 3.73126 86.3721C3.73126 79.0991 8.6744 72.882 15.7517 71.2528C16.4133 71.1005 16.9362 70.5934 17.1082 69.9365C18.1671 65.8967 20.2896 62.1968 23.2449 59.2382C26.9496 55.5372 31.6448 53.2205 36.8241 52.538C37.68 52.4252 38.3402 51.7282 38.4059 50.8672C39.2837 39.3952 44.4232 28.7443 52.8786 20.8769C61.3774 12.9689 72.455 8.61395 84.0709 8.61395C95.5565 8.61395 106.542 12.8845 115.003 20.6395C123.412 28.346 128.62 38.8183 129.669 50.1264C129.732 50.8055 130.168 51.393 130.8 51.6493C136.16 53.8237 140.791 57.7331 143.838 62.6573C144.189 63.2243 144.824 63.5507 145.487 63.5197C153.829 63.0804 161.304 68.3752 163.671 76.3946C166.477 85.9113 161.017 95.9374 151.501 98.7442C147.524 99.9166 143.396 99.7023 139.565 98.1246C138.947 97.8704 138.241 97.973 137.722 98.3926C134.374 101.097 130.393 102.994 126.208 103.879C125.222 104.088 124.591 105.057 124.8 106.043C125.009 107.029 125.976 107.659 126.964 107.451C131.365 106.52 135.567 104.603 139.18 101.885C143.462 103.402 148.163 103.535 152.534 102.247C163.982 98.8694 170.549 86.8088 167.173 75.3609V75.3609Z" fill="#023872"/>
<path d="M92.9924 74.5559C92.67 74.5559 92.3432 74.4705 92.0475 74.2908C89.6453 72.8336 86.8875 72.0635 84.0712 72.0635C81.2553 72.0635 78.4971 72.8336 76.0949 74.2908C75.2329 74.8141 74.1101 74.5391 73.5872 73.6767C73.0643 72.8146 73.3393 71.6918 74.2014 71.1689C77.1746 69.3655 80.5875 68.4121 84.0712 68.4121C87.5549 68.4121 90.9682 69.3655 93.941 71.1689C94.8031 71.6918 95.0781 72.8146 94.5552 73.6767C94.212 74.243 93.6095 74.5559 92.9924 74.5559V74.5559Z" fill="#023872"/>
<path d="M87.8656 80.4837C87.5432 80.4837 87.2164 80.3983 86.9203 80.2187C86.0626 79.6986 85.0775 79.4234 84.0712 79.4234C83.0649 79.4234 82.0797 79.6986 81.2221 80.2187C80.3596 80.7418 79.2372 80.4669 78.714 79.6052C78.1911 78.7434 78.4657 77.621 79.3277 77.098C80.7565 76.2315 82.3967 75.7734 84.0708 75.7734C85.7449 75.7734 87.3851 76.2315 88.8139 77.098C89.6759 77.621 89.9505 78.7434 89.4277 79.6052C89.0844 80.1709 88.4827 80.4837 87.8656 80.4837Z" fill="#023872"/>
<path d="M97.7355 68.3179C97.4131 68.3179 97.0863 68.2324 96.7906 68.0528C92.9596 65.7291 88.5616 64.5009 84.0712 64.5009C79.5812 64.5009 75.1825 65.7291 71.3519 68.0528C70.4898 68.5764 69.367 68.3011 68.8442 67.4387C68.3213 66.5766 68.5962 65.4538 69.4583 64.931C73.8603 62.2608 78.9134 60.8496 84.0716 60.8496C89.2298 60.8496 94.2829 62.2608 98.6845 64.931C99.5466 65.4538 99.8215 66.5766 99.2987 67.4387C98.9551 68.005 98.3526 68.3179 97.7355 68.3179Z" fill="#023872"/>
</svg>
