<svg width="129" height="130" viewBox="0 0 129 130" fill="none" xmlns="http://www.w3.org/2000/svg">
<g clip-path="url(#clip0)">
<path opacity="0.1" d="M122.703 16.6992V90.6899C122.703 93.0995 120.748 95.0552 118.338 95.0552H10.6622C8.25255 95.0552 6.29692 93.0995 6.29692 90.6899V16.6992C6.29692 14.2896 8.25255 12.334 10.6622 12.334H118.338C120.748 12.334 122.703 14.2896 122.703 16.6992Z" fill="white"/>
<path d="M82.9321 10.4369C82.5462 10.4369 82.176 10.2836 81.9034 10.0109L78.697 6.80449C78.1286 6.23613 78.1286 5.31478 78.697 4.74671L81.9034 1.5403C82.1763 1.26733 82.5462 1.11426 82.9321 1.11426C83.318 1.11426 83.6882 1.26762 83.9608 1.5403L87.1675 4.74671C87.4405 5.01969 87.5939 5.38957 87.5939 5.77575C87.5939 6.16192 87.4408 6.5318 87.1675 6.80478L83.9608 10.0112C83.6882 10.2836 83.318 10.4369 82.9321 10.4369ZM81.7838 5.77545L82.9321 6.92409L84.0807 5.77545L82.9321 4.62682L81.7838 5.77545Z" fill="white"/>
<path d="M101.183 118.021C100.797 118.021 100.427 117.868 100.154 117.595L96.9474 114.388C96.3791 113.82 96.3791 112.899 96.9474 112.331L100.154 109.124C100.722 108.556 101.643 108.556 102.211 109.124L105.418 112.331C105.691 112.604 105.844 112.974 105.844 113.36C105.844 113.746 105.691 114.116 105.418 114.389L102.211 117.595C101.938 117.868 101.568 118.021 101.183 118.021ZM100.034 113.359L101.183 114.508L102.331 113.359L101.183 112.211L100.034 113.359Z" fill="white"/>
<path d="M21.0468 129.883C20.243 129.883 19.5917 129.231 19.5917 128.427C19.5917 127.462 18.806 126.676 17.8401 126.676C17.0363 126.676 16.385 126.025 16.385 125.221C16.385 124.418 17.0363 123.766 17.8401 123.766C18.8057 123.766 19.5917 122.98 19.5917 122.015C19.5917 121.211 20.243 120.56 21.0468 120.56C21.8506 120.56 22.5019 121.211 22.5019 122.015C22.5019 122.98 23.2873 123.766 24.2532 123.766C25.057 123.766 25.7083 124.418 25.7083 125.221C25.7083 126.025 25.057 126.676 24.2532 126.676C23.2876 126.676 22.5019 127.462 22.5019 128.427C22.5019 129.231 21.8503 129.883 21.0468 129.883Z" fill="white"/>
<path d="M33.6571 116.38C32.8533 116.38 32.202 115.728 32.202 114.925C32.202 113.959 31.4165 113.173 30.4507 113.173C29.6469 113.173 28.9956 112.522 28.9956 111.718C28.9956 110.915 29.6469 110.263 30.4507 110.263C31.4162 110.263 32.202 109.477 32.202 108.512C32.202 107.708 32.8533 107.057 33.6571 107.057C34.4609 107.057 35.1121 107.708 35.1121 108.512C35.1121 109.477 35.8979 110.263 36.8638 110.263C37.6676 110.263 38.3188 110.915 38.3188 111.718C38.3188 112.522 37.6676 113.173 36.8638 113.173C35.8982 113.173 35.1121 113.959 35.1121 114.925C35.1121 115.728 34.4606 116.38 33.6571 116.38Z" fill="white"/>
<path d="M81.0035 122.326H47.9962L52.298 105.271L54.5971 96.1621H74.4027L76.7017 105.271L81.0035 122.326Z" fill="white"/>
<path d="M81.0047 123.779H47.9954C47.5466 123.779 47.1232 123.572 46.8476 123.218C46.572 122.864 46.4748 122.403 46.5848 121.968L51.78 101.38C51.9768 100.601 52.7678 100.129 53.5468 100.325C54.3259 100.522 54.7982 101.313 54.6014 102.092L49.8634 120.869H79.1373L74.357 101.924C74.1603 101.145 74.6326 100.354 75.4117 100.158C76.1919 99.9616 76.982 100.433 77.1784 101.213L82.4156 121.968C82.5256 122.403 82.4284 122.864 82.1528 123.218C81.8772 123.572 81.4534 123.779 81.0047 123.779Z" fill="white"/>
<path d="M122.703 22.8105V96.8013C122.703 99.2109 120.748 101.167 118.338 101.167H10.6622C8.25255 101.167 6.29692 99.2109 6.29692 96.8013V22.8105C6.29692 20.4009 8.25255 18.4453 10.6622 18.4453H118.338C120.748 18.4453 122.703 20.4009 122.703 22.8105Z" fill="white"/>
<path d="M118.338 18.4453H93.3106V101.167H118.338C120.748 101.167 122.703 99.2109 122.703 96.8013V22.8105C122.703 20.4009 120.748 18.4453 118.338 18.4453Z" fill="white"/>
<path d="M117.319 46.136L115.227 38.7878C115.049 38.1621 114.476 37.7285 113.827 37.7285H106.726C106.077 37.7285 105.504 38.1621 105.327 38.7878L103.234 46.136C100.301 46.8548 97.5391 48.0101 95.0247 49.535L88.3488 45.8188C87.7813 45.5015 87.0712 45.6005 86.6114 46.0603L81.5914 51.0832C81.1316 51.543 81.0327 52.2502 81.347 52.8206L85.0661 59.4965C83.5412 62.0109 82.383 64.7726 81.6642 67.7031L74.316 69.7984C73.6903 69.976 73.2596 70.5464 73.2596 71.1982V78.299C73.2596 78.948 73.6903 79.5184 74.316 79.6988L81.6642 81.7912C82.1569 83.8021 82.8588 85.7313 83.7423 87.5562H104.945C99.9303 85.4664 96.4041 80.5212 96.4041 74.7486C96.4041 67.0862 102.614 60.8759 110.277 60.8759C115.722 60.8759 120.43 64.0101 122.703 68.5733V48.0276C120.992 47.2302 119.191 46.5958 117.319 46.136Z" fill="white"/>
<path d="M112.219 89.011H82.83L82.4325 88.1901C81.6185 86.5086 80.9582 84.7537 80.4655 82.9625L73.9176 81.098C72.6715 80.7386 71.8046 79.5879 71.8046 78.2987V71.1979C71.8046 69.9026 72.6741 68.7514 73.9188 68.3984L80.4655 66.5315C81.143 64.0672 82.1237 61.7009 83.3899 59.477L80.0758 53.5286C79.4495 52.3922 79.6509 50.9659 80.5621 50.0542L85.5821 45.0316C86.4985 44.1149 87.928 43.9164 89.0586 44.5485L95.0052 47.8588C97.2262 46.5949 99.5934 45.6147 102.063 44.937L103.927 38.3894C104.28 37.1439 105.432 36.2734 106.726 36.2734H113.827C115.122 36.2734 116.273 37.1442 116.626 38.3906L118.491 44.9373C120.153 45.3944 121.773 45.9887 123.318 46.7084L124.158 47.1001V74.7582L121.4 69.2216C119.283 64.9711 115.021 62.3307 110.277 62.3307C103.43 62.3307 97.8589 67.9013 97.8589 74.7483C97.8589 79.7771 100.86 84.2773 105.504 86.2129L112.219 89.011ZM84.6707 86.1008H99.9699C96.824 83.2503 94.949 79.1645 94.949 74.7483C94.949 66.2966 101.825 59.4205 110.277 59.4205C114.5 59.4205 118.414 61.1154 121.248 64.0285V48.9716C119.873 48.3864 118.439 47.9091 116.972 47.5485L116.152 47.3469L113.828 39.1856L106.727 39.183L104.402 47.3475L103.581 47.5488C100.824 48.2243 98.1997 49.3109 95.7796 50.7788L95.0564 51.2174L87.6416 47.0896L82.621 52.1114L86.7497 59.527L86.3108 60.2505C84.84 62.6755 83.7522 65.2993 83.0776 68.0491L82.8763 68.8698L74.7153 71.1971L74.715 78.2984L82.8763 80.6228L83.0776 81.4443C83.4664 83.033 84.0013 84.5951 84.6707 86.1008Z" fill="black"/>
<path d="M122.703 32.4648V22.8115C122.703 20.4008 120.749 18.4463 118.338 18.4463H10.6622C8.25138 18.4463 6.29692 20.4008 6.29692 22.8115V32.4648H122.703Z" fill="white"/>
<path d="M122.703 33.9199H6.29692C5.49314 33.9199 4.84184 33.2683 4.84184 32.4648C4.84184 31.6613 5.49314 31.0098 6.29692 31.0098H122.703C123.507 31.0098 124.158 31.6613 124.158 32.4648C124.158 33.2683 123.507 33.9199 122.703 33.9199Z" fill="black"/>
<path d="M6.29665 86.5029V96.802C6.29665 99.2127 8.25111 101.167 10.6619 101.167H118.338C120.748 101.167 122.703 99.2127 122.703 96.802V86.5029H6.29665Z" fill="white"/>
<path d="M122.542 87.958H15.5972C14.7934 87.958 14.1421 87.3064 14.1421 86.5029C14.1421 85.6994 14.7934 85.0479 15.5972 85.0479H122.542C123.346 85.0479 123.997 85.6994 123.997 86.5029C123.997 87.3064 123.346 87.958 122.542 87.958Z" fill="black"/>
<path d="M86.598 123.778H42.4021C41.5983 123.778 40.947 123.127 40.947 122.323C40.947 121.52 41.5983 120.868 42.4021 120.868H86.5977C87.4015 120.868 88.0528 121.52 88.0528 122.323C88.0528 123.127 87.4015 123.778 86.598 123.778Z" fill="white"/>
<path d="M17.3794 26.9321C16.5756 26.9321 15.9243 26.2806 15.9243 25.4771V25.4346C15.9243 24.6311 16.5756 23.9795 17.3794 23.9795C18.1831 23.9795 18.8344 24.6311 18.8344 25.4346V25.4771C18.8344 26.2806 18.1831 26.9321 17.3794 26.9321Z" fill="black"/>
<path d="M23.0033 26.9321C22.1995 26.9321 21.5482 26.2806 21.5482 25.4771V25.4346C21.5482 24.6311 22.1995 23.9795 23.0033 23.9795C23.807 23.9795 24.4583 24.6311 24.4583 25.4346V25.4771C24.4583 26.2806 23.807 26.9321 23.0033 26.9321Z" fill="black"/>
<path d="M28.6269 26.9321C27.8231 26.9321 27.1718 26.2806 27.1718 25.4771V25.4346C27.1718 24.6311 27.8231 23.9795 28.6269 23.9795C29.4306 23.9795 30.0819 24.6311 30.0819 25.4346V25.4771C30.0819 26.2806 29.4306 26.9321 28.6269 26.9321Z" fill="black"/>
<path d="M118.338 102.622H10.6622C7.45283 102.622 4.84184 100.011 4.84184 96.8014V22.8115C4.84184 19.6022 7.45283 16.9912 10.6622 16.9912H118.338C121.547 16.9912 124.158 19.6022 124.158 22.8115V32.4648C124.158 33.2683 123.507 33.9199 122.703 33.9199C121.899 33.9199 121.248 33.2683 121.248 32.4648V22.8115C121.248 21.2069 119.943 19.9014 118.338 19.9014H10.6622C9.0575 19.9014 7.752 21.2069 7.752 22.8115V96.8017C7.752 98.4063 9.0575 99.7118 10.6622 99.7118H118.338C119.943 99.7118 121.248 98.4063 121.248 96.8017V40.4797C121.248 39.6762 121.899 39.0246 122.703 39.0246C123.507 39.0246 124.158 39.6762 124.158 40.4797V96.8017C124.158 100.011 121.547 102.622 118.338 102.622Z" fill="black"/>
<path d="M65.5795 70.8152H17.0549C16.25 70.8152 15.5975 70.1627 15.5975 69.3578C15.5975 68.5528 16.25 67.9004 17.0549 67.9004H65.5795C66.3844 67.9004 67.0369 68.5528 67.0369 69.3578C67.0369 70.1627 66.3844 70.8152 65.5795 70.8152Z" fill="black"/>
<path d="M48.1185 58.5945H17.0549C16.25 58.5945 15.5975 57.942 15.5975 57.1371C15.5975 56.3321 16.25 55.6797 17.0549 55.6797H48.1185C48.9235 55.6797 49.5759 56.3321 49.5759 57.1371C49.5759 57.942 48.9235 58.5945 48.1185 58.5945Z" fill="black"/>
<path d="M65.5795 76.5964H17.0549C16.25 76.5964 15.5975 75.944 15.5975 75.139C15.5975 74.3341 16.25 73.6816 17.0549 73.6816H65.5795C66.3844 73.6816 67.0369 74.3341 67.0369 75.139C67.0369 75.9437 66.3844 76.5964 65.5795 76.5964Z" fill="black"/>
<path d="M20.8817 49.9175C20.5095 49.9175 20.1367 49.7755 19.853 49.4915L16.3506 45.9891C15.7823 45.4208 15.7823 44.4994 16.3506 43.9314L19.853 40.429C20.4208 39.8609 21.3427 39.8609 21.9105 40.429C22.4788 40.9973 22.4788 41.9187 21.9105 42.4867L19.4371 44.9604L21.9105 47.434C22.4788 48.0024 22.4788 48.9237 21.9105 49.4918C21.6267 49.7755 21.2539 49.9175 20.8817 49.9175Z" fill="black"/>
<path d="M34.4902 49.9169C34.118 49.9169 33.7452 49.7748 33.4615 49.4908C32.8931 48.9225 32.8931 48.0011 33.4615 47.433L35.9348 44.9594L33.4615 42.4858C32.8931 41.9174 32.8931 40.9961 33.4615 40.428C34.0293 39.8599 34.9512 39.8599 35.519 40.428L39.0213 43.9304C39.5897 44.4987 39.5897 45.4201 39.0213 45.9881L35.519 49.4905C35.2349 49.7748 34.8624 49.9169 34.4902 49.9169Z" fill="black"/>
<path d="M25.7068 49.9176C25.4644 49.9176 25.2187 49.857 24.9929 49.7293C24.293 49.3341 24.0459 48.4465 24.4411 47.7466L28.3966 40.7418C28.7915 40.0422 29.6794 39.7952 30.379 40.1901C31.0789 40.5853 31.326 41.4729 30.9308 42.1728L26.9753 49.1775C26.7076 49.6513 26.2143 49.9176 25.7068 49.9176Z" fill="black"/>
<path d="M100.31 76.5968H95.6533C95.171 76.5968 94.7802 76.2059 94.7802 75.7237V58.0107C94.7802 57.5285 95.171 57.1377 95.6533 57.1377H100.31C100.792 57.1377 101.183 57.5285 101.183 58.0107V75.7237C101.183 76.2059 100.792 76.5968 100.31 76.5968Z" fill="black"/>
<path d="M90.7895 76.5965H86.1333C85.6511 76.5965 85.2602 76.2056 85.2602 75.7234V64.7646C85.2602 64.2824 85.6511 63.8916 86.1333 63.8916H90.7895C91.2717 63.8916 91.6626 64.2824 91.6626 64.7646V75.7234C91.6626 76.2056 91.2717 76.5965 90.7895 76.5965Z" fill="black"/>
<path d="M109.83 76.596H105.173C104.691 76.596 104.3 76.2052 104.3 75.723V52.9248C104.3 52.4426 104.691 52.0518 105.173 52.0518H109.83C110.312 52.0518 110.703 52.4426 110.703 52.9248V75.723C110.703 76.2052 110.312 76.596 109.83 76.596Z" fill="black"/>
<path d="M79.8485 43.2555C80.747 43.2555 81.4753 42.5272 81.4753 41.6287C81.4753 40.7303 80.747 40.002 79.8485 40.002C78.9501 40.002 78.2217 40.7303 78.2217 41.6287C78.2217 42.5272 78.9501 43.2555 79.8485 43.2555Z" fill="black"/>
<path d="M74.9271 43.2555C75.8255 43.2555 76.5539 42.5272 76.5539 41.6287C76.5539 40.7303 75.8255 40.002 74.9271 40.002C74.0287 40.002 73.3003 40.7303 73.3003 41.6287C73.3003 42.5272 74.0287 43.2555 74.9271 43.2555Z" fill="black"/>
<path d="M70.0061 43.2555C70.9045 43.2555 71.6328 42.5272 71.6328 41.6287C71.6328 40.7303 70.9045 40.002 70.0061 40.002C69.1076 40.002 68.3793 40.7303 68.3793 41.6287C68.3793 42.5272 69.1076 43.2555 70.0061 43.2555Z" fill="black"/>
</g>
<defs>
<clipPath id="clip0">
<rect width="129" height="130" fill="white"/>
</clipPath>
</defs>
</svg>
