<svg width="134" height="141" viewBox="0 0 134 141" fill="none" xmlns="http://www.w3.org/2000/svg">
<path opacity="0.1" d="M131.964 90.5916V82.0505C131.964 81.2308 131.3 80.5661 130.48 80.5661H124.555C124.074 78.8059 123.376 77.1363 122.492 75.5851L126.681 71.3954C127.261 70.8156 127.261 69.8759 126.681 69.2964L120.641 63.2571C120.062 62.6776 119.122 62.6773 118.542 63.2568L114.352 67.4454C112.801 66.5619 111.132 65.8643 109.371 65.3824V59.458C109.371 58.6383 108.707 57.9736 107.887 57.9736H99.346C98.5263 57.9736 97.8616 58.6383 97.8616 59.458V65.3824C96.1014 65.864 94.4318 66.5616 92.8806 67.4454L88.6905 63.2568C88.1107 62.6773 87.1711 62.6773 86.5916 63.2571L80.5523 69.2964C79.9728 69.8759 79.9725 70.8159 80.552 71.3954L84.7406 75.5851C83.8571 77.1363 83.1594 78.8062 82.6776 80.5661H76.7532C75.9332 80.5661 75.2688 81.2308 75.2688 82.0505V90.5916C75.2688 91.4113 75.9332 92.076 76.7532 92.076H82.6776C83.1591 93.8361 83.8568 95.5058 84.7406 97.0569L80.552 101.247C79.9725 101.827 79.9725 102.766 80.5523 103.346L86.5916 109.385C87.1711 109.965 88.111 109.965 88.6905 109.386L92.8806 105.197C94.4318 106.08 96.1017 106.778 97.8616 107.26V113.184C97.8616 114.004 98.5263 114.669 99.346 114.669H107.887C108.707 114.669 109.371 114.004 109.371 113.184V107.26C111.132 106.778 112.801 106.081 114.352 105.197L118.542 109.386C119.122 109.965 120.062 109.965 120.641 109.385L126.681 103.346C127.26 102.766 127.261 101.827 126.681 101.247L122.492 97.0569C123.376 95.5058 124.074 93.8358 124.555 92.076H130.48C131.3 92.076 131.964 91.4113 131.964 90.5916ZM103.617 97.4539C97.4679 97.4539 92.4837 92.4696 92.4837 86.321C92.4837 80.1725 97.4679 75.1882 103.617 75.1882C109.765 75.1882 114.749 80.1725 114.749 86.321C114.749 92.4696 109.765 97.4539 103.617 97.4539Z" fill="#023872"/>
<path opacity="0.1" d="M77.9302 121.965V116.027C77.9302 115.207 77.2658 114.543 76.4458 114.543H72.1969C71.8244 113.18 71.2844 111.888 70.6006 110.688L73.6047 107.683C74.1842 107.103 74.1842 106.164 73.6044 105.584L69.4054 101.385C68.8259 100.806 67.886 100.806 67.3065 101.385L64.3016 104.389C63.1013 103.705 61.809 103.165 60.4469 102.793V98.5439C60.4469 97.7243 59.7822 97.0596 58.9626 97.0596H53.0245C52.2048 97.0596 51.5401 97.7243 51.5401 98.5439V102.793C50.178 103.165 48.886 103.705 47.6855 104.389L44.6805 101.385C44.1007 100.806 43.1611 100.806 42.5816 101.385L38.3829 105.584C37.8034 106.164 37.8031 107.103 38.3826 107.683L41.3867 110.688C40.703 111.888 40.163 113.18 39.7904 114.543H35.5415C34.7215 114.543 34.0571 115.207 34.0571 116.027V121.965C34.0571 122.785 34.7215 123.449 35.5415 123.449H39.7904C40.163 124.811 40.703 126.103 41.3867 127.304L38.3826 130.309C37.8031 130.889 37.8031 131.828 38.3829 132.408L42.5816 136.607C43.1611 137.186 44.101 137.186 44.6805 136.607L47.6855 133.603C48.8857 134.287 50.178 134.827 51.5401 135.199V139.448C51.5401 140.268 52.2048 140.932 53.0245 140.932H58.9626C59.7822 140.932 60.4469 140.268 60.4469 139.448V135.199C61.809 134.827 63.101 134.287 64.3016 133.603L67.3065 136.607C67.8863 137.186 68.8259 137.186 69.4054 136.607L73.6044 132.408C74.1839 131.828 74.1842 130.888 73.6047 130.309L70.6006 127.304C71.2844 126.104 71.8244 124.811 72.1969 123.449H76.4458C77.2655 123.449 77.9302 122.785 77.9302 121.965ZM55.9935 127.876C51.0888 127.876 47.1128 123.9 47.1128 118.996C47.1128 114.091 51.0888 110.115 55.9935 110.115C60.8982 110.115 64.8742 114.091 64.8742 118.996C64.8742 123.9 60.8982 127.876 55.9935 127.876Z" fill="#023872"/>
<path opacity="0.1" d="M77.8379 59.2088V46.7891C77.8379 45.9694 77.1735 45.3047 76.3535 45.3047H67.9324C67.2885 42.9514 66.3557 40.7189 65.1741 38.6449L71.128 32.689C71.7075 32.1092 71.7075 31.1696 71.1277 30.5901L62.3455 21.8079C61.766 21.2284 60.8261 21.2281 60.2466 21.8076L54.2907 27.7615C52.2167 26.5802 49.9842 25.6474 47.6309 25.0032V16.582C47.6309 15.7624 46.9662 15.0977 46.1465 15.0977H33.7268C32.9071 15.0977 32.2424 15.7624 32.2424 16.582V25.0032C29.889 25.6471 27.6565 26.5799 25.5826 27.7615L19.627 21.8076C19.0472 21.2281 18.1076 21.2281 17.5278 21.8079L8.74561 30.5901C8.16611 31.1696 8.16582 32.1095 8.74532 32.689L14.6991 38.6449C13.5179 40.7189 12.5851 42.9514 11.9412 45.3047H3.52002C2.70035 45.3047 2.03564 45.9694 2.03564 46.7891V59.2088C2.03564 60.0288 2.70035 60.6932 3.52002 60.6932H11.9415C12.5854 63.0465 13.5182 65.279 14.6994 67.353L8.74561 73.3089C8.16611 73.8887 8.16611 74.8283 8.74591 75.4078L17.5281 84.19C18.1076 84.7695 19.0475 84.7698 19.6273 84.1903L25.5829 78.2364C27.6568 79.4177 29.8893 80.3505 32.2427 80.9944V89.4156C32.2427 90.2355 32.9074 90.8999 33.7271 90.8999H46.1468C46.9665 90.8999 47.6312 90.2355 47.6312 89.4156V80.9944C49.9845 80.3505 52.217 79.4177 54.291 78.2364L60.2469 84.1903C60.8267 84.7698 61.7663 84.7698 62.3458 84.19L71.128 75.4078C71.7075 74.8283 71.7078 73.8884 71.1283 73.3089L65.1744 67.353C66.3557 65.279 67.2885 63.0465 67.9327 60.6932H76.3538C77.1732 60.6932 77.8379 60.0285 77.8379 59.2088ZM39.9368 69.7924C30.6618 69.7924 23.1432 62.2738 23.1432 52.9988C23.1432 43.7238 30.6618 36.2052 39.9368 36.2052C49.2118 36.2052 56.7304 43.7238 56.7304 52.9988C56.7304 62.2738 49.2118 69.7924 39.9368 69.7924Z" fill="#023872"/>
<path d="M131.964 82.5763V74.0352C131.964 73.2155 131.3 72.5508 130.48 72.5508H124.555C124.074 70.7906 123.376 69.121 122.492 67.5698L126.681 63.3797C127.261 62.7999 127.261 61.8603 126.681 61.2808L120.641 55.2415C120.062 54.662 119.122 54.6617 118.542 55.2412L114.352 59.4298C112.801 58.5463 111.132 57.8486 109.371 57.3668V51.4424C109.371 50.6227 108.707 49.958 107.887 49.958H99.346C98.5263 49.958 97.8616 50.6227 97.8616 51.4424V57.3668C96.1014 57.8484 94.4318 58.546 92.8806 59.4298L88.6905 55.2412C88.1107 54.6617 87.1711 54.6617 86.5916 55.2415L80.5523 61.2808C79.9728 61.8603 79.9725 62.8002 80.552 63.3797L84.7406 67.5698C83.8571 69.121 83.1594 70.7909 82.6776 72.5508H76.7532C75.9332 72.5508 75.2688 73.2155 75.2688 74.0352V82.5763C75.2688 83.3959 75.9332 84.0606 76.7532 84.0606H82.6776C83.1591 85.8208 83.8568 87.4904 84.7406 89.0416L80.552 93.2314C79.9725 93.8112 79.9725 94.7508 80.5523 95.3306L86.5916 101.37C87.1711 101.949 88.111 101.95 88.6905 101.37L92.8806 97.1816C94.4318 98.0651 96.1017 98.7628 97.8616 99.2446V105.169C97.8616 105.989 98.5263 106.653 99.346 106.653H107.887C108.707 106.653 109.371 105.989 109.371 105.169V99.2446C111.132 98.7631 112.801 98.0654 114.352 97.1816L118.542 101.37C119.122 101.95 120.062 101.95 120.641 101.37L126.681 95.3306C127.26 94.7511 127.261 93.8112 126.681 93.2314L122.492 89.0416C123.376 87.4904 124.074 85.8205 124.555 84.0606H130.48C131.3 84.0606 131.964 83.3959 131.964 82.5763ZM103.617 89.4385C97.4679 89.4385 92.4837 84.4543 92.4837 78.3057C92.4837 72.1571 97.4679 67.1729 103.617 67.1729C109.765 67.1729 114.749 72.1571 114.749 78.3057C114.749 84.4543 109.765 89.4385 103.617 89.4385Z" fill="white"/>
<path d="M107.887 108.137H99.346C97.709 108.137 96.3772 106.806 96.3772 105.169V100.348C95.2705 99.9847 94.191 99.5376 93.1499 99.011L89.74 102.42C89.1792 102.98 88.434 103.289 87.6411 103.289H87.6408C86.8478 103.289 86.1021 102.98 85.5416 102.419L79.5025 96.3798C78.942 95.8193 78.633 95.0741 78.633 94.2809C78.633 93.4879 78.9417 92.7424 79.5022 92.1819L82.911 88.772C82.3843 87.7309 81.9372 86.6515 81.5741 85.545H76.7532C75.1162 85.545 73.7844 84.2132 73.7844 82.5763V74.0352C73.7844 72.3982 75.1162 71.0664 76.7532 71.0664H81.5741C81.9369 69.9597 82.3843 68.8802 82.911 67.8391L79.5022 64.4292C78.3453 63.2723 78.3453 61.3889 79.5022 60.2311L85.5419 54.1917C86.6994 53.0339 88.5828 53.0345 89.74 54.1911L93.1499 57.6002C94.191 57.0732 95.2705 56.6261 96.3772 56.263V51.4424C96.3772 49.8054 97.709 48.4736 99.346 48.4736H107.887C109.524 48.4736 110.856 49.8054 110.856 51.4424V56.263C111.963 56.6261 113.042 57.0732 114.083 57.6002L117.493 54.1911C118.651 53.0342 120.534 53.0345 121.691 54.1917L127.73 60.2311C128.888 61.3886 128.888 63.272 127.73 64.4292L124.322 67.8391C124.848 68.8802 125.296 69.9597 125.659 71.0664H130.48C132.117 71.0664 133.448 72.3982 133.448 74.0352V82.5763C133.448 84.2132 132.117 85.545 130.48 85.545H125.659C125.296 86.6521 124.848 87.7309 124.322 88.772L127.73 92.1819C128.291 92.7427 128.6 93.4879 128.6 94.2809C128.6 95.0741 128.291 95.8195 127.73 96.3801L121.691 102.419C121.13 102.98 120.385 103.289 119.592 103.289C118.799 103.289 118.054 102.98 117.493 102.42L114.083 99.011C113.042 99.5376 111.963 99.9847 110.856 100.348V105.169C110.856 106.806 109.524 108.137 107.887 108.137ZM92.8809 95.6972C93.1324 95.6972 93.3853 95.7611 93.6154 95.8917C95.0763 96.7241 96.6367 97.3701 98.2532 97.8128C98.8983 97.9891 99.346 98.5754 99.346 99.2443V105.169H107.887V99.2443C107.887 98.5754 108.334 97.9888 108.98 97.8125C110.597 97.3704 112.157 96.7241 113.618 95.8917C114.199 95.5616 114.929 95.6589 115.402 96.1319L119.592 100.32L125.631 94.2809L121.443 90.0908C120.97 89.6178 120.872 88.8872 121.203 88.3062C122.035 86.8456 122.681 85.2852 123.124 83.6685C123.301 83.0233 123.887 82.576 124.556 82.576H130.48V74.0349H124.556C123.887 74.0349 123.301 73.5875 123.124 72.9421C122.682 71.3259 122.035 69.7652 121.203 68.3037C120.872 67.7227 120.97 66.9924 121.443 66.5195L125.632 62.3297L119.592 56.2904L115.402 60.479C114.93 60.9516 114.199 61.0493 113.618 60.7191C112.157 59.8864 110.596 59.2404 108.98 58.7981C108.335 58.6214 107.888 58.0351 107.888 57.3662V51.4421H99.3466V57.3662C99.3466 58.0351 98.8992 58.6217 98.2538 58.7978C96.6379 59.2401 95.0772 59.8864 93.616 60.7191C93.035 61.0499 92.3044 60.9516 91.8318 60.479L87.642 56.2904L81.6026 62.3297L85.7909 66.5195C86.2636 66.9924 86.3618 67.7227 86.0311 68.3037C85.1987 69.7652 84.5524 71.3259 84.11 72.9421C83.9334 73.5875 83.3474 74.0349 82.6782 74.0349H76.7538V82.576H82.6782C83.3471 82.576 83.9334 83.0233 84.11 83.6685C84.5524 85.2849 85.199 86.8456 86.0311 88.3065C86.3618 88.8872 86.2639 89.6178 85.7909 90.0908L81.6026 94.2809L87.642 100.32L91.8318 96.1319C92.1171 95.8463 92.4968 95.6972 92.8809 95.6972ZM103.617 90.9229C96.6592 90.9229 90.9993 85.263 90.9993 78.3057C90.9993 71.3484 96.6592 65.6885 103.617 65.6885C110.574 65.6885 116.234 71.3484 116.234 78.3057C116.234 79.5826 116.043 80.8431 115.668 82.0526C115.424 82.8354 114.593 83.2739 113.81 83.0299C113.027 82.7867 112.589 81.9549 112.832 81.1717C113.119 80.2482 113.265 79.2836 113.265 78.3057C113.265 72.9854 108.937 68.6573 103.617 68.6573C98.2965 68.6573 93.9681 72.9854 93.9681 78.3057C93.9681 83.626 98.2965 87.9541 103.617 87.9541C104.676 87.9541 105.723 87.7805 106.728 87.4385C107.503 87.1734 108.347 87.5887 108.611 88.3647C108.876 89.1408 108.461 89.9842 107.685 90.2487C106.371 90.6958 105.002 90.9229 103.617 90.9229Z" fill="#023872"/>
<path d="M77.9302 113.949V108.011C77.9302 107.192 77.2658 106.527 76.4458 106.527H72.1969C71.8244 105.165 71.2844 103.873 70.6006 102.672L73.6047 99.6673C74.1842 99.0875 74.1842 98.1479 73.6044 97.5684L69.4054 93.3697C68.8259 92.7902 67.886 92.7899 67.3065 93.3694L64.3016 96.3735C63.1013 95.6898 61.809 95.1498 60.4469 94.7772V90.5283C60.4469 89.7086 59.7822 89.0439 58.9626 89.0439H53.0245C52.2048 89.0439 51.5401 89.7086 51.5401 90.5283V94.7772C50.178 95.1498 48.886 95.6898 47.6855 96.3735L44.6805 93.3694C44.1007 92.7899 43.1611 92.7899 42.5816 93.3697L38.3829 97.5684C37.8034 98.1479 37.8031 99.0878 38.3826 99.6673L41.3867 102.672C40.703 103.873 40.163 105.165 39.7904 106.527H35.5415C34.7215 106.527 34.0571 107.192 34.0571 108.011V113.949C34.0571 114.769 34.7215 115.434 35.5415 115.434H39.7904C40.163 116.796 40.703 118.088 41.3867 119.288L38.3826 122.293C37.8031 122.873 37.8031 123.813 38.3829 124.392L42.5816 128.591C43.1611 129.17 44.101 129.171 44.6805 128.591L47.6855 125.587C48.8857 126.271 50.178 126.811 51.5401 127.183V131.432C51.5401 132.252 52.2048 132.917 53.0245 132.917H58.9626C59.7822 132.917 60.4469 132.252 60.4469 131.432V127.183C61.809 126.811 63.101 126.271 64.3016 125.587L67.3065 128.591C67.8863 129.171 68.8259 129.171 69.4054 128.591L73.6044 124.392C74.1839 123.813 74.1842 122.873 73.6047 122.293L70.6006 119.288C71.2844 118.088 71.8244 116.796 72.1969 115.434H76.4458C77.2655 115.433 77.9302 114.769 77.9302 113.949ZM55.9935 119.861C51.0888 119.861 47.1128 115.885 47.1128 110.98C47.1128 106.075 51.0888 102.099 55.9935 102.099C60.8982 102.099 64.8742 106.075 64.8742 110.98C64.8742 115.885 60.8982 119.861 55.9935 119.861Z" fill="white"/>
<path d="M58.9626 134.401H53.0245C51.3876 134.401 50.0558 133.069 50.0558 131.432V128.279C49.3406 128.033 48.6406 127.743 47.9607 127.411L45.73 129.641C44.5728 130.798 42.6894 130.798 41.5319 129.64L37.3329 125.441C36.176 124.284 36.1757 122.401 37.3323 121.243L39.5624 119.012C39.2296 118.332 38.9399 117.633 38.6947 116.917H35.5413C33.9043 116.917 32.5725 115.585 32.5725 113.948V108.011C32.5725 106.374 33.9043 105.042 35.5413 105.042H38.6947C38.9399 104.327 39.2296 103.627 39.5624 102.947L37.3323 100.716C36.1751 99.5583 36.1754 97.6752 37.3329 96.5177L41.5316 92.319C42.6888 91.1618 44.5722 91.1615 45.7297 92.3187L47.9604 94.5485C48.6409 94.2157 49.3403 93.9257 50.0555 93.6807V90.5273C50.0555 88.8904 51.3873 87.5586 53.0242 87.5586H58.9623C60.5993 87.5586 61.9311 88.8904 61.9311 90.5273V93.6807C62.6459 93.9257 63.3457 94.2157 64.0261 94.5485L66.2568 92.3187C67.4141 91.1615 69.2974 91.1615 70.4549 92.3187L74.6539 96.518C75.8115 97.6749 75.8115 99.5583 74.6542 100.716L72.4241 102.947C72.7569 103.627 73.047 104.327 73.2919 105.042H76.4456C78.0826 105.042 79.4143 106.374 79.4143 108.011V113.949C79.4143 115.586 78.0826 116.917 76.4456 116.917H73.2919C73.0467 117.633 72.7569 118.333 72.4241 119.013L74.6539 121.243C75.8109 122.401 75.8106 124.284 74.6536 125.442L70.4549 129.641C69.2971 130.798 67.4141 130.798 66.2565 129.641L64.0258 127.411C63.346 127.744 62.6459 128.034 61.9308 128.279V131.432C61.9314 133.069 60.5996 134.401 58.9626 134.401ZM47.6861 124.102C47.9376 124.102 48.1905 124.166 48.4203 124.297C49.5264 124.927 50.708 125.416 51.932 125.752C52.5771 125.928 53.0245 126.514 53.0245 127.183V131.432H58.9626V127.183C58.9626 126.514 59.41 125.928 60.0551 125.752C61.2794 125.416 62.461 124.927 63.5669 124.297C64.1478 123.967 64.8782 124.064 65.3508 124.537L68.3557 127.541L72.5544 123.342L69.5507 120.337C69.078 119.864 68.9798 119.133 69.3108 118.553C69.9408 117.446 70.4303 116.265 70.7649 115.041C70.9415 114.396 71.5276 113.948 72.1967 113.948H76.4456V108.011H72.1967C71.5276 108.011 70.9415 107.564 70.7649 106.918C70.43 105.694 69.9408 104.513 69.3105 103.406C68.9798 102.825 69.078 102.095 69.5507 101.622L72.5547 98.6172L68.3557 94.4185L65.3505 97.4226C64.8778 97.8952 64.1475 97.9935 63.5666 97.6627C62.4595 97.0322 61.2782 96.5429 60.0551 96.2086C59.41 96.032 58.9623 95.4457 58.9623 94.7768V90.5282H53.0242V94.7768C53.0242 95.4457 52.5768 96.0323 51.9314 96.2086C50.7083 96.5429 49.527 97.0322 48.42 97.6627C47.8393 97.9935 47.1087 97.8958 46.6361 97.4226L43.6311 94.4188L39.4321 98.6172L42.4359 101.622C42.9085 102.095 43.0068 102.825 42.6761 103.406C42.0458 104.513 41.5565 105.694 41.2217 106.918C41.045 107.564 40.459 108.011 39.7898 108.011H35.541V113.949H39.7898C40.4587 113.949 41.045 114.396 41.2217 115.042C41.5565 116.266 42.0458 117.447 42.6758 118.553C43.0068 119.134 42.9085 119.864 42.4359 120.337L39.4318 123.342L43.6308 127.541L46.6358 124.537C46.9223 124.251 47.302 124.102 47.6861 124.102ZM55.9936 121.345C50.2781 121.345 45.6285 116.695 45.6285 110.98C45.6285 105.265 50.2781 100.615 55.9936 100.615C61.7087 100.615 66.3584 105.265 66.3584 110.98C66.3587 116.695 61.709 121.345 55.9936 121.345ZM55.9936 103.584C51.9154 103.584 48.5972 106.901 48.5972 110.98C48.5972 115.058 51.9151 118.376 55.9936 118.376C60.0717 118.376 63.3896 115.058 63.3896 110.98C63.3896 106.901 60.072 103.584 55.9936 103.584Z" fill="#023872"/>
<path d="M77.8379 51.1932V38.7734C77.8379 37.9538 77.1735 37.2891 76.3535 37.2891H67.9324C67.2885 34.9357 66.3557 32.7032 65.1741 30.6293L71.128 24.6734C71.7075 24.0936 71.7075 23.154 71.1277 22.5745L62.3455 13.7923C61.766 13.2128 60.8261 13.2125 60.2466 13.792L54.2907 19.7458C52.2167 18.5646 49.9842 17.6318 47.6309 16.9876V8.56641C47.6309 7.74673 46.9662 7.08203 46.1465 7.08203H33.7268C32.9071 7.08203 32.2424 7.74673 32.2424 8.56641V16.9876C29.889 17.6315 27.6565 18.5643 25.5826 19.7458L19.627 13.792C19.0472 13.2125 18.1076 13.2125 17.5278 13.7923L8.74591 22.5742C8.16641 23.1537 8.16611 24.0936 8.74561 24.6734L14.6994 30.6293C13.5182 32.7032 12.5854 34.9357 11.9415 37.2891H3.52002C2.70035 37.2891 2.03564 37.9538 2.03564 38.7734V51.1932C2.03564 52.0132 2.70035 52.6776 3.52002 52.6776H11.9415C12.5854 55.0309 13.5182 57.2634 14.6994 59.3374L8.74561 65.293C8.16611 65.8728 8.16611 66.8124 8.74591 67.3922L17.5281 76.1744C18.1076 76.7539 19.0475 76.7542 19.6273 76.1747L25.5829 70.2208C27.6568 71.4021 29.8893 72.3349 32.2427 72.9788V81.4C32.2427 82.2199 32.9074 82.8843 33.7271 82.8843H46.1468C46.9665 82.8843 47.6312 82.2199 47.6312 81.4V72.9788C49.9845 72.3349 52.217 71.4021 54.291 70.2208L60.2469 76.1747C60.8267 76.7542 61.7663 76.7542 62.3458 76.1744L71.128 67.3922C71.7075 66.8127 71.7078 65.8728 71.1283 65.293L65.1744 59.3374C66.3557 57.2634 67.2885 55.0309 67.9327 52.6776H76.3538C77.1732 52.6776 77.8379 52.0129 77.8379 51.1932ZM39.9368 61.7768C30.6618 61.7768 23.1432 54.2582 23.1432 44.9832C23.1432 35.7082 30.6618 28.1896 39.9368 28.1896C49.2118 28.1896 56.7304 35.7082 56.7304 44.9832C56.7304 54.2582 49.2118 61.7768 39.9368 61.7768Z" fill="white"/>
<path d="M46.1468 84.3684H33.7271C32.0901 84.3684 30.7583 83.0366 30.7583 81.3996V74.0888C29.0673 73.5568 27.4229 72.8755 25.8477 72.0546L20.6767 77.2238C19.5192 78.381 17.6355 78.381 16.4783 77.2232L7.69616 68.4413C6.53894 67.2847 6.53864 65.4013 7.69586 64.2435L12.8651 59.0729C12.0442 57.497 11.3629 55.8523 10.8309 54.1616H3.52002C1.88305 54.1616 0.55127 52.8299 0.55127 51.1929V38.7731C0.55127 37.1362 1.88305 35.8044 3.52002 35.8044H10.8306C11.3626 34.1134 12.0439 32.469 12.8648 30.8935L7.69557 25.7225C6.53864 24.5656 6.53864 22.6822 7.69557 21.5244L16.4777 12.7425C17.6352 11.5856 19.5186 11.5853 20.6761 12.742L25.8471 17.9111C27.4223 17.0903 29.0667 16.409 30.7577 15.877V8.56641C30.7577 6.92944 32.0895 5.59766 33.7265 5.59766H46.1462C47.7832 5.59766 49.115 6.92944 49.115 8.56641V15.8772C50.806 16.4092 52.4504 17.0906 54.0259 17.9111L59.1965 12.7422C60.3544 11.5853 62.2377 11.5856 63.3947 12.7428L72.1768 21.5247C73.334 22.6825 73.334 24.5656 72.1768 25.7228L67.0079 30.8938C67.8288 32.4693 68.5101 34.1137 69.0421 35.8047H76.3527C77.9896 35.8047 79.3214 37.1365 79.3214 38.7734V51.1932C79.3214 52.8302 77.9896 54.1619 76.3527 54.1619H69.0421C68.5101 55.8526 67.8288 57.4973 67.0079 59.0731L72.1771 64.2435C73.334 65.401 73.334 67.2844 72.1768 68.4416L63.3947 77.2238C62.8342 77.7846 62.0887 78.0936 61.2957 78.0936C60.5028 78.0936 59.7573 77.7852 59.1965 77.2244L54.0259 72.0552C52.4507 72.8761 50.8063 73.5574 49.115 74.0894V81.4002C49.1156 83.0366 47.7838 84.3684 46.1468 84.3684ZM25.5832 68.7361C25.8346 68.7361 26.0876 68.8 26.3176 68.9306C28.3073 70.0641 30.4323 70.944 32.6343 71.547C33.2794 71.7233 33.7268 72.3096 33.7268 72.9785V81.3996H46.1465V72.9785C46.1465 72.3096 46.5939 71.723 47.239 71.547C49.4409 70.9443 51.5663 70.0644 53.5556 68.9306C54.1369 68.6005 54.8669 68.6981 55.3398 69.1708L61.2955 75.1246L70.0776 66.3424L64.1238 60.3868C63.6512 59.9139 63.5529 59.1836 63.8836 58.6026C65.0171 56.6127 65.8973 54.4873 66.4997 52.2857C66.6763 51.6403 67.2623 51.1929 67.9315 51.1929H76.3527V38.7731H67.9315C67.2626 38.7731 66.6763 38.3257 66.4997 37.6803C65.8973 35.4787 65.0171 33.3534 63.8836 31.3637C63.5526 30.783 63.6509 30.0524 64.1235 29.5795L70.0773 23.6236L61.2952 14.8417L55.3396 20.7956C54.8663 21.2679 54.1363 21.3659 53.5553 21.0357C51.5657 19.9023 49.4406 19.0223 47.2387 18.4197C46.5936 18.2433 46.1462 17.657 46.1462 16.9882V8.56641H33.7265V16.9876C33.7265 17.6564 33.2791 18.2427 32.634 18.4191C30.432 19.0217 28.3067 19.9017 26.3173 21.0352C25.7367 21.3659 25.0061 21.2682 24.5331 20.795L18.5775 14.8417L9.79566 23.6236L15.7495 29.5795C16.2221 30.0524 16.3204 30.783 15.9894 31.3637C14.8559 33.3534 13.9757 35.4787 13.3733 37.6803C13.1967 38.3257 12.6106 38.7731 11.9415 38.7731H3.52002V51.1929H11.9415C12.6103 51.1929 13.1967 51.6403 13.3733 52.2857C13.9757 54.4873 14.8559 56.6127 15.9894 58.6026C16.3201 59.1836 16.2221 59.9139 15.7492 60.3868L9.79536 66.3424L18.5775 75.1246L24.5334 69.1708C24.8193 68.8852 25.199 68.7361 25.5832 68.7361ZM39.9368 63.2612C36.8707 63.2612 33.8357 62.4854 31.16 61.0177C30.4412 60.6234 30.1779 59.7212 30.5725 59.0025C30.967 58.2838 31.8692 58.0201 32.5876 58.415C34.8273 59.6435 37.3685 60.2924 39.9371 60.2924C48.3787 60.2924 55.2463 53.4245 55.2463 44.9832C55.2463 36.5415 48.3787 29.6742 39.9371 29.6742C31.4957 29.6742 24.6281 36.5418 24.6281 44.9832C24.6281 47.3635 25.1619 49.6474 26.2149 51.7712C26.5789 52.5057 26.2788 53.3963 25.5443 53.7603C24.8092 54.1239 23.9192 53.8241 23.5549 53.0896C22.2971 50.5522 21.6594 47.8249 21.6594 44.9829C21.6594 34.9046 29.8588 26.7052 39.9371 26.7052C50.0157 26.7052 58.2151 34.9046 58.2151 44.9829C58.2148 55.0618 50.0154 63.2612 39.9368 63.2612Z" fill="#023872"/>
<path d="M103.617 25.2615C101.452 25.2615 99.6904 23.5002 99.6904 21.3354C99.6904 19.1705 101.452 17.4092 103.617 17.4092C105.782 17.4092 107.543 19.1705 107.543 21.3354C107.543 23.5002 105.781 25.2615 103.617 25.2615ZM103.617 20.3782C103.089 20.3782 102.659 20.8075 102.659 21.3356C102.659 21.8635 103.089 22.2931 103.617 22.2931C104.144 22.2931 104.574 21.8638 104.574 21.3356C104.574 20.8075 104.144 20.3782 103.617 20.3782Z" fill="#023872"/>
<path d="M103.617 135.702C101.452 135.702 99.6904 133.941 99.6904 131.776C99.6904 129.611 101.452 127.85 103.617 127.85C105.782 127.85 107.543 129.611 107.543 131.776C107.543 133.941 105.781 135.702 103.617 135.702ZM103.617 130.818C103.089 130.818 102.659 131.248 102.659 131.776C102.659 132.304 103.089 132.733 103.617 132.733C104.144 132.733 104.574 132.304 104.574 131.776C104.574 131.248 104.144 130.818 103.617 130.818Z" fill="#023872"/>
<path d="M55.9935 8.56651C53.8287 8.56651 52.0673 6.80515 52.0673 4.64034C52.0673 2.47523 53.8287 0.713867 55.9935 0.713867C58.1583 0.713867 59.9197 2.47523 59.9197 4.64034C59.9197 6.80544 58.1583 8.56651 55.9935 8.56651ZM55.9935 3.68291C55.4656 3.68291 55.0361 4.11249 55.0361 4.64063C55.0361 5.16848 55.4656 5.59805 55.9935 5.59805C56.5213 5.59805 56.9509 5.16877 56.9509 4.64063C56.9509 4.11249 56.5213 3.68291 55.9935 3.68291Z" fill="#023872"/>
<path d="M88.697 36.4516C88.317 36.4516 87.9373 36.3068 87.6473 36.0167L84.295 32.6644C83.7152 32.0849 83.7152 31.145 84.295 30.5655L87.6473 27.2132C88.2271 26.6334 89.1667 26.6334 89.7465 27.2132L93.0988 30.5655C93.3773 30.844 93.5334 31.2213 93.5334 31.6149C93.5334 32.0086 93.377 32.3862 93.0988 32.6644L89.7465 36.0167C89.4567 36.3068 89.0767 36.4516 88.697 36.4516ZM87.4439 31.6149L88.697 32.868L89.9501 31.6149L88.697 30.3618L87.4439 31.6149Z" fill="#023872"/>
<path d="M8.42883 97.9741C8.03517 97.9741 7.65755 97.8176 7.37908 97.5392L4.02677 94.1868C3.44697 93.6073 3.44697 92.6674 4.02677 92.0879L7.37908 88.7356C7.95888 88.1558 8.89848 88.1558 9.47828 88.7356L12.8306 92.0879C13.1091 92.3664 13.2652 92.7437 13.2652 93.1374C13.2652 93.531 13.1088 93.9087 12.8306 94.1868L9.47828 97.5395C9.20011 97.8176 8.82248 97.9741 8.42883 97.9741ZM7.17542 93.1374L8.42853 94.3908L9.68164 93.1374L8.42853 91.8843L7.17542 93.1374Z" fill="#023872"/>
</svg>
