<svg width="134" height="141" viewBox="0 0 134 141" fill="none" xmlns="http://www.w3.org/2000/svg">
<path opacity="0.1" d="M131.964 90.5906V82.0495C131.964 81.2298 131.3 80.5651 130.48 80.5651H124.555C124.074 78.805 123.376 77.1353 122.492 75.5842L126.681 71.3944C127.261 70.8146 127.261 69.875 126.681 69.2955L120.641 63.2561C120.062 62.6766 119.122 62.6763 118.543 63.2558L114.352 67.4445C112.801 66.561 111.132 65.8633 109.372 65.3815V59.457C109.372 58.6374 108.707 57.9727 107.887 57.9727H99.346C98.5264 57.9727 97.8617 58.6374 97.8617 59.457V65.3815C96.1015 65.863 94.4319 66.5607 92.8807 67.4445L88.6906 63.2558C88.1108 62.6763 87.1712 62.6763 86.5917 63.2561L80.5524 69.2955C79.9729 69.875 79.9726 70.8149 80.5521 71.3944L84.7407 75.5842C83.8572 77.1353 83.1595 78.8053 82.6777 80.5651H76.7533C75.9333 80.5651 75.2689 81.2298 75.2689 82.0495V90.5906C75.2689 91.4103 75.9333 92.075 76.7533 92.075H82.6777C83.1592 93.8352 83.8569 95.5048 84.7407 97.056L80.5521 101.246C79.9726 101.826 79.9726 102.765 80.5524 103.345L86.5917 109.384C87.1712 109.964 88.1111 109.964 88.6906 109.385L92.8807 105.196C94.4319 106.079 96.1018 106.777 97.8617 107.259V113.183C97.8617 114.003 98.5264 114.668 99.346 114.668H107.887C108.707 114.668 109.372 114.003 109.372 113.183V107.259C111.132 106.777 112.801 106.08 114.352 105.196L118.543 109.385C119.122 109.964 120.062 109.964 120.641 109.384L126.681 103.345C127.26 102.765 127.261 101.826 126.681 101.246L122.492 97.056C123.376 95.5048 124.074 93.8349 124.555 92.075H130.48C131.3 92.075 131.964 91.4103 131.964 90.5906ZM103.617 97.4529C97.468 97.4529 92.4838 92.4686 92.4838 86.3201C92.4838 80.1715 97.468 75.1873 103.617 75.1873C109.765 75.1873 114.749 80.1715 114.749 86.3201C114.749 92.4686 109.765 97.4529 103.617 97.4529Z" fill="black"/>
<path opacity="0.1" d="M77.9303 121.964V116.026C77.9303 115.206 77.2659 114.542 76.4459 114.542H72.197C71.8245 113.179 71.2844 111.887 70.6007 110.687L73.6048 107.682C74.1843 107.102 74.1843 106.163 73.6045 105.583L69.4055 101.384C68.826 100.805 67.8861 100.805 67.3066 101.384L64.3016 104.388C63.1014 103.704 61.8091 103.164 60.447 102.792V98.543C60.447 97.7233 59.7823 97.0586 58.9627 97.0586H53.0246C52.2049 97.0586 51.5402 97.7233 51.5402 98.543V102.792C50.1781 103.164 48.8861 103.704 47.6856 104.388L44.6806 101.384C44.1008 100.805 43.1612 100.805 42.5817 101.384L38.383 105.583C37.8035 106.163 37.8032 107.102 38.3827 107.682L41.3868 110.687C40.7031 111.887 40.163 113.179 39.7905 114.542H35.5416C34.7216 114.542 34.0572 115.206 34.0572 116.026V121.964C34.0572 122.784 34.7216 123.448 35.5416 123.448H39.7905C40.163 124.81 40.7031 126.102 41.3868 127.303L38.3827 130.308C37.8032 130.888 37.8032 131.827 38.383 132.407L42.5817 136.606C43.1612 137.185 44.1011 137.185 44.6806 136.606L47.6856 133.602C48.8858 134.286 50.1781 134.826 51.5402 135.198V139.447C51.5402 140.267 52.2049 140.931 53.0246 140.931H58.9627C59.7823 140.931 60.447 140.267 60.447 139.447V135.198C61.8091 134.826 63.1011 134.286 64.3016 133.602L67.3066 136.606C67.8864 137.185 68.826 137.185 69.4055 136.606L73.6045 132.407C74.184 131.827 74.1843 130.887 73.6048 130.308L70.6007 127.303C71.2844 126.103 71.8245 124.81 72.197 123.448H76.4459C77.2656 123.448 77.9303 122.784 77.9303 121.964ZM55.9936 127.875C51.0889 127.875 47.1129 123.899 47.1129 118.995C47.1129 114.09 51.0889 110.114 55.9936 110.114C60.8983 110.114 64.8743 114.09 64.8743 118.995C64.8743 123.899 60.8983 127.875 55.9936 127.875Z" fill="black"/>
<path opacity="0.1" d="M77.838 59.2079V46.7881C77.838 45.9684 77.1736 45.3037 76.3536 45.3037H67.9324C67.2885 42.9504 66.3558 40.7179 65.1742 38.6439L71.128 32.688C71.7075 32.1082 71.7075 31.1686 71.1277 30.5891L62.3456 21.8069C61.7661 21.2274 60.8262 21.2271 60.2467 21.8066L54.2908 27.7605C52.2168 26.5792 49.9843 25.6464 47.631 25.0022V16.5811C47.631 15.7614 46.9663 15.0967 46.1466 15.0967H33.7268C32.9071 15.0967 32.2424 15.7614 32.2424 16.5811V25.0022C29.8891 25.6461 27.6566 26.5789 25.5826 27.7605L19.627 21.8066C19.0472 21.2271 18.1076 21.2271 17.5278 21.8069L8.74567 30.5891C8.16617 31.1686 8.16588 32.1085 8.74538 32.688L14.6992 38.6439C13.5179 40.7179 12.5852 42.9504 11.9412 45.3037H3.52008C2.70041 45.3037 2.03571 45.9684 2.03571 46.7881V59.2079C2.03571 60.0278 2.70041 60.6922 3.52008 60.6922H11.9415C12.5855 63.0456 13.5182 65.2781 14.6995 67.352L8.74567 73.3079C8.16617 73.8877 8.16617 74.8273 8.74597 75.4068L17.5281 84.189C18.1076 84.7685 19.0475 84.7688 19.6273 84.1893L25.5829 78.2355C27.6569 79.4167 29.8894 80.3495 32.2427 80.9934V89.4146C32.2427 90.2346 32.9074 90.899 33.7271 90.899H46.1469C46.9665 90.899 47.6312 90.2346 47.6312 89.4146V80.9934C49.9846 80.3495 52.2171 79.4167 54.291 78.2355L60.247 84.1893C60.8268 84.7688 61.7664 84.7688 62.3459 84.189L71.128 75.4068C71.7075 74.8273 71.7078 73.8874 71.1283 73.3079L65.1745 67.352C66.3558 65.2781 67.2885 63.0456 67.9328 60.6922H76.3539C77.1733 60.6922 77.838 60.0275 77.838 59.2079ZM39.9368 69.7914C30.6619 69.7914 23.1432 62.2728 23.1432 52.9978C23.1432 43.7229 30.6619 36.2042 39.9368 36.2042C49.2118 36.2042 56.7305 43.7229 56.7305 52.9978C56.7305 62.2728 49.2118 69.7914 39.9368 69.7914Z" fill="black"/>
<path d="M131.964 82.5753V74.0342C131.964 73.2145 131.3 72.5498 130.48 72.5498H124.555C124.074 70.7896 123.376 69.12 122.492 67.5688L126.681 63.3787C127.261 62.799 127.261 61.8593 126.681 61.2798L120.641 55.2405C120.062 54.661 119.122 54.6607 118.543 55.2402L114.352 59.4288C112.801 58.5453 111.132 57.8477 109.372 57.3658V51.4414C109.372 50.6217 108.707 49.957 107.887 49.957H99.346C98.5264 49.957 97.8617 50.6217 97.8617 51.4414V57.3658C96.1015 57.8474 94.4319 58.545 92.8807 59.4288L88.6906 55.2402C88.1108 54.6607 87.1712 54.6607 86.5917 55.2405L80.5524 61.2798C79.9729 61.8593 79.9726 62.7992 80.5521 63.3787L84.7407 67.5688C83.8572 69.12 83.1595 70.7899 82.6777 72.5498H76.7533C75.9333 72.5498 75.2689 73.2145 75.2689 74.0342V82.5753C75.2689 83.3949 75.9333 84.0597 76.7533 84.0597H82.6777C83.1592 85.8198 83.8569 87.4894 84.7407 89.0406L80.5521 93.2304C79.9726 93.8102 79.9726 94.7498 80.5524 95.3296L86.5917 101.369C87.1712 101.948 88.1111 101.949 88.6906 101.369L92.8807 97.1806C94.4319 98.0641 96.1018 98.7618 97.8617 99.2436V105.168C97.8617 105.988 98.5264 106.652 99.346 106.652H107.887C108.707 106.652 109.372 105.988 109.372 105.168V99.2436C111.132 98.7621 112.801 98.0644 114.352 97.1806L118.543 101.369C119.122 101.949 120.062 101.949 120.641 101.369L126.681 95.3296C127.26 94.7501 127.261 93.8102 126.681 93.2304L122.492 89.0406C123.376 87.4894 124.074 85.8195 124.555 84.0597H130.48C131.3 84.0597 131.964 83.3949 131.964 82.5753ZM103.617 89.4375C97.468 89.4375 92.4838 84.4533 92.4838 78.3047C92.4838 72.1561 97.468 67.1719 103.617 67.1719C109.765 67.1719 114.749 72.1561 114.749 78.3047C114.749 84.4533 109.765 89.4375 103.617 89.4375Z" fill="white"/>
<path d="M107.887 108.137H99.346C97.7091 108.137 96.3773 106.805 96.3773 105.168V100.347C95.2705 99.9837 94.1911 99.5366 93.15 99.01L89.74 102.419C89.1793 102.979 88.4341 103.288 87.6411 103.288H87.6409C86.8479 103.288 86.1021 102.979 85.5416 102.418L79.5026 96.3788C78.9421 95.8183 78.6331 95.0731 78.6331 94.2799C78.6331 93.4869 78.9418 92.7415 79.5023 92.181L82.911 88.7711C82.3844 87.7299 81.9373 86.6505 81.5742 85.544H76.7533C75.1163 85.544 73.7845 84.2123 73.7845 82.5753V74.0342C73.7845 72.3972 75.1163 71.0654 76.7533 71.0654H81.5742C81.937 69.9587 82.3844 68.8793 82.911 67.8381L79.5023 64.4282C78.3454 63.2713 78.3454 61.3879 79.5023 60.2301L85.5419 54.1908C86.6995 53.033 88.5828 53.0335 89.74 54.1902L93.15 57.5992C94.1911 57.0722 95.2705 56.6251 96.3773 56.2621V51.4414C96.3773 49.8044 97.7091 48.4727 99.346 48.4727H107.887C109.524 48.4727 110.856 49.8044 110.856 51.4414V56.2621C111.963 56.6251 113.042 57.0722 114.083 57.5992L117.493 54.1902C118.651 53.0333 120.534 53.0335 121.691 54.1908L127.731 60.2301C128.888 61.3876 128.888 63.271 127.731 64.4282L124.322 67.8381C124.848 68.8793 125.296 69.9587 125.659 71.0654H130.48C132.117 71.0654 133.448 72.3972 133.448 74.0342V82.5753C133.448 84.2123 132.117 85.544 130.48 85.544H125.659C125.296 86.6511 124.848 87.7299 124.322 88.7711L127.731 92.181C128.291 92.7418 128.6 93.4869 128.6 94.2799C128.6 95.0731 128.291 95.8186 127.73 96.3791L121.691 102.418C121.13 102.979 120.385 103.288 119.592 103.288C118.799 103.288 118.054 102.979 117.493 102.419L114.083 99.01C113.042 99.5366 111.963 99.9837 110.856 100.347V105.168C110.856 106.805 109.524 108.137 107.887 108.137ZM92.881 95.6963C93.1324 95.6963 93.3854 95.7601 93.6155 95.8907C95.0764 96.7232 96.6368 97.3692 98.2532 97.8118C98.8983 97.9881 99.346 98.5745 99.346 99.2433V105.168H107.887V99.2433C107.887 98.5745 108.335 97.9878 108.98 97.8115C110.597 97.3695 112.157 96.7232 113.618 95.8907C114.199 95.5606 114.929 95.658 115.402 96.1309L119.592 100.319L125.631 94.2799L121.443 90.0898C120.97 89.6169 120.872 88.8862 121.203 88.3053C122.035 86.8446 122.681 85.2843 123.124 83.6675C123.301 83.0224 123.887 82.575 124.556 82.575H130.48V74.0339H124.556C123.887 74.0339 123.301 73.5865 123.124 72.9411C122.682 71.3249 122.035 69.7642 121.203 68.3027C120.872 67.7217 120.97 66.9914 121.443 66.5185L125.632 62.3287L119.592 56.2894L115.403 60.478C114.93 60.9506 114.199 61.0483 113.618 60.7182C112.157 59.8854 110.596 59.2394 108.981 58.7971C108.335 58.6204 107.888 58.0341 107.888 57.3652V51.4411H99.3466V57.3652C99.3466 58.0341 98.8992 58.6207 98.2538 58.7968C96.6379 59.2391 95.0773 59.8854 93.616 60.7182C93.0351 61.0489 92.3045 60.9506 91.8318 60.478L87.642 56.2894L81.6027 62.3287L85.791 66.5185C86.2636 66.9914 86.3619 67.7217 86.0312 68.3027C85.1988 69.7642 84.5525 71.3249 84.1101 72.9411C83.9335 73.5865 83.3474 74.0339 82.6783 74.0339H76.7538V82.575H82.6783C83.3471 82.575 83.9335 83.0224 84.1101 83.6675C84.5525 85.284 85.1991 86.8446 86.0312 88.3056C86.3619 88.8862 86.2639 89.6169 85.791 90.0898L81.6027 94.2799L87.642 100.319L91.8318 96.1309C92.1171 95.8453 92.4968 95.6963 92.881 95.6963ZM103.617 90.9219C96.6593 90.9219 90.9994 85.262 90.9994 78.3047C90.9994 71.3475 96.6593 65.6875 103.617 65.6875C110.574 65.6875 116.234 71.3475 116.234 78.3047C116.234 79.5816 116.043 80.8421 115.668 82.0516C115.424 82.8345 114.593 83.2729 113.81 83.0289C113.027 82.7858 112.589 81.9539 112.832 81.1708C113.119 80.2472 113.265 79.2826 113.265 78.3047C113.265 72.9844 108.937 68.6563 103.617 68.6563C98.2966 68.6563 93.9681 72.9844 93.9681 78.3047C93.9681 83.625 98.2966 87.9532 103.617 87.9532C104.676 87.9532 105.723 87.7795 106.728 87.4375C107.503 87.1724 108.347 87.5877 108.612 88.3637C108.876 89.1398 108.461 89.9832 107.685 90.2477C106.371 90.6948 105.002 90.9219 103.617 90.9219Z" fill="black"/>
<path d="M77.9303 113.948V108.01C77.9303 107.191 77.2659 106.526 76.4459 106.526H72.197C71.8245 105.164 71.2844 103.872 70.6007 102.671L73.6048 99.6663C74.1843 99.0865 74.1843 98.1469 73.6045 97.5674L69.4055 93.3687C68.826 92.7892 67.8861 92.7889 67.3066 93.3684L64.3016 96.3725C63.1014 95.6888 61.8091 95.1488 60.447 94.7762V90.5273C60.447 89.7077 59.7823 89.043 58.9627 89.043H53.0246C52.2049 89.043 51.5402 89.7077 51.5402 90.5273V94.7762C50.1781 95.1488 48.8861 95.6888 47.6856 96.3725L44.6806 93.3684C44.1008 92.7889 43.1612 92.7889 42.5817 93.3687L38.383 97.5674C37.8035 98.1469 37.8032 99.0868 38.3827 99.6663L41.3868 102.671C40.7031 103.872 40.163 105.164 39.7905 106.526H35.5416C34.7216 106.526 34.0572 107.191 34.0572 108.01V113.948C34.0572 114.768 34.7216 115.433 35.5416 115.433H39.7905C40.163 116.795 40.7031 118.087 41.3868 119.287L38.3827 122.292C37.8032 122.872 37.8032 123.812 38.383 124.391L42.5817 128.59C43.1612 129.169 44.1011 129.17 44.6806 128.59L47.6856 125.586C48.8858 126.27 50.1781 126.81 51.5402 127.182V131.431C51.5402 132.251 52.2049 132.916 53.0246 132.916H58.9627C59.7823 132.916 60.447 132.251 60.447 131.431V127.182C61.8091 126.81 63.1011 126.27 64.3016 125.586L67.3066 128.59C67.8864 129.17 68.826 129.17 69.4055 128.59L73.6045 124.391C74.184 123.812 74.1843 122.872 73.6048 122.292L70.6007 119.287C71.2844 118.087 71.8245 116.795 72.197 115.433H76.4459C77.2656 115.432 77.9303 114.768 77.9303 113.948ZM55.9936 119.86C51.0889 119.86 47.1129 115.884 47.1129 110.979C47.1129 106.074 51.0889 102.098 55.9936 102.098C60.8983 102.098 64.8743 106.074 64.8743 110.979C64.8743 115.884 60.8983 119.86 55.9936 119.86Z" fill="white"/>
<path d="M58.9627 134.4H53.0246C51.3876 134.4 50.0558 133.068 50.0558 131.431V128.278C49.3407 128.032 48.6406 127.742 47.9608 127.41L45.7301 129.64C44.5729 130.797 42.6895 130.797 41.532 129.639L37.333 125.44C36.176 124.283 36.1757 122.4 37.3324 121.242L39.5625 119.011C39.2297 118.331 38.9399 117.632 38.6947 116.916H35.5413C33.9044 116.916 32.5726 115.584 32.5726 113.947V108.01C32.5726 106.373 33.9044 105.041 35.5413 105.041H38.6947C38.9399 104.326 39.2297 103.626 39.5625 102.946L37.3324 100.715C36.1751 99.5573 36.1754 97.6742 37.333 96.5167L41.5317 92.318C42.6889 91.1608 44.5723 91.1605 45.7298 92.3177L47.9605 94.5475C48.6409 94.2147 49.3404 93.9247 50.0555 93.6798V90.5264C50.0555 88.8894 51.3873 87.5576 53.0243 87.5576H58.9624C60.5993 87.5576 61.9311 88.8894 61.9311 90.5264V93.6798C62.646 93.9247 63.3457 94.2147 64.0262 94.5475L66.2569 92.3177C67.4141 91.1605 69.2975 91.1605 70.455 92.3177L74.654 96.517C75.8115 97.6739 75.8115 99.5573 74.6543 100.715L72.4242 102.946C72.757 103.626 73.047 104.326 73.2919 105.041H76.4456C78.0826 105.041 79.4144 106.373 79.4144 108.01V113.948C79.4144 115.585 78.0826 116.916 76.4456 116.916H73.2919C73.0467 117.632 72.757 118.332 72.4242 119.012L74.654 121.242C75.8109 122.4 75.8106 124.283 74.6537 125.441L70.455 129.64C69.2972 130.797 67.4141 130.797 66.2566 129.64L64.0259 127.41C63.346 127.743 62.646 128.033 61.9308 128.278V131.431C61.9314 133.068 60.5996 134.4 58.9627 134.4ZM47.6862 124.101C47.9376 124.101 48.1906 124.165 48.4204 124.296C49.5265 124.926 50.7081 125.415 51.9321 125.751C52.5772 125.927 53.0246 126.513 53.0246 127.182V131.431H58.9627V127.182C58.9627 126.513 59.4101 125.927 60.0552 125.751C61.2795 125.415 62.4611 124.926 63.5669 124.296C64.1479 123.966 64.8782 124.063 65.3508 124.536L68.3558 127.54L72.5545 123.341L69.5507 120.336C69.0781 119.863 68.9798 119.132 69.3108 118.552C69.9408 117.446 70.4304 116.264 70.7649 115.04C70.9416 114.395 71.5276 113.947 72.1968 113.947H76.4456V108.01H72.1968C71.5276 108.01 70.9416 107.563 70.7649 106.917C70.4301 105.693 69.9408 104.512 69.3106 103.405C68.9798 102.824 69.0781 102.094 69.5507 101.621L72.5548 98.6162L68.3558 94.4175L65.3505 97.4216C64.8779 97.8942 64.1476 97.9925 63.5666 97.6618C62.4596 97.0312 61.2783 96.5419 60.0552 96.2077C59.4101 96.031 58.9624 95.4447 58.9624 94.7758V90.5273H53.0243V94.7758C53.0243 95.4447 52.5769 96.0313 51.9315 96.2077C50.7084 96.5419 49.5271 97.0312 48.4201 97.6618C47.8394 97.9925 47.1088 97.8948 46.6361 97.4216L43.6312 94.4178L39.4322 98.6162L42.4359 101.621C42.9086 102.094 43.0068 102.824 42.6761 103.405C42.0459 104.512 41.5566 105.693 41.2217 106.917C41.0451 107.563 40.4591 108.01 39.7899 108.01H35.541V113.948H39.7899C40.4588 113.948 41.0451 114.395 41.2217 115.041C41.5566 116.265 42.0459 117.446 42.6758 118.552C43.0068 119.133 42.9086 119.863 42.4359 120.336L39.4319 123.341L43.6309 127.54L46.6358 124.536C46.9223 124.25 47.302 124.101 47.6862 124.101ZM55.9936 121.344C50.2782 121.344 45.6285 116.694 45.6285 110.979C45.6285 105.264 50.2782 100.614 55.9936 100.614C61.7088 100.614 66.3584 105.264 66.3584 110.979C66.3587 116.694 61.7091 121.344 55.9936 121.344ZM55.9936 103.583C51.9155 103.583 48.5973 106.901 48.5973 110.979C48.5973 115.057 51.9152 118.375 55.9936 118.375C60.0718 118.375 63.3897 115.057 63.3897 110.979C63.3897 106.901 60.0721 103.583 55.9936 103.583Z" fill="black"/>
<path d="M77.838 51.1922V38.7725C77.838 37.9528 77.1736 37.2881 76.3536 37.2881H67.9324C67.2885 34.9348 66.3558 32.7023 65.1742 30.6283L71.128 24.6724C71.7075 24.0926 71.7075 23.153 71.1277 22.5735L62.3456 13.7913C61.7661 13.2118 60.8262 13.2115 60.2467 13.791L54.2908 19.7449C52.2168 18.5636 49.9843 17.6308 47.631 16.9866V8.56543C47.631 7.74576 46.9663 7.08105 46.1466 7.08105H33.7268C32.9071 7.08105 32.2424 7.74576 32.2424 8.56543V16.9866C29.8891 17.6305 27.6566 18.5633 25.5826 19.7449L19.627 13.791C19.0472 13.2115 18.1076 13.2115 17.5278 13.7913L8.74597 22.5732C8.16647 23.1527 8.16617 24.0926 8.74567 24.6724L14.6995 30.6283C13.5182 32.7023 12.5855 34.9348 11.9415 37.2881H3.52008C2.70041 37.2881 2.03571 37.9528 2.03571 38.7725V51.1922C2.03571 52.0122 2.70041 52.6766 3.52008 52.6766H11.9415C12.5855 55.0299 13.5182 57.2624 14.6995 59.3364L8.74567 65.292C8.16617 65.8718 8.16617 66.8114 8.74597 67.3912L17.5281 76.1734C18.1076 76.7529 19.0475 76.7532 19.6273 76.1737L25.5829 70.2199C27.6569 71.4011 29.8894 72.3339 32.2427 72.9778V81.399C32.2427 82.219 32.9074 82.8834 33.7271 82.8834H46.1469C46.9665 82.8834 47.6312 82.219 47.6312 81.399V72.9778C49.9846 72.3339 52.2171 71.4011 54.291 70.2199L60.247 76.1737C60.8268 76.7532 61.7664 76.7532 62.3459 76.1734L71.128 67.3912C71.7075 66.8117 71.7078 65.8718 71.1283 65.292L65.1745 59.3364C66.3558 57.2624 67.2885 55.0299 67.9328 52.6766H76.3539C77.1733 52.6766 77.838 52.0119 77.838 51.1922ZM39.9368 61.7758C30.6619 61.7758 23.1432 54.2572 23.1432 44.9822C23.1432 35.7072 30.6619 28.1886 39.9368 28.1886C49.2118 28.1886 56.7305 35.7072 56.7305 44.9822C56.7305 54.2572 49.2118 61.7758 39.9368 61.7758Z" fill="white"/>
<path d="M46.1469 84.3674H33.7271C32.0901 84.3674 30.7584 83.0356 30.7584 81.3987V74.0878C29.0674 73.5558 27.423 72.8745 25.8478 72.0536L20.6768 77.2228C19.5193 78.38 17.6356 78.38 16.4784 77.2222L7.69622 68.4404C6.539 67.2837 6.5387 65.4004 7.69592 64.2425L12.8651 59.0719C12.0443 57.4961 11.3629 55.8514 10.8309 54.1607H3.52008C1.88311 54.1607 0.551331 52.8289 0.551331 51.1919V38.7722C0.551331 37.1352 1.88311 35.8034 3.52008 35.8034H10.8306C11.3626 34.1124 12.044 32.468 12.8648 30.8925L7.69563 25.7215C6.53871 24.5646 6.53871 22.6812 7.69563 21.5234L16.4778 12.7416C17.6353 11.5846 19.5187 11.5844 20.6762 12.741L25.8472 17.9102C27.4224 17.0893 29.0668 16.408 30.7578 15.876V8.56543C30.7578 6.92846 32.0896 5.59668 33.7265 5.59668H46.1463C47.7832 5.59668 49.115 6.92846 49.115 8.56543V15.8763C50.806 16.4083 52.4504 17.0896 54.0259 17.9102L59.1966 12.7413C60.3544 11.5844 62.2378 11.5846 63.3947 12.7419L72.1769 21.5237C73.3341 22.6815 73.3341 24.5646 72.1769 25.7218L67.008 30.8928C67.8288 32.4683 68.5102 34.1127 69.0422 35.8037H76.3527C77.9897 35.8037 79.3215 37.1355 79.3215 38.7725V51.1922C79.3215 52.8292 77.9897 54.161 76.3527 54.161H69.0422C68.5102 55.8517 67.8288 57.4964 67.008 59.0722L72.1772 64.2425C73.3341 65.4001 73.3341 67.2834 72.1769 68.4407L63.3947 77.2228C62.8342 77.7836 62.0888 78.0927 61.2958 78.0927C60.5029 78.0927 59.7574 77.7842 59.1966 77.2234L54.0259 72.0542C52.4507 72.8751 50.8063 73.5564 49.115 74.0884V81.3993C49.1156 83.0356 47.7838 84.3674 46.1469 84.3674ZM25.5832 68.7352C25.8347 68.7352 26.0876 68.799 26.3177 68.9296C28.3074 70.0631 30.4324 70.943 32.6343 71.546C33.2794 71.7223 33.7268 72.3086 33.7268 72.9775V81.3987H46.1466V72.9775C46.1466 72.3086 46.594 71.722 47.2391 71.546C49.441 70.9433 51.5663 70.0634 53.5557 68.9296C54.137 68.5995 54.867 68.6972 55.3399 69.1698L61.2955 75.1236L70.0777 66.3415L64.1238 60.3858C63.6512 59.9129 63.553 59.1826 63.8837 58.6016C65.0171 56.6117 65.8974 54.4863 66.4997 52.2847C66.6764 51.6393 67.2624 51.1919 67.9316 51.1919H76.3527V38.7722H67.9316C67.2627 38.7722 66.6764 38.3248 66.4997 37.6794C65.8974 35.4777 65.0171 33.3524 63.8837 31.3628C63.5527 30.7821 63.6509 30.0515 64.1236 29.5785L70.0774 23.6226L61.2952 14.8408L55.3396 20.7946C54.8664 21.2669 54.1364 21.3649 53.5554 21.0348C51.5657 19.9013 49.4407 19.0214 47.2388 18.4187C46.5937 18.2424 46.1463 17.656 46.1463 16.9872V8.56543H33.7265V16.9866C33.7265 17.6554 33.2791 18.2418 32.634 18.4181C30.4321 19.0208 28.3068 19.9007 26.3174 21.0342C25.7367 21.3649 25.0061 21.2672 24.5332 20.794L18.5776 14.8408L9.79572 23.6226L15.7495 29.5785C16.2222 30.0515 16.3204 30.7821 15.9894 31.3628C14.856 33.3524 13.9757 35.4777 13.3734 37.6794C13.1967 38.3248 12.6107 38.7722 11.9415 38.7722H3.52008V51.1919H11.9415C12.6104 51.1919 13.1967 51.6393 13.3734 52.2847C13.9757 54.4863 14.856 56.6117 15.9894 58.6016C16.3201 59.1826 16.2222 59.9129 15.7493 60.3858L9.79542 66.3415L18.5776 75.1236L24.5335 69.1698C24.8194 68.8842 25.1991 68.7352 25.5832 68.7352ZM39.9368 63.2602C36.8707 63.2602 33.8358 62.4845 31.16 61.0167C30.4413 60.6225 30.178 59.7202 30.5725 59.0015C30.9671 58.2828 31.8693 58.0192 32.5877 58.414C34.8273 59.6425 37.3686 60.2914 39.9371 60.2914C48.3788 60.2914 55.2464 53.4235 55.2464 44.9822C55.2464 36.5406 48.3788 29.6732 39.9371 29.6732C31.4958 29.6732 24.6282 36.5408 24.6282 44.9822C24.6282 47.3625 25.162 49.6464 26.215 51.7702C26.579 52.5047 26.2788 53.3953 25.5443 53.7593C24.8093 54.123 23.9193 53.8231 23.555 53.0887C22.2971 50.5513 21.6594 47.8239 21.6594 44.9819C21.6594 34.9036 29.8588 26.7042 39.9371 26.7042C50.0158 26.7042 58.2151 34.9036 58.2151 44.9819C58.2148 55.0608 50.0155 63.2602 39.9368 63.2602Z" fill="black"/>
<path d="M103.617 25.2605C101.452 25.2605 99.6905 23.4992 99.6905 21.3344C99.6905 19.1696 101.452 17.4082 103.617 17.4082C105.782 17.4082 107.543 19.1696 107.543 21.3344C107.543 23.4992 105.781 25.2605 103.617 25.2605ZM103.617 20.3773C103.089 20.3773 102.659 20.8065 102.659 21.3347C102.659 21.8625 103.089 22.2921 103.617 22.2921C104.144 22.2921 104.574 21.8628 104.574 21.3347C104.574 20.8065 104.144 20.3773 103.617 20.3773Z" fill="white"/>
<path d="M103.617 135.701C101.452 135.701 99.6905 133.94 99.6905 131.775C99.6905 129.61 101.452 127.849 103.617 127.849C105.782 127.849 107.543 129.61 107.543 131.775C107.543 133.94 105.781 135.701 103.617 135.701ZM103.617 130.817C103.089 130.817 102.659 131.247 102.659 131.775C102.659 132.303 103.089 132.733 103.617 132.733C104.144 132.733 104.574 132.303 104.574 131.775C104.574 131.247 104.144 130.817 103.617 130.817Z" fill="white"/>
<path d="M55.9936 8.56553C53.8287 8.56553 52.0674 6.80417 52.0674 4.63936C52.0674 2.47425 53.8287 0.712891 55.9936 0.712891C58.1584 0.712891 59.9197 2.47425 59.9197 4.63936C59.9197 6.80447 58.1584 8.56553 55.9936 8.56553ZM55.9936 3.68194C55.4657 3.68194 55.0361 4.11152 55.0361 4.63966C55.0361 5.1675 55.4657 5.59708 55.9936 5.59708C56.5214 5.59708 56.951 5.1678 56.951 4.63966C56.951 4.11152 56.5214 3.68194 55.9936 3.68194Z" fill="white"/>
<path d="M88.6971 36.4506C88.3171 36.4506 87.9374 36.3058 87.6474 36.0157L84.295 32.6634C83.7152 32.0839 83.7152 31.144 84.295 30.5645L87.6474 27.2122C88.2272 26.6324 89.1668 26.6324 89.7466 27.2122L93.0989 30.5645C93.3773 30.843 93.5335 31.2203 93.5335 31.614C93.5335 32.0076 93.377 32.3852 93.0989 32.6634L89.7466 36.0157C89.4568 36.3058 89.0768 36.4506 88.6971 36.4506ZM87.444 31.614L88.6971 32.8671L89.9502 31.614L88.6971 30.3609L87.444 31.614Z" fill="white"/>
<path d="M8.4289 97.9731C8.03525 97.9731 7.65762 97.8166 7.37915 97.5382L4.02684 94.1859C3.44705 93.6064 3.44705 92.6665 4.02684 92.087L7.37915 88.7347C7.95895 88.1549 8.89856 88.1549 9.47836 88.7347L12.8307 92.087C13.1091 92.3654 13.2653 92.7428 13.2653 93.1364C13.2653 93.5301 13.1088 93.9077 12.8307 94.1859L9.47836 97.5385C9.20019 97.8166 8.82256 97.9731 8.4289 97.9731ZM7.1755 93.1364L8.42861 94.3898L9.68172 93.1364L8.42861 91.8833L7.1755 93.1364Z" fill="white"/>
</svg>
