<svg width="149" height="170" viewBox="0 0 149 170" fill="none" xmlns="http://www.w3.org/2000/svg">
<g clip-path="url(#clip0)">
<path d="M9.46848 62.5094C9.00884 62.5094 8.54848 62.3331 8.19808 61.9804L4.24496 58.0058C3.5431 57.3001 3.5431 56.1562 4.24496 55.4509L8.19808 51.4763C8.89922 50.7709 10.0377 50.7709 10.7389 51.4763L14.692 55.4509C15.3938 56.1565 15.3938 57.3005 14.692 58.0058L10.7389 61.9804C10.3885 62.3331 9.92812 62.5094 9.46848 62.5094ZM8.05649 56.7282L9.46848 58.1478L10.8805 56.7282L9.46848 55.3089L8.05649 56.7282Z" fill="#023872"/>
<path d="M137.765 68.3437C137.289 68.3437 136.832 68.1533 136.495 67.8148L132.542 63.8398C132.205 63.5009 132.015 63.0416 132.015 62.5621C132.015 62.083 132.204 61.6234 132.542 61.2845L136.495 57.3102C137.196 56.6049 138.335 56.6049 139.036 57.3102L142.989 61.2848C143.691 61.9905 143.691 63.1345 142.989 63.8398L139.036 67.8144C138.699 68.1533 138.242 68.3437 137.765 68.3437V68.3437ZM136.353 62.5621L137.765 63.9818L139.177 62.5621L137.765 61.1428L136.353 62.5621Z" fill="#023872"/>
<path d="M5.51532 108.204C4.52273 108.204 3.71844 107.395 3.71844 106.397C3.71844 105.202 2.75137 104.229 1.56219 104.229C0.569601 104.229 -0.23468 103.42 -0.23468 102.423C-0.23468 101.425 0.569601 100.616 1.56219 100.616C2.75137 100.616 3.71844 99.6439 3.71844 98.4482C3.71844 97.4506 4.52273 96.6416 5.51532 96.6416C6.50791 96.6416 7.31219 97.4506 7.31219 98.4482C7.31219 99.6439 8.27927 100.616 9.46844 100.616C10.461 100.616 11.2653 101.425 11.2653 102.423C11.2653 103.42 10.461 104.229 9.46844 104.229C8.27927 104.229 7.31219 105.202 7.31219 106.397C7.31219 107.395 6.50791 108.204 5.51532 108.204Z" fill="#023872"/>
<path d="M143.515 151.355C142.523 151.355 141.719 150.546 141.719 149.549C141.719 148.353 140.751 147.381 139.562 147.381C138.57 147.381 137.765 146.572 137.765 145.574C137.765 144.577 138.57 143.768 139.562 143.768C140.751 143.768 141.719 142.795 141.719 141.6C141.719 140.602 142.523 139.793 143.515 139.793C144.508 139.793 145.312 140.602 145.312 141.6C145.312 142.795 146.279 143.768 147.469 143.768C148.461 143.768 149.265 144.577 149.265 145.574C149.265 146.572 148.461 147.381 147.469 147.381C146.279 147.381 145.312 148.353 145.312 149.549C145.312 150.546 144.508 151.355 143.515 151.355Z" fill="#023872"/>
<path d="M132.137 49.9209C131.145 49.9209 130.341 49.1119 130.341 48.1143C130.341 46.9186 129.373 45.9463 128.184 45.9463C127.192 45.9463 126.387 45.1373 126.387 44.1397C126.387 43.142 127.192 42.333 128.184 42.333C129.373 42.333 130.341 41.3607 130.341 40.165C130.341 39.1674 131.145 38.3584 132.137 38.3584C133.13 38.3584 133.934 39.1674 133.934 40.165C133.934 41.3607 134.901 42.333 136.091 42.333C137.083 42.333 137.887 43.142 137.887 44.1397C137.887 45.1373 137.083 45.9463 136.091 45.9463C134.901 45.9463 133.934 46.9186 133.934 48.1143C133.934 49.1122 133.13 49.9209 132.137 49.9209Z" fill="#023872"/>
<path opacity="0.1" d="M118.909 22.9492V159.502C118.909 165.49 114.082 170.342 108.128 170.342H35.8717C29.9169 170.342 25.0905 165.49 25.0905 159.502V22.9492C25.0905 16.962 29.9169 12.1094 35.8717 12.1094H108.128C114.082 12.1094 118.909 16.962 118.909 22.9492V22.9492Z" fill="#023872"/>
<path d="M118.909 14.2773V150.83C118.909 156.818 114.082 161.67 108.128 161.67H35.8717C29.9169 161.67 25.0905 156.818 25.0905 150.83V14.2773C25.0905 8.29014 29.9169 3.4375 35.8717 3.4375H108.128C114.082 3.4375 118.909 8.29014 118.909 14.2773V14.2773Z" fill="white"/>
<path d="M91.9784 11.726L94.5504 3.4375H49.4489L52.0209 11.726C52.4892 13.2353 53.8792 14.2633 55.4515 14.2633H88.5474C90.12 14.2629 91.5101 13.2353 91.9784 11.726Z" fill="#023872"/>
<path d="M57.3368 58.4797C62.7484 53.0387 62.7484 44.2171 57.3368 38.7762C51.9253 33.3352 43.1514 33.3352 37.7398 38.7762C32.3282 44.2171 32.3282 53.0387 37.7398 58.4797C43.1514 63.9207 51.9253 63.9207 57.3368 58.4797Z" fill="#023872"/>
<path d="M53.5221 46.5291C53.5221 43.219 50.8437 40.5264 47.5518 40.5264C44.2595 40.5264 41.5815 43.2193 41.5815 46.5291C41.5815 48.1616 42.2348 49.6419 43.2903 50.7252C42.2352 51.8085 41.5815 53.2888 41.5815 54.9213C41.5815 55.9189 42.3861 56.728 43.3784 56.728C44.3706 56.728 45.1752 55.9189 45.1752 54.9213C45.1752 53.6039 46.2415 52.5319 47.5518 52.5319C48.8621 52.5319 49.9283 53.6039 49.9283 54.9213C49.9283 55.9189 50.733 56.728 51.7252 56.728C52.7174 56.728 53.5221 55.9189 53.5221 54.9213C53.5221 53.2888 52.8687 51.8085 51.8132 50.7252C52.8687 49.6419 53.5221 48.1616 53.5221 46.5291ZM47.5518 44.1393C48.8621 44.1393 49.9283 45.2113 49.9283 46.5287C49.9283 47.8461 48.8621 48.9182 47.5518 48.9182C46.2415 48.9182 45.1752 47.8461 45.1752 46.5287C45.1752 45.2113 46.2411 44.1393 47.5518 44.1393Z" fill="#023872"/>
<path d="M91.14 149.188H52.8594C51.8668 149.188 51.0625 148.378 51.0625 147.381C51.0625 146.383 51.8668 145.574 52.8594 145.574H91.14C92.1326 145.574 92.9368 146.383 92.9368 147.381C92.9368 148.378 92.1322 149.188 91.14 149.188Z" fill="#023872"/>
<path d="M108.51 28.9854H81.011C80.0184 28.9854 79.2141 28.1763 79.2141 27.1787C79.2141 26.1811 80.0184 25.3721 81.011 25.3721H108.51C109.503 25.3721 110.307 26.1811 110.307 27.1787C110.307 28.1763 109.503 28.9854 108.51 28.9854Z" fill="#023872"/>
<path d="M44.6271 13.6738H37.799C36.8068 13.6738 36.0021 12.8648 36.0021 11.8672V10.0674C36.0021 9.06976 36.8068 8.26074 37.799 8.26074H44.6271C45.6197 8.26074 46.424 9.06976 46.424 10.0674V11.8672C46.424 12.8648 45.6197 13.6738 44.6271 13.6738Z" fill="#023872"/>
<path d="M100.72 13.4063C99.7276 13.4063 98.923 12.5972 98.923 11.5996V10.335C98.923 9.33733 99.7276 8.52832 100.72 8.52832C101.712 8.52832 102.517 9.33733 102.517 10.335V11.5996C102.517 12.5976 101.712 13.4063 100.72 13.4063Z" fill="#023872"/>
<path d="M106.2 13.4063C105.208 13.4063 104.403 12.5972 104.403 11.5996V10.335C104.403 9.33733 105.208 8.52832 106.2 8.52832C107.193 8.52832 107.997 9.33733 107.997 10.335V11.5996C107.997 12.5976 107.193 13.4063 106.2 13.4063Z" fill="#023872"/>
<path d="M108.51 55.9766H70.2297C69.2371 55.9766 68.4329 55.1675 68.4329 54.1699C68.4329 53.1723 69.2371 52.3633 70.2297 52.3633H108.51C109.503 52.3633 110.307 53.1723 110.307 54.1699C110.307 55.1675 109.503 55.9766 108.51 55.9766Z" fill="#023872"/>
<path d="M70.2297 49.0176C69.2375 49.0176 68.4329 48.2086 68.4329 47.2109V45.9463C68.4329 44.9487 69.2375 44.1396 70.2297 44.1396C71.222 44.1396 72.0266 44.9487 72.0266 45.9463V47.2109C72.0266 48.2089 71.2223 49.0176 70.2297 49.0176Z" fill="#023872"/>
<path d="M75.7102 49.0176C74.718 49.0176 73.9133 48.2086 73.9133 47.2109V45.9463C73.9133 44.9487 74.718 44.1396 75.7102 44.1396C76.7024 44.1396 77.5071 44.9487 77.5071 45.9463V47.2109C77.5071 48.2089 76.7028 49.0176 75.7102 49.0176Z" fill="#023872"/>
<path d="M86.6711 49.0176C85.6789 49.0176 84.8743 48.2086 84.8743 47.2109V45.9463C84.8743 44.9487 85.6789 44.1396 86.6711 44.1396C87.6634 44.1396 88.468 44.9487 88.468 45.9463V47.2109C88.468 48.2089 87.6637 49.0176 86.6711 49.0176Z" fill="#023872"/>
<path d="M92.1516 49.0176C91.1594 49.0176 90.3547 48.2086 90.3547 47.2109V45.9463C90.3547 44.9487 91.1594 44.1396 92.1516 44.1396C93.1439 44.1396 93.9485 44.9487 93.9485 45.9463V47.2109C93.9485 48.2089 93.1442 49.0176 92.1516 49.0176Z" fill="#023872"/>
<path d="M97.6321 49.0176C96.6398 49.0176 95.8352 48.2086 95.8352 47.2109V45.9463C95.8352 44.9487 96.6398 44.1396 97.6321 44.1396C98.6243 44.1396 99.429 44.9487 99.429 45.9463V47.2109C99.429 48.2089 98.6247 49.0176 97.6321 49.0176Z" fill="#023872"/>
<path d="M103.113 49.0176C102.12 49.0176 101.316 48.2086 101.316 47.2109V45.9463C101.316 44.9487 102.12 44.1396 103.113 44.1396C104.105 44.1396 104.909 44.9487 104.909 45.9463V47.2109C104.909 48.2089 104.105 49.0176 103.113 49.0176Z" fill="#023872"/>
<path d="M108.593 49.0176C107.601 49.0176 106.796 48.2086 106.796 47.2109V45.9463C106.796 44.9487 107.601 44.1396 108.593 44.1396C109.585 44.1396 110.39 44.9487 110.39 45.9463V47.2109C110.39 48.2089 109.586 49.0176 108.593 49.0176Z" fill="#023872"/>
<path d="M57.3332 92.341C62.7447 86.9001 62.7448 78.0785 57.3332 72.6375C51.9216 67.1965 43.1477 67.1965 37.7361 72.6375C32.3246 78.0785 32.3246 86.9001 37.7361 92.341C43.1477 97.782 51.9216 97.782 57.3332 92.341Z" fill="#023872"/>
<path d="M53.522 80.3943C53.522 77.0842 50.8436 74.3916 47.5517 74.3916C44.2595 74.3916 41.5814 77.0846 41.5814 80.3943C41.5814 82.0268 42.2348 83.5072 43.2903 84.5904C42.2351 85.6737 41.5814 87.1541 41.5814 88.7865C41.5814 89.7842 42.3861 90.5932 43.3783 90.5932C44.3705 90.5932 45.1752 89.7842 45.1752 88.7865C45.1752 87.4691 46.2414 86.3971 47.5517 86.3971C48.862 86.3971 49.9283 87.4691 49.9283 88.7865C49.9283 89.7842 50.7329 90.5932 51.7251 90.5932C52.7174 90.5932 53.522 89.7842 53.522 88.7865C53.522 87.1541 52.8687 85.6737 51.8132 84.5904C52.8687 83.5075 53.522 82.0272 53.522 80.3943V80.3943ZM47.5517 78.0049C48.862 78.0049 49.9283 79.0769 49.9283 80.3943C49.9283 81.7117 48.862 82.7838 47.5517 82.7838C46.2414 82.7838 45.1752 81.7117 45.1752 80.3943C45.1752 79.0769 46.2411 78.0049 47.5517 78.0049Z" fill="#023872"/>
<path d="M108.51 89.8418H70.2297C69.2371 89.8418 68.4329 89.0328 68.4329 88.0352C68.4329 87.0375 69.2371 86.2285 70.2297 86.2285H108.51C109.503 86.2285 110.307 87.0375 110.307 88.0352C110.307 89.0328 109.503 89.8418 108.51 89.8418Z" fill="#023872"/>
<path d="M70.2297 82.8828C69.2375 82.8828 68.4329 82.0738 68.4329 81.0762V79.8115C68.4329 78.8139 69.2375 78.0049 70.2297 78.0049C71.222 78.0049 72.0266 78.8139 72.0266 79.8115V81.0762C72.0266 82.0738 71.2223 82.8828 70.2297 82.8828Z" fill="#023872"/>
<path d="M75.7102 82.8828C74.718 82.8828 73.9133 82.0738 73.9133 81.0762V79.8115C73.9133 78.8139 74.718 78.0049 75.7102 78.0049C76.7024 78.0049 77.5071 78.8139 77.5071 79.8115V81.0762C77.5071 82.0738 76.7028 82.8828 75.7102 82.8828Z" fill="#023872"/>
<path d="M86.6711 82.8828C85.6789 82.8828 84.8743 82.0738 84.8743 81.0762V79.8115C84.8743 78.8139 85.6789 78.0049 86.6711 78.0049C87.6634 78.0049 88.468 78.8139 88.468 79.8115V81.0762C88.468 82.0738 87.6637 82.8828 86.6711 82.8828Z" fill="#023872"/>
<path d="M92.1516 82.8828C91.1594 82.8828 90.3547 82.0738 90.3547 81.0762V79.8115C90.3547 78.8139 91.1594 78.0049 92.1516 78.0049C93.1439 78.0049 93.9485 78.8139 93.9485 79.8115V81.0762C93.9485 82.0738 93.1442 82.8828 92.1516 82.8828Z" fill="#023872"/>
<path d="M97.6321 82.8828C96.6398 82.8828 95.8352 82.0738 95.8352 81.0762V79.8115C95.8352 78.8139 96.6398 78.0049 97.6321 78.0049C98.6243 78.0049 99.429 78.8139 99.429 79.8115V81.0762C99.429 82.0738 98.6247 82.8828 97.6321 82.8828Z" fill="#023872"/>
<path d="M103.113 82.8828C102.12 82.8828 101.316 82.0738 101.316 81.0762V79.8115C101.316 78.8139 102.12 78.0049 103.113 78.0049C104.105 78.0049 104.909 78.8139 104.909 79.8115V81.0762C104.909 82.0738 104.105 82.8828 103.113 82.8828Z" fill="#023872"/>
<path d="M108.593 82.8828C107.601 82.8828 106.796 82.0738 106.796 81.0762V79.8115C106.796 78.8139 107.601 78.0049 108.593 78.0049C109.585 78.0049 110.39 78.8139 110.39 79.8115V81.0762C110.39 82.0738 109.586 82.8828 108.593 82.8828Z" fill="#023872"/>
<path d="M61.0225 119.61C62.783 112.122 58.1727 104.617 50.725 102.847C43.2774 101.077 35.8128 105.712 34.0523 113.2C32.2918 120.688 36.9022 128.194 44.3498 129.964C51.7974 131.734 59.262 127.098 61.0225 119.61Z" fill="#023872"/>
<path d="M53.522 114.259C53.522 110.948 50.8436 108.256 47.5517 108.256C44.2595 108.256 41.5814 110.949 41.5814 114.259C41.5814 115.891 42.2348 117.371 43.2903 118.455C42.2351 119.538 41.5814 121.018 41.5814 122.651C41.5814 123.648 42.3861 124.457 43.3783 124.457C44.3705 124.457 45.1752 123.648 45.1752 122.651C45.1752 121.333 46.2414 120.261 47.5517 120.261C48.862 120.261 49.9283 121.333 49.9283 122.651C49.9283 123.648 50.7329 124.457 51.7251 124.457C52.7174 124.457 53.522 123.648 53.522 122.651C53.522 121.018 52.8687 119.538 51.8132 118.455C52.8687 117.371 53.522 115.891 53.522 114.259ZM47.5517 111.869C48.862 111.869 49.9283 112.941 49.9283 114.259C49.9283 115.576 48.862 116.648 47.5517 116.648C46.2414 116.648 45.1752 115.576 45.1752 114.259C45.1748 112.941 46.2411 111.869 47.5517 111.869Z" fill="#023872"/>
<path d="M108.51 123.706H70.2297C69.2371 123.706 68.4329 122.897 68.4329 121.899C68.4329 120.902 69.2371 120.093 70.2297 120.093H108.51C109.503 120.093 110.307 120.902 110.307 121.899C110.307 122.897 109.503 123.706 108.51 123.706Z" fill="#023872"/>
<path d="M70.2297 116.748C69.2375 116.748 68.4329 115.939 68.4329 114.941V113.677C68.4329 112.679 69.2375 111.87 70.2297 111.87C71.222 111.87 72.0266 112.679 72.0266 113.677V114.941C72.0266 115.939 71.2223 116.748 70.2297 116.748Z" fill="#023872"/>
<path d="M75.7102 116.748C74.718 116.748 73.9133 115.939 73.9133 114.941V113.677C73.9133 112.679 74.718 111.87 75.7102 111.87C76.7024 111.87 77.5071 112.679 77.5071 113.677V114.941C77.5071 115.939 76.7028 116.748 75.7102 116.748Z" fill="#023872"/>
<path d="M86.6711 116.748C85.6789 116.748 84.8743 115.939 84.8743 114.941V113.677C84.8743 112.679 85.6789 111.87 86.6711 111.87C87.6634 111.87 88.468 112.679 88.468 113.677V114.941C88.468 115.939 87.6637 116.748 86.6711 116.748Z" fill="#023872"/>
<path d="M92.1516 116.748C91.1594 116.748 90.3547 115.939 90.3547 114.941V113.677C90.3547 112.679 91.1594 111.87 92.1516 111.87C93.1439 111.87 93.9485 112.679 93.9485 113.677V114.941C93.9485 115.939 93.1442 116.748 92.1516 116.748Z" fill="#023872"/>
<path d="M97.6321 116.748C96.6398 116.748 95.8352 115.939 95.8352 114.941V113.677C95.8352 112.679 96.6398 111.87 97.6321 111.87C98.6243 111.87 99.429 112.679 99.429 113.677V114.941C99.429 115.939 98.6247 116.748 97.6321 116.748Z" fill="#023872"/>
<path d="M103.113 116.748C102.12 116.748 101.316 115.939 101.316 114.941V113.677C101.316 112.679 102.12 111.87 103.113 111.87C104.105 111.87 104.909 112.679 104.909 113.677V114.941C104.909 115.939 104.105 116.748 103.113 116.748Z" fill="#023872"/>
<path d="M108.593 116.748C107.601 116.748 106.796 115.939 106.796 114.941V113.677C106.796 112.679 107.601 111.87 108.593 111.87C109.585 111.87 110.39 112.679 110.39 113.677V114.941C110.39 115.939 109.586 116.748 108.593 116.748Z" fill="#023872"/>
<path d="M71.9996 140.211C71.54 140.211 71.0796 140.035 70.7292 139.682L68.6326 137.574C67.9308 136.869 67.9308 135.725 68.6323 135.019C69.3341 134.314 70.4716 134.314 71.1734 135.019L71.9996 135.85L72.8258 135.019C73.527 134.314 74.6651 134.314 75.367 135.019C76.0685 135.725 76.0685 136.869 75.3666 137.574L73.27 139.682C72.9196 140.035 72.4593 140.211 71.9996 140.211Z" fill="#023872"/>
<path d="M35.8714 163.476H108.128C115.064 163.476 120.707 157.803 120.707 150.83V70.1919C120.707 69.1943 119.902 68.3853 118.91 68.3853C117.917 68.3853 117.113 69.1943 117.113 70.1919V150.83C117.113 155.811 113.082 159.863 108.128 159.863H35.8714C30.9174 159.863 26.887 155.811 26.887 150.83V14.2764C26.887 9.29546 30.9174 5.24316 35.8714 5.24316H62.4774C63.47 5.24316 64.2742 4.43415 64.2742 3.43652C64.2742 2.4389 63.47 1.62988 62.4774 1.62988H35.8714C28.9358 1.62988 23.2933 7.3031 23.2933 14.2764V150.83C23.2933 157.803 28.9358 163.476 35.8714 163.476V163.476Z" fill="#023872"/>
<path d="M74.5743 5.24317H108.128C113.082 5.24317 117.112 9.29546 117.112 14.2764V58.0292C117.112 59.0269 117.917 59.8359 118.909 59.8359C119.902 59.8359 120.706 59.0269 120.706 58.0292V14.2764C120.706 7.3031 115.064 1.62988 108.128 1.62988H74.5743C73.5817 1.62988 72.7774 2.4389 72.7774 3.43652C72.7774 4.43415 73.5817 5.24317 74.5743 5.24317V5.24317Z" fill="#023872"/>
</g>
<defs>
<clipPath id="clip0">
<rect width="149" height="170" fill="white"/>
</clipPath>
</defs>
</svg>
