<svg width="160" height="169" viewBox="0 0 160 169" fill="none" xmlns="http://www.w3.org/2000/svg">
<g opacity="0.1">
<path opacity="0.1" d="M125.346 147.811C128.355 147.074 131.107 145.525 133.302 143.329C135.497 141.134 137.047 138.382 137.784 135.372C138.042 134.319 137.397 133.256 136.344 132.999C135.29 132.739 134.228 133.386 133.971 134.439C133.404 136.751 132.213 138.865 130.526 140.553C128.838 142.24 126.724 143.431 124.412 143.997C123.359 144.255 122.714 145.318 122.972 146.371C123.192 147.267 123.994 147.867 124.877 147.867C125.032 147.868 125.189 147.85 125.346 147.811Z" fill="#023872"/>
<path opacity="0.1" d="M124.383 141.054C124.538 141.054 124.695 141.036 124.852 140.997C126.332 140.635 127.686 139.872 128.766 138.792C129.845 137.712 130.608 136.359 130.971 134.878C131.229 133.825 130.584 132.762 129.531 132.504C128.478 132.246 127.415 132.891 127.157 133.944C126.965 134.727 126.562 135.444 125.989 136.016C125.417 136.588 124.701 136.991 123.918 137.183C122.864 137.441 122.22 138.504 122.478 139.557C122.697 140.454 123.5 141.054 124.383 141.054Z" fill="#023872"/>
<path opacity="0.1" d="M143.113 133.92C142.058 133.662 140.997 134.307 140.739 135.36C139.826 139.087 137.906 142.495 135.187 145.214C132.468 147.933 129.061 149.853 125.333 150.766C124.28 151.024 123.635 152.087 123.893 153.14C124.113 154.036 124.915 154.636 125.799 154.636C125.953 154.636 126.11 154.618 126.267 154.579C130.692 153.495 134.736 151.217 137.963 147.99C141.19 144.763 143.469 140.718 144.552 136.294C144.81 135.241 144.166 134.178 143.113 133.92Z" fill="#023872"/>
</g>
<path opacity="0.1" d="M157.053 31.2259L139.462 13.6351C138.219 12.3925 136.204 12.3925 134.961 13.6351L92.5032 56.0929C91.2605 57.3359 91.2605 59.3509 92.5032 60.5936L100.003 68.0933C99.7944 68.1879 99.5965 68.3151 99.4249 68.4867L94.25 73.6616C93.877 74.0346 93.6889 74.5207 93.6787 75.0095L83.2426 64.5733C79.4992 60.83 74.2297 59.5425 69.4364 60.7114L61.7271 53.002C60.4844 51.759 58.469 51.759 57.2263 53.002L50.1001 60.1283L46.5746 56.6029C45.3319 55.3602 43.3165 55.3602 42.0739 56.6029L38.2484 60.4283C37.0058 61.671 37.0058 63.6864 38.2484 64.929L51.1786 77.8592C49.2586 83.0463 50.3784 89.1034 54.5458 93.2708L64.982 103.707C64.4932 103.717 64.0071 103.905 63.6337 104.278L58.4588 109.453C58.2872 109.624 58.16 109.822 58.065 110.031L50.5657 102.531C49.323 101.289 47.3076 101.289 46.065 102.531L3.60724 144.989C2.36456 146.231 2.36456 148.247 3.60724 149.49L21.198 167.08C22.4407 168.323 24.456 168.323 25.6987 167.08L68.1568 124.622C69.3995 123.379 69.3995 121.364 68.1568 120.121L60.6576 112.622C60.866 112.527 61.0639 112.4 61.2355 112.229L66.4104 107.054C66.7834 106.681 66.9715 106.195 66.9817 105.706L84.5288 123.253C86.3075 125.032 89.1906 125.032 90.9692 123.253L95.7597 118.463C92.1074 126.488 92.8232 136.008 97.9015 143.448L97.5631 143.786C95.989 145.36 95.989 147.913 97.5631 149.487C99.1375 151.061 101.69 151.061 103.264 149.487L139.46 113.291C141.034 111.717 141.034 109.165 139.46 107.59C137.886 106.016 135.334 106.016 133.759 107.59L133.421 107.929C125.981 102.85 116.46 102.135 108.435 105.787L113.226 100.996C115.005 99.2177 115.005 96.3342 113.226 94.5559L95.6788 77.0088C96.1676 76.999 96.6537 76.8105 97.0267 76.4379L102.202 71.263C102.373 71.0914 102.5 70.8935 102.595 70.685L110.095 78.1843C111.337 79.427 113.353 79.427 114.595 78.1843L157.054 35.7262C158.295 34.4839 158.295 32.4689 157.053 31.2259Z" fill="#023872"/>
<path d="M75.2293 55.902L61.6897 69.4416L45.9373 53.6891L57.2267 42.3998C58.4694 41.1571 60.4848 41.1571 61.7274 42.3998L75.2293 55.902Z" fill="white"/>
<path d="M63.4522 62.8781L55.126 71.2043L38.2483 54.3265C37.0056 53.0839 37.0056 51.0689 38.2483 49.8258L42.0737 46.0004C43.3164 44.7577 45.3318 44.7577 46.5745 46.0004L63.4522 62.8781Z" fill="white"/>
<path d="M100.952 136.532C90.9674 126.548 90.9674 110.361 100.952 100.377C110.936 90.3926 127.123 90.3926 137.107 100.377L100.952 136.532Z" fill="white"/>
<path d="M113.225 90.3946L90.9689 112.651C89.1902 114.43 86.3067 114.43 84.5285 112.651L54.5459 82.6684C48.8402 76.9627 48.8402 67.7119 54.5459 62.0061L62.5803 53.9717C68.2861 48.2659 77.5369 48.2659 83.2426 53.9717L113.225 83.9543C115.004 85.7325 115.004 88.616 113.225 90.3946Z" fill="#023872"/>
<path d="M74.2265 102.349L84.5284 112.651C86.307 114.43 89.1901 114.43 90.9687 112.651L113.225 90.3946C115.004 88.616 115.004 85.7325 113.225 83.9542L102.923 73.6523L74.2265 102.349Z" fill="white"/>
<path d="M157.053 25.125L114.595 67.5831C113.352 68.8258 111.337 68.8258 110.094 67.5831L92.5033 49.9924C91.2606 48.7497 91.2606 46.7344 92.5033 45.4917L134.961 3.03357C136.204 1.79089 138.219 1.79089 139.462 3.03357L157.053 20.6243C158.296 21.8674 158.296 23.8824 157.053 25.125Z" fill="white"/>
<path d="M108.988 48.7732L105.538 52.2237C104.916 52.8452 103.909 52.8452 103.287 52.2237L99.8369 48.7732C99.2154 48.1517 99.2154 47.1442 99.8369 46.5231L103.287 43.0726C103.909 42.4511 104.916 42.4511 105.538 43.0726L108.988 46.5231C109.61 47.1442 109.61 48.1517 108.988 48.7732Z" fill="#023872"/>
<path d="M117.014 56.7996L113.564 60.2501C112.942 60.8716 111.935 60.8716 111.314 60.2501L107.863 56.7996C107.242 56.1781 107.242 55.1706 107.863 54.5494L111.314 51.099C111.935 50.4774 112.943 50.4774 113.564 51.099L117.014 54.5494C117.636 55.1706 117.636 56.1781 117.014 56.7996Z" fill="#023872"/>
<path d="M117.164 40.5969L113.714 44.0473C113.092 44.6689 112.085 44.6689 111.464 44.0473L108.013 40.5969C107.392 39.9753 107.392 38.9678 108.013 38.3463L111.464 34.8958C112.085 34.2743 113.093 34.2743 113.714 34.8958L117.164 38.3463C117.786 38.9678 117.786 39.9753 117.164 40.5969Z" fill="#023872"/>
<path d="M125.191 48.6219L121.741 52.0723C121.119 52.6939 120.112 52.6939 119.49 52.0723L116.04 48.6219C115.418 48.0003 115.418 46.9928 116.04 46.3717L119.49 42.9212C120.112 42.2997 121.119 42.2997 121.741 42.9212L125.191 46.3717C125.812 46.9928 125.812 48.0003 125.191 48.6219Z" fill="#023872"/>
<path d="M125.341 32.4207L121.89 35.8711C121.269 36.4927 120.261 36.4927 119.64 35.8711L116.189 32.4207C115.568 31.7991 115.568 30.7917 116.189 30.1705L119.64 26.7201C120.261 26.0985 121.269 26.0985 121.89 26.7201L125.341 30.1705C125.962 30.792 125.962 31.7995 125.341 32.4207Z" fill="#023872"/>
<path d="M133.367 40.448L129.917 43.8985C129.295 44.52 128.288 44.52 127.667 43.8985L124.216 40.448C123.595 39.8265 123.595 38.819 124.216 38.1979L127.667 34.7474C128.288 34.1259 129.296 34.1259 129.917 34.7474L133.367 38.1979C133.989 38.819 133.989 39.8265 133.367 40.448Z" fill="#023872"/>
<path d="M133.517 24.2439L130.066 27.6944C129.445 28.3159 128.437 28.3159 127.816 27.6944L124.366 24.2439C123.744 23.6224 123.744 22.6149 124.366 21.9938L127.816 18.5433C128.438 17.9218 129.445 17.9218 130.066 18.5433L133.517 21.9938C134.138 22.6153 134.138 23.6228 133.517 24.2439Z" fill="#023872"/>
<path d="M141.543 32.2703L138.093 35.7208C137.471 36.3423 136.464 36.3423 135.842 35.7208L132.392 32.2703C131.77 31.6488 131.77 30.6413 132.392 30.0201L135.842 26.5697C136.464 25.9481 137.471 25.9481 138.093 26.5697L141.543 30.0201C142.165 30.6417 142.165 31.6492 141.543 32.2703Z" fill="#023872"/>
<path d="M141.693 16.0676L138.243 19.518C137.621 20.1396 136.614 20.1396 135.992 19.518L132.542 16.0676C131.92 15.446 131.92 14.4385 132.542 13.817L135.992 10.3665C136.614 9.74501 137.621 9.74501 138.243 10.3665L141.693 13.817C142.315 14.4385 142.315 15.446 141.693 16.0676Z" fill="#023872"/>
<path d="M149.719 24.0936L146.269 27.544C145.647 28.1656 144.64 28.1656 144.018 27.544L140.568 24.0936C139.946 23.472 139.946 22.4645 140.568 21.8434L144.018 18.3929C144.64 17.7714 145.647 17.7714 146.269 18.3929L149.719 21.8434C150.341 22.4645 150.341 23.472 149.719 24.0936Z" fill="#023872"/>
<path d="M68.1569 114.021L25.6988 156.479C24.4561 157.722 22.4407 157.722 21.198 156.479L3.6073 138.888C2.36462 137.645 2.36462 135.63 3.6073 134.387L46.0654 91.9291C47.3081 90.6864 49.3235 90.6864 50.5662 91.9291L68.1569 109.52C69.3996 110.763 69.3996 112.778 68.1569 114.021Z" fill="white"/>
<path d="M20.092 137.669L16.6415 141.119C16.02 141.741 15.0125 141.741 14.3913 141.119L10.9409 137.669C10.3193 137.047 10.3193 136.04 10.9409 135.419L14.3913 131.968C15.0129 131.347 16.0204 131.347 16.6415 131.968L20.092 135.419C20.7135 136.04 20.7135 137.047 20.092 137.669Z" fill="#023872"/>
<path d="M28.1185 145.695L24.6681 149.145C24.0465 149.766 23.039 149.766 22.4179 149.145L18.9674 145.695C18.3459 145.073 18.3459 144.065 18.9674 143.444L22.4179 139.993C23.0394 139.372 24.0469 139.372 24.6681 139.993L28.1185 143.444C28.7397 144.065 28.7397 145.073 28.1185 145.695Z" fill="#023872"/>
<path d="M28.2687 129.493L24.8183 132.944C24.1967 133.565 23.1892 133.565 22.5681 132.944L19.1176 129.493C18.4961 128.872 18.4961 127.864 19.1176 127.243L22.5681 123.792C23.1896 123.171 24.1971 123.171 24.8183 123.792L28.2687 127.243C28.8899 127.864 28.8899 128.872 28.2687 129.493Z" fill="#023872"/>
<path d="M36.2951 137.519L32.8446 140.97C32.2231 141.591 31.2156 141.591 30.5945 140.97L27.144 137.519C26.5225 136.898 26.5225 135.89 27.144 135.269L30.5945 131.819C31.216 131.197 32.2235 131.197 32.8446 131.819L36.2951 135.269C36.9166 135.89 36.9166 136.898 36.2951 137.519Z" fill="#023872"/>
<path d="M36.4448 121.316L32.9943 124.766C32.3728 125.388 31.3653 125.388 30.7441 124.766L27.2937 121.316C26.6721 120.694 26.6721 119.687 27.2937 119.065L30.7441 115.615C31.3657 114.993 32.3732 114.993 32.9943 115.615L36.4448 119.065C37.0663 119.687 37.0663 120.694 36.4448 121.316Z" fill="#023872"/>
<path d="M44.471 129.342L41.0206 132.792C40.399 133.414 39.3915 133.414 38.77 132.792L35.3195 129.342C34.698 128.72 34.698 127.713 35.3195 127.091L38.77 123.641C39.3915 123.019 40.399 123.019 41.0206 123.641L44.471 127.091C45.0925 127.713 45.0925 128.72 44.471 129.342Z" fill="#023872"/>
<path d="M44.6209 113.139L41.1704 116.59C40.5489 117.211 39.5414 117.211 38.9198 116.59L35.4694 113.139C34.8479 112.518 34.8479 111.51 35.4694 110.889L38.9198 107.439C39.5414 106.817 40.5489 106.817 41.1704 107.439L44.6209 110.889C45.2424 111.51 45.2424 112.518 44.6209 113.139Z" fill="#023872"/>
<path d="M52.647 121.166L49.1965 124.617C48.575 125.238 47.5675 125.238 46.9463 124.617L43.4959 121.166C42.8743 120.545 42.8743 119.537 43.4959 118.916L46.9463 115.465C47.5679 114.844 48.5754 114.844 49.1965 115.465L52.647 118.916C53.2685 119.537 53.2685 120.545 52.647 121.166Z" fill="#023872"/>
<path d="M52.7971 104.964L49.3466 108.414C48.7251 109.036 47.7176 109.036 47.0964 108.414L43.646 104.964C43.0244 104.342 43.0244 103.335 43.646 102.713L47.0964 99.263C47.718 98.6415 48.7255 98.6415 49.3466 99.263L52.7971 102.713C53.4186 103.335 53.4186 104.342 52.7971 104.964Z" fill="#023872"/>
<path d="M60.8234 112.99L57.373 116.44C56.7514 117.062 55.7439 117.062 55.1228 116.44L51.6723 112.99C51.0508 112.368 51.0508 111.361 51.6723 110.74L55.1228 107.289C55.7443 106.668 56.7518 106.668 57.373 107.289L60.8234 110.74C61.4449 111.361 61.4449 112.368 60.8234 112.99Z" fill="#023872"/>
<path d="M139.459 102.689L103.263 138.885C101.689 140.459 99.1367 140.459 97.5622 138.885C95.9881 137.31 95.9881 134.758 97.5622 133.184L133.758 96.9875C135.333 95.413 137.885 95.413 139.459 96.9875C141.034 98.5619 141.034 101.114 139.459 102.689Z" fill="white"/>
<path d="M70.5173 89.6155L69.0371 88.1353C67.2302 86.3284 67.2302 83.3884 69.0371 81.5815L73.6058 77.0124C75.4127 75.2055 78.3527 75.2055 80.1596 77.0124L81.6399 78.4926C83.4467 80.2995 83.4467 83.2396 81.6399 85.0465L77.0708 89.6155C75.2643 91.422 72.3242 91.422 70.5173 89.6155ZM77.3833 79.7891C77.1073 79.5131 76.6585 79.5131 76.3825 79.7891L71.8134 84.3582C71.5374 84.6342 71.5374 85.083 71.8134 85.359L73.2936 86.8392C73.5697 87.1152 74.0185 87.1152 74.2945 86.8392L78.8635 82.2701C79.1396 81.9941 79.1396 81.5453 78.8635 81.2693L77.3833 79.7891Z" fill="#023872"/>
<path d="M78.5177 97.6155C77.7513 96.8487 77.7513 95.6056 78.5177 94.8392L85.4759 87.881L85.3526 87.7577C84.5858 86.9912 84.5858 85.7482 85.3526 84.9814C86.1191 84.2145 87.3621 84.2145 88.129 84.9814L89.6406 86.493C90.407 87.2594 90.407 88.5029 89.6406 89.2693L81.2944 97.6155C80.5276 98.3823 79.2845 98.3823 78.5177 97.6155Z" fill="#023872"/>
<path d="M64.3307 76.8256L58.9512 71.4461C58.1844 70.6793 58.1848 69.4366 58.9512 68.6698C59.7177 67.903 60.9607 67.903 61.7275 68.6698L67.107 74.0493C67.8738 74.8161 67.8734 76.0592 67.107 76.8256C66.3406 77.592 65.0975 77.592 64.3307 76.8256Z" fill="#023872"/>
<path d="M125.345 137.211C128.355 136.474 131.107 134.924 133.302 132.728C135.497 130.533 137.047 127.782 137.784 124.772C138.042 123.719 137.397 122.656 136.344 122.398C135.29 122.138 134.228 122.785 133.97 123.838C133.404 126.15 132.213 128.265 130.526 129.952C128.838 131.64 126.724 132.831 124.412 133.397C123.359 133.655 122.714 134.717 122.972 135.77C123.191 136.667 123.994 137.267 124.877 137.267C125.032 137.268 125.189 137.249 125.345 137.211Z" fill="#023872"/>
<path d="M124.383 130.453C124.538 130.453 124.695 130.435 124.852 130.396C126.332 130.034 127.686 129.271 128.766 128.191C129.845 127.112 130.608 125.758 130.971 124.277C131.229 123.224 130.584 122.161 129.531 121.903C128.478 121.646 127.415 122.29 127.157 123.343C126.965 124.126 126.561 124.843 125.989 125.415C125.417 125.987 124.701 126.391 123.917 126.583C122.864 126.841 122.22 127.904 122.478 128.957C122.697 129.853 123.5 130.453 124.383 130.453Z" fill="#023872"/>
<path d="M143.112 123.319C142.058 123.06 140.996 123.706 140.739 124.759C139.826 128.486 137.906 131.893 135.187 134.613C132.468 137.332 129.06 139.251 125.333 140.164C124.28 140.422 123.635 141.485 123.893 142.538C124.112 143.435 124.915 144.035 125.798 144.035C125.953 144.035 126.11 144.016 126.267 143.978C130.691 142.894 134.736 140.615 137.963 137.388C141.19 134.161 143.468 130.117 144.552 125.692C144.81 124.64 144.165 123.577 143.112 123.319Z" fill="#023872"/>
<path d="M158.441 19.2358L140.85 1.6451C138.844 -0.360865 135.579 -0.360865 133.573 1.6451L91.1153 44.1028C90.1432 45.0746 89.608 46.3668 89.608 47.7414C89.608 49.116 90.1432 50.4081 91.1149 51.3799L98.5219 58.7869L94.6785 62.6304L84.631 52.5829C80.6795 48.6319 75.2141 47.1014 70.0855 47.9821L63.1151 41.0116C61.1091 39.0057 57.8448 39.0057 55.8381 41.0116L50.1001 46.7496L47.9626 44.6121C45.9563 42.6061 42.6919 42.6061 40.6856 44.6121L36.8602 48.4379C35.888 49.4097 35.3528 50.7018 35.3528 52.0764C35.3528 53.451 35.888 54.7432 36.8598 55.715L48.943 67.7982C47.3599 73.3925 48.762 79.6616 53.1568 84.0568L63.2042 94.1042L59.3604 97.9477L51.9534 90.5403C50.9812 89.5685 49.689 89.0334 48.3148 89.0334C46.9402 89.0334 45.6481 89.5685 44.6763 90.5403L2.21935 132.999C1.24719 133.971 0.712036 135.263 0.712036 136.637C0.712036 138.012 1.24719 139.304 2.21896 140.276L19.8101 157.867C20.8133 158.87 22.1309 159.372 23.4486 159.372C24.7663 159.372 26.084 158.87 27.0871 157.867L51.4967 133.457C52.2635 132.691 52.2635 131.448 51.4967 130.681C50.7299 129.915 49.4872 129.915 48.7204 130.681L24.3112 155.091C23.8357 155.566 23.0619 155.566 22.5868 155.091L4.99566 137.5C4.76518 137.27 4.63836 136.963 4.63836 136.637C4.63836 136.311 4.76518 136.006 4.99566 135.775L47.4538 93.317C47.9143 92.8565 48.7177 92.8565 49.1782 93.3174L66.7693 110.909C66.9998 111.139 67.1263 111.445 67.1263 111.77C67.1263 112.096 66.9994 112.402 66.769 112.633L58.1601 121.241C57.3933 122.008 57.3933 123.251 58.1601 124.018C58.9269 124.784 60.1696 124.784 60.9364 124.018L69.5453 115.409C70.5174 114.437 71.0522 113.145 71.0522 111.77C71.0522 110.396 70.517 109.104 69.5453 108.132L62.1379 100.724L65.9817 96.8805L83.1406 114.039C84.3715 115.27 86.0083 115.948 87.7489 115.948C89.2299 115.948 90.6332 115.453 91.7777 114.549C91.5959 115.832 91.5013 117.136 91.5013 118.455C91.5013 123.547 92.8818 128.423 95.4535 132.669C94.7821 133.654 94.4189 134.816 94.4189 136.034C94.4189 137.635 95.0424 139.141 96.1748 140.273C97.3433 141.441 98.8784 142.025 100.413 142.025C101.948 142.025 103.483 141.441 104.652 140.273L140.848 104.077C143.185 101.74 143.185 97.9367 140.848 95.5998C139.716 94.4674 138.21 93.8439 136.609 93.8439C135.391 93.8439 134.229 94.2071 133.243 94.8789C128.997 92.3076 124.121 90.9263 119.03 90.9263C117.711 90.9263 116.406 91.0201 115.123 91.2027C116.028 90.0582 116.523 88.6549 116.523 87.1739C116.523 85.433 115.844 83.7965 114.614 82.5656L97.4552 65.4071L101.299 61.5636L108.706 68.9706C109.678 69.9424 110.97 70.4776 112.344 70.4776C113.719 70.4776 115.011 69.9424 115.983 68.9706L158.441 26.5125C160.447 24.5065 160.447 21.2418 158.441 19.2358ZM58.6144 43.7879C59.0898 43.3125 59.8637 43.3125 60.3388 43.7879L65.8569 49.306C64.1678 50.0983 62.5855 51.1899 61.192 52.5829L58.5629 55.212L52.8768 49.5259L58.6144 43.7879ZM39.6369 52.9387C39.4064 52.7086 39.2796 52.4023 39.2796 52.0764C39.2796 51.7505 39.4064 51.4447 39.6369 51.2142L43.4623 47.3884C43.6998 47.1508 44.012 47.0319 44.3245 47.0319C44.637 47.0319 44.9488 47.1508 45.1867 47.3884L55.7866 57.9883L53.1576 60.6174C52.1497 61.6253 51.2988 62.7321 50.6054 63.9068L39.6369 52.9387ZM130.272 97.6988L126.943 101.028C126.176 101.794 126.176 103.037 126.943 103.804C127.71 104.57 128.953 104.57 129.719 103.804L135.147 98.3761C135.537 97.9854 136.056 97.7703 136.609 97.7703C137.161 97.7703 137.681 97.9854 138.071 98.3761C138.877 99.1826 138.878 100.495 138.071 101.301L101.875 137.497C101.069 138.303 99.7572 138.303 98.9507 137.497C98.1442 136.691 98.1442 135.379 98.9507 134.573L120.28 113.244C121.046 112.477 121.046 111.234 120.28 110.467C119.513 109.701 118.27 109.701 117.503 110.467L98.2734 129.697C96.4182 126.285 95.4272 122.448 95.4272 118.455C95.4272 115.145 96.1104 111.942 97.3982 108.998L109.572 96.824C112.516 95.5358 115.719 94.8526 119.03 94.8526C123.022 94.853 126.86 95.844 130.272 97.6988ZM111.837 89.0063L89.5809 111.263C88.5711 112.273 86.9267 112.273 85.9169 111.263L55.9343 81.2801C51.0032 76.349 51.0032 68.3251 55.9343 63.3941L63.9687 55.3596C66.4344 52.8939 69.6725 51.6614 72.9117 51.6614C76.1497 51.6614 79.3893 52.8947 81.8547 55.3596L111.837 85.3423C112.848 86.3525 112.848 87.9965 111.837 89.0063ZM155.665 23.7362L113.206 66.1947C112.746 66.6553 111.943 66.6553 111.482 66.1943L93.8912 48.6036C93.6608 48.3735 93.5339 48.0673 93.5339 47.7414C93.5339 47.4155 93.6608 47.1096 93.8912 46.8791L136.349 4.4214C136.587 4.18386 136.899 4.06489 137.212 4.06489C137.524 4.06489 137.836 4.18386 138.074 4.4214L155.665 22.0121C156.14 22.4876 156.14 23.2611 155.665 23.7362Z" fill="#023872"/>
<path d="M101.152 88.6861C100.365 87.8989 100.365 86.6228 101.152 85.836L102.15 84.8383C102.937 84.0515 104.213 84.0511 105 84.8383C105.787 85.6255 105.787 86.9016 105 87.6884L104.002 88.6861C103.215 89.473 101.939 89.4733 101.152 88.6861Z" fill="#023872"/>
<path d="M7.69312 81.9398C7.19055 81.9398 6.68837 81.7482 6.30477 81.365L1.98581 77.0461C1.219 76.2793 1.219 75.0362 1.98581 74.2698L6.30477 69.9508C7.07158 69.1844 8.31427 69.1844 9.08108 69.9508L13.4 74.2698C14.1668 75.0366 14.1668 76.2796 13.4 77.0461L9.08108 81.365C8.69787 81.7482 8.19569 81.9398 7.69312 81.9398ZM6.15047 75.6577L7.69312 77.2L9.23577 75.6573L7.69312 74.1151L6.15047 75.6577Z" fill="#023872"/>
<path d="M79.1578 34.3275C78.6552 34.3275 78.153 34.1359 77.7694 33.7527L73.4505 29.4337C72.6837 28.6669 72.6837 27.4239 73.4505 26.6574L77.7694 22.3385C78.5363 21.5721 79.7789 21.5721 80.5458 22.3385L84.8647 26.6574C85.6315 27.4243 85.6315 28.6673 84.8647 29.4337L80.5458 33.7527C80.1625 34.1359 79.6604 34.3275 79.1578 34.3275ZM77.6151 28.0454L79.1578 29.588L80.7005 28.0454L79.1578 26.5027L77.6151 28.0454Z" fill="#023872"/>
<path d="M105.59 159.987C105.088 159.987 104.585 159.795 104.202 159.412L99.8828 155.093C99.116 154.326 99.116 153.083 99.8828 152.317L104.202 147.998C104.969 147.231 106.211 147.231 106.978 147.998L111.297 152.317C112.064 153.083 112.064 154.327 111.297 155.093L106.978 159.412C106.595 159.795 106.093 159.987 105.59 159.987ZM104.048 153.705L105.591 155.247L107.133 153.705L105.591 152.162L104.048 153.705Z" fill="#023872"/>
<path d="M56.2479 28.0773C53.4308 28.0773 51.139 25.7855 51.139 22.9683C51.139 20.1512 53.4308 17.8594 56.2479 17.8594C59.065 17.8594 61.3568 20.1512 61.3568 22.9683C61.3564 25.7855 59.0646 28.0773 56.2479 28.0773ZM56.2479 21.7861C55.5957 21.7861 55.0653 22.3165 55.0653 22.9687C55.0653 23.6209 55.5957 24.1513 56.2479 24.1513C56.9001 24.1513 57.4305 23.6209 57.4305 22.9687C57.4301 22.3165 56.8997 21.7861 56.2479 21.7861Z" fill="#023872"/>
<path d="M140.048 82.378C137.23 82.378 134.939 80.0862 134.939 77.2691C134.939 74.4519 137.23 72.1602 140.048 72.1602C142.865 72.1602 145.156 74.4519 145.156 77.2691C145.156 80.0862 142.864 82.378 140.048 82.378ZM140.048 76.0869C139.395 76.0869 138.865 76.6173 138.865 77.2695C138.865 77.9216 139.395 78.4521 140.048 78.4521C140.7 78.4521 141.23 77.9216 141.23 77.2695C141.23 76.6173 140.699 76.0869 140.048 76.0869Z" fill="#023872"/>
</svg>
