<svg width="155" height="155" viewBox="0 0 155 155" fill="none" xmlns="http://www.w3.org/2000/svg">
<path d="M109.515 26.1973H108.607V25.2891C108.607 24.4529 107.93 23.7754 107.093 23.7754C106.257 23.7754 105.58 24.4529 105.58 25.2891V26.1973H104.672C103.835 26.1973 103.158 26.8748 103.158 27.7109C103.158 28.5471 103.835 29.2246 104.672 29.2246H105.58V30.1328C105.58 30.969 106.257 31.6465 107.093 31.6465C107.93 31.6465 108.607 30.969 108.607 30.1328V29.2246H109.515C110.351 29.2246 111.029 28.5471 111.029 27.7109C111.029 26.8748 110.351 26.1973 109.515 26.1973Z" fill="white"/>
<path d="M117.706 138.609H116.798V137.701C116.798 136.865 116.12 136.188 115.284 136.188C114.448 136.188 113.771 136.865 113.771 137.701V138.609H112.862C112.026 138.609 111.349 139.287 111.349 140.123C111.349 140.959 112.026 141.637 112.862 141.637H113.771V142.545C113.771 143.381 114.448 144.059 115.284 144.059C116.12 144.059 116.798 143.381 116.798 142.545V141.637H117.706C118.542 141.637 119.22 140.959 119.22 140.123C119.22 139.287 118.542 138.609 117.706 138.609Z" fill="white"/>
<path d="M117.706 23.0693C117.319 23.0693 116.931 22.9215 116.636 22.6258L115.284 21.2743L113.933 22.6258C113.342 23.217 112.383 23.217 111.792 22.6258C111.201 22.0348 111.201 21.0764 111.792 20.4854L114.214 18.0635C114.805 17.4723 115.764 17.4723 116.354 18.0635L118.776 20.4854C119.368 21.0764 119.368 22.0348 118.776 22.6258C118.481 22.9215 118.093 23.0693 117.706 23.0693Z" fill="white"/>
<path d="M42.6099 144.059C42.2227 144.059 41.8349 143.911 41.5397 143.615L40.188 142.264L38.8363 143.615C38.2456 144.206 37.2866 144.206 36.6959 143.615C36.1047 143.024 36.1047 142.066 36.6959 141.475L39.1178 139.053C39.7084 138.462 40.6675 138.462 41.2581 139.053L43.68 141.475C44.2713 142.066 44.2713 143.024 43.68 143.615C43.3849 143.911 42.9971 144.059 42.6099 144.059Z" fill="white"/>
<path d="M57.7211 141.637C57.3339 141.637 56.9461 141.489 56.651 141.193L55.2992 139.842L53.9475 141.193C53.3569 141.784 52.3978 141.784 51.8072 141.193C51.216 140.602 51.216 139.644 51.8072 139.053L54.2291 136.631C54.8197 136.04 55.7788 136.04 56.3694 136.631L58.7913 139.053C59.3825 139.644 59.3825 140.602 58.7913 141.193C58.4961 141.489 58.1083 141.637 57.7211 141.637Z" fill="white"/>
<path opacity="0.1" d="M145.915 122.654V130.286C145.915 131.957 144.562 133.314 142.888 133.314H12.1124C10.4383 133.314 9.08508 131.957 9.08508 130.286V122.654C9.08508 120.983 10.4383 119.627 12.1124 119.627H53.2858C53.7251 119.627 54.1429 119.818 54.4302 120.15L58.3279 124.652H96.6722L100.57 120.15C100.857 119.818 101.275 119.627 101.714 119.627H142.888C144.562 119.627 145.915 120.983 145.915 122.654Z" fill="#FF9900"/>
<path d="M136.848 43.0196V118.621H18.152V43.0196C18.152 40.1406 20.483 37.8096 23.362 37.8096H131.638C134.517 37.8096 136.848 40.1406 136.848 43.0196Z" fill="black"/>
<path d="M145.915 114.48V122.112C145.915 123.783 144.562 125.14 142.888 125.14H12.1124C10.4383 125.14 9.08508 123.783 9.08508 122.112V114.48C9.08508 112.809 10.4383 111.453 12.1124 111.453H53.2858C53.7251 111.453 54.1429 111.644 54.4302 111.976L58.3279 116.479H96.6722L100.57 111.976C100.857 111.644 101.275 111.453 101.714 111.453H142.888C144.562 111.453 145.915 112.809 145.915 114.48Z" fill="white"/>
<path d="M133.336 107.999H21.6635C20.7449 107.999 20 107.216 20 106.25V41.7477C20 40.7821 20.7449 39.999 21.6635 39.999H133.336C134.255 39.999 135 40.7821 135 41.7477V106.25C135 107.216 134.255 107.999 133.336 107.999Z" fill="white"/>
<path d="M129.822 81.7998V102.682C129.822 103.518 129.143 104.196 128.308 104.196H26.6921C25.8565 104.196 25.1784 103.518 25.1784 102.682V81.7998H129.822Z" fill="white"/>
<path d="M46.0093 78.3506H33.7425C32.9063 78.3506 32.2288 77.6728 32.2288 76.8369C32.2288 76.0011 32.9063 75.3232 33.7425 75.3232H46.0093C46.8455 75.3232 47.523 76.0011 47.523 76.8369C47.523 77.6728 46.8452 78.3506 46.0093 78.3506Z" fill="black"/>
<path d="M54.1831 88.7207H33.7425C32.9063 88.7207 32.2288 88.0429 32.2288 87.207C32.2288 86.3712 32.9063 85.6934 33.7425 85.6934H54.1831C55.0193 85.6934 55.6968 86.3712 55.6968 87.207C55.6968 88.0429 55.019 88.7207 54.1831 88.7207Z" fill="black"/>
<path d="M54.1831 94.0195H33.7425C32.9063 94.0195 32.2288 93.3417 32.2288 92.5059C32.2288 91.67 32.9063 90.9922 33.7425 90.9922H54.1831C55.0193 90.9922 55.6968 91.67 55.6968 92.5059C55.6968 93.3417 55.019 94.0195 54.1831 94.0195Z" fill="black"/>
<path d="M34.2108 72.8857C35.0468 72.8857 35.7245 72.208 35.7245 71.3721C35.7245 70.5361 35.0468 69.8584 34.2108 69.8584C33.3748 69.8584 32.6971 70.5361 32.6971 71.3721C32.6971 72.208 33.3748 72.8857 34.2108 72.8857Z" fill="black"/>
<path d="M39.1303 72.8857C39.9662 72.8857 40.6439 72.208 40.6439 71.3721C40.6439 70.5361 39.9662 69.8584 39.1303 69.8584C38.2943 69.8584 37.6166 70.5361 37.6166 71.3721C37.6166 72.208 38.2943 72.8857 39.1303 72.8857Z" fill="black"/>
<path d="M77.1909 19.8859C65.1942 20.053 55.5427 30.0887 55.8239 42.0833C55.939 46.991 57.6845 51.4947 60.5402 55.0746C64.8185 60.4381 67.3463 66.9702 67.6657 73.7935H87.334C87.6537 66.9684 90.1852 60.436 94.4634 55.0697C97.4169 51.3652 99.1819 46.6716 99.1819 41.5657C99.1822 29.4884 89.3073 19.7173 77.1909 19.8859Z" fill="white"/>
<path d="M73.6023 75.309C72.7662 75.309 72.0887 74.6315 72.0887 73.7954V59.269L70.3374 57.5174C69.7461 56.9264 69.7461 55.968 70.3374 55.377C70.928 54.7858 71.8871 54.7858 72.4777 55.377L74.6725 57.5718C74.9565 57.8558 75.116 58.2406 75.116 58.642V73.7957C75.116 74.6312 74.4385 75.309 73.6023 75.309Z" fill="black"/>
<path d="M81.3978 75.3084C80.5616 75.3084 79.8841 74.6309 79.8841 73.7947V58.641C79.8841 58.2396 80.0433 57.8545 80.3276 57.5709L82.5224 55.376C83.1131 54.7848 84.0721 54.7848 84.6627 55.376C85.254 55.967 85.254 56.9254 84.6627 57.5164L82.9114 59.268V73.7944C82.9114 74.6306 82.2339 75.3084 81.3978 75.3084Z" fill="black"/>
<path d="M88.4069 91.6719H66.5934C65.7575 91.6719 65.0797 90.9941 65.0797 90.1582V75.3076C65.0797 74.4718 65.7575 73.7939 66.5934 73.7939H88.4069C89.2428 73.7939 89.9206 74.4718 89.9206 75.3076V90.1582C89.9206 90.9944 89.2428 91.6719 88.4069 91.6719Z" fill="white"/>
<path d="M86.5485 91.6719C86.5485 96.6691 82.4973 100.72 77.5 100.72C72.5028 100.72 68.4516 96.6691 68.4516 91.6719H86.5485Z" fill="white"/>
<path d="M140.417 89.5064H108.607C107.771 89.5064 107.094 88.8286 107.094 87.9927V59.5947C107.094 58.7589 107.771 58.0811 108.607 58.0811H140.417C141.253 58.0811 141.93 58.7589 141.93 59.5947V87.9927C141.93 88.8289 141.253 89.5064 140.417 89.5064Z" fill="black"/>
<path d="M141.93 66.766V59.5957C141.93 58.7599 141.253 58.082 140.417 58.082H108.607C107.771 58.082 107.094 58.7599 107.094 59.5957V66.766H141.93Z" fill="white"/>
<path d="M142.888 109.939H138.363V91.0203H140.417C142.086 91.0203 143.444 89.6623 143.444 87.993V59.595C143.444 57.9257 142.086 56.5677 140.417 56.5677H138.363V43.0191C138.363 39.3115 135.347 36.2954 131.639 36.2954H100.092C99.1134 32.0607 96.9616 28.1806 93.7868 25.05C89.3324 20.6567 83.4445 18.2775 77.17 18.3729C70.9661 18.4592 65.16 20.9873 60.8212 25.4914C57.865 28.5602 55.8524 32.2766 54.9124 36.2954H23.3608C19.6532 36.2954 16.6371 39.3115 16.6371 43.0191V94.121C16.6371 94.9571 17.3146 95.6346 18.1508 95.6346C18.9869 95.6346 19.6644 94.9571 19.6644 94.121V43.0191C19.6644 40.9811 21.3228 39.3227 23.3608 39.3227H54.4189C54.3296 40.2457 54.2885 41.1782 54.3106 42.1191C54.4305 47.2235 56.1751 52.0297 59.3565 56.0188C63.1722 60.8017 65.4624 66.4138 66.0388 72.3335C64.6338 72.595 63.5658 73.8281 63.5658 75.3075V77.8075C62.9291 77.9864 62.4599 78.5646 62.4599 79.2585C62.4599 79.9524 62.9294 80.5306 63.5658 80.7095V84.1831C62.9291 84.362 62.4599 84.9402 62.4599 85.6341C62.4599 86.328 62.9294 86.9062 63.5658 87.0851V90.1582C63.5658 91.8274 64.9238 93.1855 66.5931 93.1855H67.0478C67.7847 98.2951 72.1904 102.234 77.5 102.234C82.8097 102.234 87.2154 98.2951 87.9519 93.1858H88.4066C90.0759 93.1858 91.434 91.8277 91.434 90.1585V87.0854C92.0706 86.9065 92.5399 86.3283 92.5399 85.6344C92.5399 84.9405 92.0703 84.3623 91.434 84.1834V80.7098C92.0706 80.5309 92.5399 79.9527 92.5399 79.2588C92.5399 78.5649 92.0703 77.9867 91.434 77.8078V75.3078C91.434 73.8284 90.3659 72.5953 88.9612 72.3338C89.538 66.4168 91.8297 60.8026 95.6468 56.0143C98.95 51.871 100.696 46.8753 100.696 41.5663C100.696 40.8122 100.658 40.0638 100.588 39.323H131.639C133.677 39.323 135.336 40.9814 135.336 43.0194V56.568H108.607C106.938 56.568 105.58 57.926 105.58 59.5953V87.9933C105.58 89.6626 106.938 91.0207 108.607 91.0207H121.81C122.646 91.0207 123.324 90.3431 123.324 89.507C123.324 88.6708 122.646 87.9933 121.81 87.9933H108.607V59.5953H140.417V87.9933H131.074C130.238 87.9933 129.56 88.6708 129.56 89.507C129.56 90.3431 130.238 91.0207 131.074 91.0207H135.336V109.939H101.714C100.835 109.939 100 110.321 99.425 110.985L95.9801 114.965H59.0193L55.5745 110.985C54.9993 110.321 54.1647 109.939 53.2852 109.939H19.6644V103.385C19.6644 102.548 18.9869 101.871 18.1508 101.871C17.3146 101.871 16.6371 102.548 16.6371 103.385V109.939H12.1124C9.60851 109.939 7.57141 111.976 7.57141 114.48V122.112C7.57141 124.616 9.60851 126.653 12.1124 126.653H142.888C145.392 126.653 147.429 124.616 147.429 122.112V114.48C147.429 111.976 145.392 109.939 142.888 109.939ZM88.4066 75.3078L88.4069 77.7451H66.5931V75.3078H67.6657H87.334H88.4066ZM88.4075 80.7722L88.4078 84.1207H66.5931V80.7722H88.4075ZM77.5 99.2069C73.8636 99.2069 70.8208 96.6176 70.1181 93.1858H84.8819C84.1793 96.6176 81.1365 99.2069 77.5 99.2069ZM86.5485 90.1585H68.4519H66.5934V87.1481H88.4084L88.4088 90.1585H86.5485ZM93.2797 54.1267C89.043 59.4418 86.5145 65.6909 85.9209 72.2805H69.0792C68.4858 65.6881 65.9586 59.4409 61.7233 54.1313C58.9578 50.664 57.4408 46.486 57.3373 42.0485C57.2105 36.649 59.2224 31.5149 63.0015 27.5917C66.7754 23.6741 71.8222 21.475 77.2118 21.3999C82.6571 21.3327 87.7875 23.3862 91.6607 27.2058C95.5348 31.026 97.6685 36.1261 97.6685 41.5666C97.6685 46.1821 96.1509 50.5254 93.2797 54.1267ZM144.401 122.112C144.401 122.946 143.722 123.625 142.888 123.625H12.1124C11.2778 123.625 10.5988 122.946 10.5988 122.112V114.48C10.5988 113.645 11.2778 112.966 12.1124 112.966H53.2861L57.1835 117.468C57.4708 117.801 57.8886 117.992 58.3279 117.992H96.6722C97.1115 117.992 97.5292 117.801 97.8165 117.468L101.714 112.966H142.888C143.722 112.966 144.401 113.645 144.401 114.48V122.112Z" fill="black"/>
<path d="M120.451 73.2915V80.6531C120.451 81.3542 121.212 81.7907 121.818 81.4374L128.122 77.7565C128.722 77.4059 128.722 76.5383 128.122 76.1877L121.818 72.5068C121.212 72.1538 120.451 72.5907 120.451 73.2915Z" fill="white"/>
<path d="M112.963 64.3936C113.548 64.3936 114.023 63.9192 114.023 63.334C114.023 62.7488 113.548 62.2744 112.963 62.2744C112.378 62.2744 111.904 62.7488 111.904 63.334C111.904 63.9192 112.378 64.3936 112.963 64.3936Z" fill="black"/>
<path d="M116.344 64.3936C116.929 64.3936 117.403 63.9192 117.403 63.334C117.403 62.7488 116.929 62.2744 116.344 62.2744C115.759 62.2744 115.284 62.7488 115.284 63.334C115.284 63.9192 115.759 64.3936 116.344 64.3936Z" fill="black"/>
<path d="M119.724 64.3936C120.309 64.3936 120.784 63.9192 120.784 63.334C120.784 62.7488 120.309 62.2744 119.724 62.2744C119.139 62.2744 118.665 62.7488 118.665 63.334C118.665 63.9192 119.139 64.3936 119.724 64.3936Z" fill="black"/>
</svg>
