<svg width="141" height="128" viewBox="0 0 141 128" fill="none" xmlns="http://www.w3.org/2000/svg">
<path d="M102.515 9.19824H101.607V8.29004C101.607 7.45389 100.93 6.77637 100.094 6.77637C99.2574 6.77637 98.5798 7.45389 98.5798 8.29004V9.19824H97.6716C96.8355 9.19824 96.158 9.87576 96.158 10.7119C96.158 11.5481 96.8355 12.2256 97.6716 12.2256H98.5798V13.1338C98.5798 13.9699 99.2574 14.6475 100.094 14.6475C100.93 14.6475 101.607 13.9699 101.607 13.1338V12.2256H102.515C103.352 12.2256 104.029 11.5481 104.029 10.7119C104.029 9.87576 103.352 9.19824 102.515 9.19824Z" fill="#023872"/>
<path d="M110.706 121.61H109.798V120.702C109.798 119.866 109.12 119.188 108.284 119.188C107.448 119.188 106.771 119.866 106.771 120.702V121.61H105.862C105.026 121.61 104.349 122.288 104.349 123.124C104.349 123.96 105.026 124.638 105.862 124.638H106.771V125.546C106.771 126.382 107.448 127.06 108.284 127.06C109.12 127.06 109.798 126.382 109.798 125.546V124.638H110.706C111.542 124.638 112.22 123.96 112.22 123.124C112.22 122.288 111.542 121.61 110.706 121.61Z" fill="#023872"/>
<path d="M110.706 6.07024C110.319 6.07024 109.931 5.9225 109.636 5.62673L108.284 4.27532L106.933 5.62673C106.342 6.21797 105.383 6.21797 104.792 5.62673C104.201 5.03579 104.201 4.07734 104.792 3.4864L107.214 1.06452C107.805 0.473284 108.764 0.473284 109.355 1.06452L111.776 3.4864C112.368 4.07734 112.368 5.03579 111.776 5.62673C111.481 5.9225 111.093 6.07024 110.706 6.07024Z" fill="#023872"/>
<path d="M35.6099 127.059C35.2227 127.059 34.8349 126.912 34.5397 126.616L33.188 125.265L31.8363 126.616C31.2457 127.207 30.2866 127.207 29.696 126.616C29.1048 126.025 29.1048 125.067 29.696 124.476L32.1179 122.054C32.7085 121.463 33.6676 121.463 34.2582 122.054L36.6801 124.476C37.2713 125.067 37.2713 126.025 36.6801 126.616C36.3849 126.912 35.9971 127.059 35.6099 127.059Z" fill="#023872"/>
<path d="M50.7212 124.638C50.3341 124.638 49.9462 124.49 49.6511 124.194L48.2994 122.843L46.9477 124.194C46.357 124.785 45.398 124.785 44.8073 124.194C44.2161 123.603 44.2161 122.645 44.8073 122.054L47.2292 119.632C47.8198 119.041 48.7789 119.041 49.3695 119.632L51.7914 122.054C52.3827 122.645 52.3827 123.603 51.7914 124.194C51.4963 124.49 51.1084 124.638 50.7212 124.638Z" fill="#023872"/>
<path opacity="0.1" d="M138.915 105.655V113.287C138.915 114.958 137.562 116.315 135.888 116.315H5.11243C3.43831 116.315 2.08508 114.958 2.08508 113.287V105.655C2.08508 103.984 3.43831 102.628 5.11243 102.628H46.2858C46.7251 102.628 47.1429 102.819 47.4302 103.151L51.3279 107.653H89.6722L93.5699 103.151C93.8575 102.819 94.275 102.628 94.7142 102.628H135.888C137.562 102.628 138.915 103.984 138.915 105.655Z" fill="#023872"/>
<path d="M129.848 26.0206V101.622H11.152V26.0206C11.152 23.1416 13.483 20.8105 16.362 20.8105H124.638C127.517 20.8105 129.848 23.1416 129.848 26.0206Z" fill="#023872"/>
<path d="M138.915 97.4814V105.113C138.915 106.784 137.562 108.141 135.888 108.141H5.11243C3.43831 108.141 2.08508 106.784 2.08508 105.113V97.4814C2.08508 95.8104 3.43831 94.4541 5.11243 94.4541H46.2858C46.7251 94.4541 47.1429 94.6448 47.4302 94.9772L51.3279 99.4795H89.6722L93.5699 94.9772C93.8575 94.6451 94.275 94.4541 94.7142 94.4541H135.888C137.562 94.4541 138.915 95.8104 138.915 97.4814Z" fill="white"/>
<path d="M121.307 87.1962H19.6927C18.8569 87.1962 18.1791 86.5184 18.1791 85.6825V29.8486C18.1791 29.0128 18.8569 28.335 19.6927 28.335H121.307C122.143 28.335 122.821 29.0128 122.821 29.8486V85.6825C122.821 86.5184 122.144 87.1962 121.307 87.1962Z" fill="white"/>
<path d="M122.822 64.8008V85.6834C122.822 86.519 122.144 87.1971 121.308 87.1971H19.6921C18.8566 87.1971 18.1785 86.519 18.1785 85.6834V64.8008H122.822Z" fill="white"/>
<path d="M39.0094 61.3516H26.7426C25.9064 61.3516 25.2289 60.6737 25.2289 59.8379C25.2289 59.002 25.9064 58.3242 26.7426 58.3242H39.0094C39.8455 58.3242 40.523 59.002 40.523 59.8379C40.523 60.6737 39.8452 61.3516 39.0094 61.3516Z" fill="#023872"/>
<path d="M47.1832 71.7217H26.7426C25.9064 71.7217 25.2289 71.0439 25.2289 70.208C25.2289 69.3722 25.9064 68.6943 26.7426 68.6943H47.1832C48.0193 68.6943 48.6969 69.3722 48.6969 70.208C48.6969 71.0439 48.019 71.7217 47.1832 71.7217Z" fill="#023872"/>
<path d="M47.1832 77.0205H26.7426C25.9064 77.0205 25.2289 76.3427 25.2289 75.5068C25.2289 74.671 25.9064 73.9932 26.7426 73.9932H47.1832C48.0193 73.9932 48.6969 74.671 48.6969 75.5068C48.6969 76.3427 48.019 77.0205 47.1832 77.0205Z" fill="#023872"/>
<path d="M27.2109 55.8867C28.0469 55.8867 28.7246 55.209 28.7246 54.373C28.7246 53.5371 28.0469 52.8594 27.2109 52.8594C26.375 52.8594 25.6973 53.5371 25.6973 54.373C25.6973 55.209 26.375 55.8867 27.2109 55.8867Z" fill="#023872"/>
<path d="M32.1304 55.8867C32.9664 55.8867 33.6441 55.209 33.6441 54.373C33.6441 53.5371 32.9664 52.8594 32.1304 52.8594C31.2944 52.8594 30.6167 53.5371 30.6167 54.373C30.6167 55.209 31.2944 55.8867 32.1304 55.8867Z" fill="#023872"/>
<path d="M70.191 2.88692C58.1942 3.05403 48.5427 13.0897 48.824 25.0843C48.939 29.9919 50.6846 34.4957 53.5403 38.0756C57.8185 43.4391 60.3464 49.9712 60.6657 56.7945H80.3341C80.6538 49.9694 83.1853 43.437 87.4635 38.0707C90.417 34.3661 92.1819 29.6726 92.1819 24.5666C92.1822 12.4893 82.3073 2.71829 70.191 2.88692Z" fill="white"/>
<path d="M66.6023 58.31C65.7662 58.31 65.0887 57.6325 65.0887 56.7963V42.27L63.3374 40.5183C62.7461 39.9274 62.7461 38.9689 63.3374 38.378C63.928 37.7868 64.8871 37.7868 65.4777 38.378L67.6725 40.5728C67.9565 40.8568 68.116 41.2416 68.116 41.643V56.7966C68.116 57.6322 67.4385 58.31 66.6023 58.31Z" fill="#023872"/>
<path d="M74.3977 58.3094C73.5616 58.3094 72.884 57.6318 72.884 56.7957V41.642C72.884 41.2406 73.0433 40.8555 73.3275 40.5718L75.5224 38.377C76.113 37.7858 77.0721 37.7858 77.6627 38.377C78.2539 38.968 78.2539 39.9264 77.6627 40.5174L75.9114 42.269V56.7954C75.9114 57.6315 75.2339 58.3094 74.3977 58.3094Z" fill="#023872"/>
<path d="M81.4069 74.6729H59.5934C58.7575 74.6729 58.0797 73.9951 58.0797 73.1592V58.3086C58.0797 57.4727 58.7575 56.7949 59.5934 56.7949H81.4069C82.2428 56.7949 82.9206 57.4727 82.9206 58.3086V73.1592C82.9206 73.9954 82.2428 74.6729 81.4069 74.6729Z" fill="white"/>
<path d="M79.5485 74.6729C79.5485 79.6701 75.4973 83.7213 70.5001 83.7213C65.5029 83.7213 61.4517 79.6701 61.4517 74.6729H79.5485Z" fill="white"/>
<path d="M133.417 72.5074H101.607C100.771 72.5074 100.094 71.8296 100.094 70.9937V42.5957C100.094 41.7599 100.771 41.082 101.607 41.082H133.417C134.253 41.082 134.93 41.7599 134.93 42.5957V70.9937C134.93 71.8299 134.253 72.5074 133.417 72.5074Z" fill="#023872"/>
<path d="M134.93 49.7669V42.5967C134.93 41.7608 134.253 41.083 133.417 41.083H101.607C100.771 41.083 100.094 41.7608 100.094 42.5967V49.7669H134.93Z" fill="white"/>
<path d="M135.888 92.9398H131.363V74.0213H133.417C135.086 74.0213 136.444 72.6633 136.444 70.994V42.596C136.444 40.9267 135.086 39.5686 133.417 39.5686H131.363V26.0201C131.363 22.3125 128.347 19.2963 124.639 19.2963H93.0919C92.1134 15.0617 89.9616 11.1815 86.7868 8.05096C82.3324 3.65768 76.4445 1.27849 70.17 1.37385C63.9661 1.46013 58.16 3.98827 53.8212 8.49235C50.865 11.5612 48.8524 15.2775 47.9124 19.2963H16.3608C12.6532 19.2963 9.6371 22.3125 9.6371 26.0201V77.1219C9.6371 77.9581 10.3146 78.6356 11.1508 78.6356C11.9869 78.6356 12.6644 77.9581 12.6644 77.1219V26.0201C12.6644 23.9821 14.3228 22.3237 16.3608 22.3237H47.4189C47.3296 23.2467 47.2885 24.1791 47.3106 25.12C47.4305 30.2244 49.1751 35.0307 52.3565 39.0198C56.1722 43.8027 58.4624 49.4148 59.0388 55.3344C57.6338 55.596 56.5658 56.829 56.5658 58.3085V60.8085C55.9291 60.9874 55.4599 61.5656 55.4599 62.2595C55.4599 62.9534 55.9294 63.5316 56.5658 63.7105V67.1841C55.9291 67.363 55.4599 67.9412 55.4599 68.6351C55.4599 69.3289 55.9294 69.9072 56.5658 70.0861V73.1591C56.5658 74.8284 57.9238 76.1865 59.5931 76.1865H60.0478C60.7847 81.296 65.1904 85.2352 70.5 85.2352C75.8097 85.2352 80.2154 81.296 80.9519 76.1868H81.4066C83.0759 76.1868 84.434 74.8287 84.434 73.1594V70.0864C85.0706 69.9075 85.5399 69.3292 85.5399 68.6354C85.5399 67.9415 85.0703 67.3633 84.434 67.1844V63.7108C85.0706 63.5319 85.5399 62.9537 85.5399 62.2598C85.5399 61.5659 85.0703 60.9877 84.434 60.8088V58.3088C84.434 56.8293 83.3659 55.5963 81.9612 55.3347C82.538 49.4178 84.8297 43.8036 88.6468 39.0152C91.95 34.872 93.6958 29.8763 93.6958 24.5672C93.6958 23.8131 93.6583 23.0648 93.5878 22.324H124.639C126.677 22.324 128.336 23.9824 128.336 26.0204V39.5689H101.607C99.9379 39.5689 98.5798 40.927 98.5798 42.5963V70.9943C98.5798 72.6636 99.9379 74.0216 101.607 74.0216H114.81C115.646 74.0216 116.324 73.3441 116.324 72.508C116.324 71.6718 115.646 70.9943 114.81 70.9943H101.607V42.5963H133.417V70.9943H124.074C123.238 70.9943 122.56 71.6718 122.56 72.508C122.56 73.3441 123.238 74.0216 124.074 74.0216H128.336V92.9401H94.7142C93.8351 92.9401 93.0005 93.3216 92.425 93.9861L88.9801 97.9655H52.0193L48.5745 93.9861C47.9993 93.3216 47.1647 92.9401 46.2852 92.9401H12.6644V86.3856C12.6644 85.5494 11.9869 84.8719 11.1508 84.8719C10.3146 84.8719 9.6371 85.5494 9.6371 86.3856V92.9398H5.11243C2.60851 92.9398 0.571411 94.9769 0.571411 97.4808V105.113C0.571411 107.617 2.60851 109.654 5.11243 109.654H135.888C138.392 109.654 140.429 107.617 140.429 105.113V97.4808C140.429 94.9769 138.392 92.9398 135.888 92.9398ZM81.4066 58.3088L81.4069 60.7461H59.5931V58.3088H60.6657H80.334H81.4066ZM81.4075 63.7732L81.4078 67.1217H59.5931V63.7732H81.4075ZM70.5 82.2079C66.8636 82.2079 63.8208 79.6186 63.1181 76.1868H77.8819C77.1793 79.6186 74.1365 82.2079 70.5 82.2079ZM79.5485 73.1594H61.4519H59.5934V70.149H81.4084L81.4088 73.1594H79.5485ZM86.2797 37.1277C82.043 42.4428 79.5145 48.6918 78.9209 55.2815H62.0792C61.4858 48.6891 58.9586 42.4419 54.7233 37.1322C51.9578 33.665 50.4408 29.487 50.3373 25.0495C50.2105 19.6499 52.2224 14.5159 56.0015 10.5927C59.7754 6.67504 64.8222 4.47597 70.2118 4.40089C75.6571 4.33369 80.7875 6.38714 84.6607 10.2067C88.5348 14.0269 90.6685 19.1271 90.6685 24.5675C90.6685 29.183 89.1509 33.5264 86.2797 37.1277ZM137.401 105.113C137.401 105.947 136.722 106.626 135.888 106.626H5.11243C4.27779 106.626 3.59875 105.947 3.59875 105.113V97.4808C3.59875 96.6462 4.27779 95.9671 5.11243 95.9671H46.2861L50.1835 100.469C50.4708 100.802 50.8886 100.993 51.3279 100.993H89.6722C90.1115 100.993 90.5292 100.802 90.8165 100.469L94.7142 95.9671H135.888C136.722 95.9671 137.401 96.6462 137.401 97.4808V105.113Z" fill="#023872"/>
<path d="M113.451 56.2925V63.654C113.451 64.3552 114.212 64.7917 114.818 64.4384L121.122 60.7575C121.722 60.4069 121.722 59.5393 121.122 59.1887L114.818 55.5078C114.212 55.1548 113.451 55.5916 113.451 56.2925Z" fill="white"/>
<path d="M105.963 47.3945C106.548 47.3945 107.023 46.9201 107.023 46.335C107.023 45.7498 106.548 45.2754 105.963 45.2754C105.378 45.2754 104.904 45.7498 104.904 46.335C104.904 46.9201 105.378 47.3945 105.963 47.3945Z" fill="#023872"/>
<path d="M109.344 47.3945C109.929 47.3945 110.403 46.9201 110.403 46.335C110.403 45.7498 109.929 45.2754 109.344 45.2754C108.759 45.2754 108.284 45.7498 108.284 46.335C108.284 46.9201 108.759 47.3945 109.344 47.3945Z" fill="#023872"/>
<path d="M112.724 47.3945C113.309 47.3945 113.784 46.9201 113.784 46.335C113.784 45.7498 113.309 45.2754 112.724 45.2754C112.139 45.2754 111.665 45.7498 111.665 46.335C111.665 46.9201 112.139 47.3945 112.724 47.3945Z" fill="#023872"/>
</svg>
