<svg width="191" height="173" viewBox="0 0 191 173" fill="none" xmlns="http://www.w3.org/2000/svg">
<path opacity="0.1" d="M184.914 142.677V40.9066C184.914 38.6659 183.098 36.8496 180.857 36.8496H90.6211C87.7337 36.8496 85.0638 38.384 83.6102 40.879L78.302 49.9898H45.2804C35.8397 49.9898 27.6487 56.5054 25.5228 65.7067L7.74092 142.677H6.80334C4.56266 142.677 2.74634 144.493 2.74634 146.734V154.5C2.74634 156.74 4.56266 158.557 6.80334 158.557H19.9432C21.9473 165.219 28.1262 170.073 35.4414 170.073C42.7565 170.073 48.9354 165.219 50.9395 158.557H146.66C148.664 165.219 154.843 170.073 162.158 170.073C169.473 170.073 175.652 165.219 177.656 158.557H184.915C187.156 158.557 188.972 156.74 188.972 154.5V146.734C188.971 144.494 187.155 142.677 184.914 142.677Z" fill="#023872"/>
<path d="M83.6102 30.7355L78.302 39.8463H45.2804C35.8398 39.8463 27.6487 46.3618 25.5228 55.5631L6.80377 136.59H184.914V30.7631C184.914 28.5224 183.098 26.7061 180.857 26.7061H90.6211C87.7337 26.7061 85.0638 28.2404 83.6102 30.7355Z" fill="white"/>
<path d="M20.7055 102.335H14.7173L12.1359 113.51H20.7055C23.7912 113.51 26.2928 111.008 26.2928 107.922C26.2924 104.836 23.7912 102.335 20.7055 102.335Z" fill="#023872"/>
<path d="M78.3019 39.8459H90.292C91.6138 39.8459 92.6856 38.7744 92.6856 37.4522C92.6856 36.1305 91.6142 35.0586 90.292 35.0586H81.0911L78.3019 39.8459Z" fill="#023872"/>
<path d="M184.915 77.3155H180.715C178.474 77.3155 176.658 75.4991 176.658 73.2585V44.3588C176.658 42.1181 178.474 40.3018 180.715 40.3018H184.915V77.3155Z" fill="#023872"/>
<path d="M176.658 67.3398V73.259C176.658 75.4997 178.474 77.316 180.715 77.316H184.915V67.3398H176.658Z" fill="#023872"/>
<path d="M116.144 100.079H184.915V83.4023H127.935L116.144 100.079Z" fill="#023872"/>
<path d="M121.613 83.4004L109.824 100.079H97.9123L109.702 83.4004H121.613Z" fill="#023872"/>
<path d="M103.578 83.4004L91.7879 100.079H83.9335L95.7232 83.4004H103.578Z" fill="#023872"/>
<path d="M65.6246 82.2461H70.2634V132.533H65.6246V82.2461Z" fill="#023872"/>
<path d="M26.5962 52.2539C26.1499 53.3108 25.7868 54.4151 25.5227 55.5632L18.423 86.3032H66.2064C68.4471 86.3032 70.2634 84.4868 70.2634 82.2462V56.3109C70.2634 54.0702 68.4471 52.2539 66.2064 52.2539H26.5962Z" fill="#023872"/>
<path d="M184.914 116.065V136.59H6.80377L11.5464 116.065H184.914Z" fill="white"/>
<path d="M65.6263 116.064H70.2635V132.532H65.6263V116.064Z" fill="#023872"/>
<path d="M184.914 148.411H6.80334C4.56266 148.411 2.74634 146.594 2.74634 144.354V136.588C2.74634 134.348 4.56266 132.531 6.80334 132.531H184.914C187.155 132.531 188.971 134.348 188.971 136.588V144.354C188.971 146.594 187.155 148.411 184.914 148.411Z" fill="white"/>
<path d="M35.4414 159.928C44.3799 159.928 51.626 152.682 51.626 143.743C51.626 134.805 44.3799 127.559 35.4414 127.559C26.5029 127.559 19.2568 134.805 19.2568 143.743C19.2568 152.682 26.5029 159.928 35.4414 159.928Z" fill="#023872"/>
<path d="M35.4415 151.073C39.4894 151.073 42.7708 147.791 42.7708 143.743C42.7708 139.696 39.4894 136.414 35.4415 136.414C31.3935 136.414 28.1121 139.696 28.1121 143.743C28.1121 147.791 31.3935 151.073 35.4415 151.073Z" fill="white"/>
<path d="M162.158 159.928C171.097 159.928 178.343 152.682 178.343 143.743C178.343 134.805 171.097 127.559 162.158 127.559C153.219 127.559 145.973 134.805 145.973 143.743C145.973 152.682 153.219 159.928 162.158 159.928Z" fill="#023872"/>
<path d="M186.943 130.859V94.8386C186.943 93.7181 186.035 92.8101 184.914 92.8101C183.794 92.8101 182.886 93.7181 182.886 94.8386V130.504H174.645C171.382 127.424 166.988 125.53 162.158 125.53C157.328 125.53 152.934 127.424 149.67 130.504H47.9288C44.6654 127.424 40.2716 125.53 35.4414 125.53C30.6111 125.53 26.2173 127.424 22.9539 130.504H10.2912L27.4989 56.0188C29.4232 47.6901 36.7351 41.8736 45.2804 41.8736H78.302C79.0237 41.8736 79.6911 41.4902 80.0546 40.8662L85.3628 31.7558C86.4489 29.8916 88.464 28.7338 90.6211 28.7338H180.857C181.976 28.7338 182.886 29.6438 182.886 30.7623V82.9711C182.886 84.0916 183.794 84.9996 184.914 84.9996C186.035 84.9996 186.943 84.0916 186.943 82.9711V30.7623C186.943 27.4067 184.213 24.6768 180.857 24.6768H90.6211C87.0258 24.6768 83.6674 26.6067 81.8572 29.7135L77.136 37.817H45.2804C34.8356 37.817 25.8985 44.9261 23.5462 55.1059L6.11812 130.545C3.08429 130.887 0.717834 133.465 0.717834 136.589V144.355C0.717834 147.711 3.44779 150.44 6.80334 150.44H18.5094C21.1838 157.178 27.7631 161.957 35.4418 161.957C45.4845 161.957 53.6549 153.787 53.6549 143.744C53.6549 140.396 52.7429 137.259 51.1606 134.561H146.439C144.857 137.259 143.945 140.396 143.945 143.744C143.945 144.64 144.013 145.521 144.139 146.383H62.6655C61.5454 146.383 60.637 147.291 60.637 148.412C60.637 149.532 61.5454 150.44 62.6655 150.44H145.226C147.9 157.178 154.479 161.957 162.158 161.957C169.837 161.957 176.416 157.178 179.09 150.44H184.915C188.27 150.44 191 147.711 191 144.355V136.589C191 133.946 189.303 131.697 186.943 130.859ZM6.80334 146.383C5.68483 146.383 4.77484 145.473 4.77484 144.355V136.589C4.77484 135.471 5.68483 134.561 6.80334 134.561H19.7225C18.1402 137.259 17.2282 140.396 17.2282 143.744C17.2282 144.64 17.296 145.521 17.4217 146.383H6.80334ZM35.4418 157.9C27.6361 157.9 21.2856 151.55 21.2856 143.744C21.2856 135.938 27.6361 129.588 35.4418 129.588C43.2474 129.588 49.5979 135.938 49.5979 143.744C49.5979 151.55 43.2474 157.9 35.4418 157.9ZM162.158 157.9C154.352 157.9 148.002 151.55 148.002 143.744C148.002 135.938 154.352 129.588 162.158 129.588C169.964 129.588 176.314 135.938 176.314 143.744C176.314 151.55 169.964 157.9 162.158 157.9ZM186.943 144.355C186.943 145.473 186.033 146.383 184.915 146.383H180.178C180.303 145.521 180.371 144.64 180.371 143.744C180.371 140.396 179.459 137.259 177.877 134.561H184.914C186.033 134.561 186.943 135.471 186.943 136.589V144.355H186.943Z" fill="#023872"/>
<path d="M162.158 151.073C166.206 151.073 169.487 147.791 169.487 143.743C169.487 139.696 166.206 136.414 162.158 136.414C158.11 136.414 154.828 139.696 154.828 143.743C154.828 147.791 158.11 151.073 162.158 151.073Z" fill="white"/>
<path d="M52.9509 92.8744C52.9509 91.5571 54.0187 90.4893 55.336 90.4893H59.3931C60.7104 90.4893 61.7782 91.5571 61.7782 92.8744C61.7782 94.1917 60.7104 95.2595 59.3931 95.2595H55.336C54.0187 95.2591 52.9509 94.1913 52.9509 92.8744Z" fill="#023872"/>
<path d="M156.546 43.3807C156.546 43.7223 156.606 44.0635 156.719 44.3901H124.691C122.991 44.3901 121.613 45.7679 121.613 47.4678C121.613 49.1677 122.991 50.5454 124.691 50.5454H156.719C156.345 51.6242 156.586 52.8693 157.447 53.7302C158.649 54.9323 160.598 54.9323 161.8 53.7302L165.884 49.646C167.076 48.4999 167.075 46.4365 165.884 45.29L161.8 41.2054C160.598 40.0033 158.649 40.0033 157.447 41.2046C156.847 41.805 156.546 42.5933 156.546 43.3807Z" fill="#023872"/>
<path d="M131.672 59.514H163.7C165.4 59.514 166.778 60.8918 166.778 62.5917C166.778 64.2916 165.4 65.6693 163.7 65.6693H131.672C131.785 65.9955 131.845 66.3363 131.845 66.6779C131.845 67.4654 131.545 68.2532 130.944 68.8537C129.742 70.0558 127.793 70.0558 126.591 68.8537L122.508 64.7699C121.316 63.6238 121.315 61.56 122.507 60.4135L126.591 56.3293C127.793 55.1272 129.742 55.1272 130.944 56.3293C131.805 57.1906 132.046 58.4353 131.672 59.514Z" fill="#023872"/>
<path d="M109.532 75.0174H89.5549C88.4348 75.0174 87.5264 74.109 87.5264 72.9889V46.1555C87.5264 45.0353 88.4348 44.127 89.5549 44.127H109.532C110.652 44.127 111.561 45.0353 111.561 46.1555V72.9889C111.561 74.109 110.653 75.0174 109.532 75.0174Z" fill="#023872"/>
<path d="M115.096 54.0726H95.3862C94.266 54.0726 93.3577 53.1643 93.3577 52.0441C93.3577 50.924 94.266 50.0156 95.3862 50.0156H115.096C116.216 50.0156 117.125 50.924 117.125 52.0441C117.125 53.1643 116.216 54.0726 115.096 54.0726Z" fill="#023872"/>
<path d="M102.925 62.3168H95.3856C94.2654 62.3168 93.3571 61.4084 93.3571 60.2883C93.3571 59.1681 94.2654 58.2598 95.3856 58.2598H102.925C104.045 58.2598 104.953 59.1681 104.953 60.2883C104.953 61.4084 104.045 62.3168 102.925 62.3168Z" fill="#023872"/>
<path d="M102.925 69.3441H95.3856C94.2654 69.3441 93.3571 68.4357 93.3571 67.3156C93.3571 66.1955 94.2654 65.2871 95.3856 65.2871H102.925C104.045 65.2871 104.953 66.1955 104.953 67.3156C104.953 68.4361 104.045 69.3441 102.925 69.3441Z" fill="#023872"/>
<path d="M67.6547 32.2381C66.1483 32.2381 64.642 31.6648 63.495 30.5179C61.2016 28.2245 61.2016 24.4925 63.495 22.199C65.7885 19.9048 69.5209 19.9052 71.8143 22.199C74.1078 24.4925 74.1078 28.2245 71.8143 30.5179C70.6678 31.6648 69.1611 32.2381 67.6547 32.2381ZM67.6547 24.5338C67.1869 24.5338 66.7195 24.7115 66.3637 25.0673C65.6521 25.7794 65.6521 26.9372 66.3637 27.6492C67.0749 28.3608 68.2336 28.3608 68.9456 27.6492C69.6572 26.9372 69.6572 25.7794 68.9456 25.0673C68.5898 24.7115 68.1225 24.5338 67.6547 24.5338Z" fill="#023872"/>
<path d="M101.969 167.839C100.462 167.839 98.9561 167.266 97.8095 166.119C95.5157 163.825 95.5157 160.093 97.8095 157.799C100.103 155.505 103.835 155.506 106.128 157.799C108.422 160.093 108.422 163.825 106.128 166.119C104.982 167.266 103.476 167.839 101.969 167.839ZM101.969 160.134C101.502 160.134 101.034 160.312 100.678 160.668C99.9662 161.38 99.9662 162.538 100.678 163.25C101.39 163.962 102.547 163.961 103.26 163.25C103.971 162.538 103.971 161.38 103.26 160.668C102.904 160.312 102.437 160.134 101.969 160.134Z" fill="#023872"/>
<path d="M131.009 172.101C130.49 172.101 129.971 171.903 129.575 171.506L127.155 169.087L124.735 171.506C123.944 172.299 122.658 172.299 121.867 171.506C121.074 170.714 121.074 169.43 121.867 168.638L125.721 164.784C126.512 163.991 127.798 163.991 128.589 164.784L132.443 168.638C133.236 169.43 133.236 170.714 132.443 171.506C132.047 171.903 131.528 172.101 131.009 172.101Z" fill="#023872"/>
<path d="M174.486 17.497C173.967 17.497 173.448 17.299 173.052 16.9027L170.632 14.4831L168.212 16.9027C167.421 17.695 166.135 17.695 165.344 16.9027C164.551 16.1107 164.551 14.8263 165.344 14.0343L169.198 10.1802C169.989 9.38785 171.275 9.38785 172.066 10.1802L175.92 14.0343C176.713 14.8263 176.713 16.1107 175.92 16.9027C175.524 17.299 175.005 17.497 174.486 17.497Z" fill="#023872"/>
<path d="M57.5634 8.54435C57.1137 8.804 56.5653 8.89199 56.0238 8.74691L52.7186 7.86127L51.833 11.1665C51.543 12.2489 50.4309 12.8909 49.3486 12.6009C48.2664 12.3112 47.6242 11.1988 47.9144 10.1168L49.3252 4.85196C49.6152 3.76961 50.7272 3.12759 51.8095 3.4176L57.0744 4.82832C58.1566 5.11799 58.7988 6.23035 58.5086 7.31235C58.3636 7.85325 58.0131 8.28471 57.5634 8.54435Z" fill="#023872"/>
</svg>
