<svg width="45" height="45" viewBox="0 0 45 45" fill="none" xmlns="http://www.w3.org/2000/svg">
<path d="M34.7727 2.04541H10.2272C5.70853 2.04541 2.04541 5.70853 2.04541 10.2272V34.7727C2.04541 39.2914 5.70853 42.9545 10.2272 42.9545H34.7727C39.2914 42.9545 42.9545 39.2914 42.9545 34.7727V10.2272C42.9545 5.70853 39.2914 2.04541 34.7727 2.04541Z" fill="white"/>
<path fill-rule="evenodd" clip-rule="evenodd" d="M8.18182 0C3.66312 0 0 3.66312 0 8.18182V36.8182C0 41.3368 3.66312 45 8.18182 45H36.8182C41.3368 45 45 41.3368 45 36.8182V8.18182C45 3.66312 41.3368 0 36.8182 0H8.18182ZM22.5 40.9091C32.6671 40.9091 40.9091 32.6671 40.9091 22.5C40.9091 12.3329 32.6671 4.09091 22.5 4.09091C12.3329 4.09091 4.09091 12.3329 4.09091 22.5C4.09091 32.6671 12.3329 40.9091 22.5 40.9091Z" fill="#023872"/>
<path d="M12.8383 11.455C18.3586 6.61653 26.6411 6.61653 32.1616 11.455L33.5476 10.0689C27.2591 4.46989 17.7407 4.46989 11.4521 10.0689L12.8383 11.455Z" fill="#023872"/>
<path d="M11.455 12.8383L10.0688 11.4521C4.46989 17.7407 4.46989 27.2591 10.0688 33.5476L11.455 32.1616C6.61653 26.6411 6.61653 18.3586 11.455 12.8383Z" fill="#023872"/>
<path d="M12.8383 33.5449L11.4521 34.9311C17.7407 40.5302 27.2591 40.5302 33.5476 34.9311L32.1616 33.5449C26.6411 38.3835 18.3586 38.3835 12.8383 33.5449Z" fill="#023872"/>
<path d="M33.5452 32.1616L34.9314 33.5476C40.5304 27.2591 40.5304 17.7407 34.9314 11.4521L33.5452 12.8383C38.3837 18.3586 38.3837 26.6411 33.5452 32.1616Z" fill="#023872"/>
<path fill-rule="evenodd" clip-rule="evenodd" d="M21.4774 9.82323C21.8147 9.79639 22.1558 9.78271 22.5001 9.78271C22.8443 9.78271 23.1855 9.79639 23.5228 9.82323V7.82617H21.4774V9.82323ZM35.177 21.4774C35.2038 21.8147 35.2175 22.1558 35.2175 22.5001C35.2175 22.8443 35.2038 23.1855 35.177 23.5228H37.174V21.4774H35.177ZM23.5228 35.177C23.1855 35.2038 22.8443 35.2175 22.5001 35.2175C22.1558 35.2175 21.8147 35.2038 21.4774 35.177V37.174H23.5228V35.177ZM9.82323 23.5228C9.79639 23.1855 9.78271 22.8443 9.78271 22.5001C9.78271 22.1558 9.79639 21.8147 9.82323 21.4774H7.82617V23.5228H9.82323Z" fill="#023872"/>
<path d="M36.4904 9.04816C36.5998 8.78109 36.5382 8.47437 36.3343 8.27026C36.1302 8.06614 35.8234 8.00457 35.5564 8.11413L3.31875 21.3373C3.03693 21.4528 2.85912 21.7341 2.87556 22.0383C2.89201 22.3424 3.09911 22.6028 3.39173 22.6873L17.765 26.8395L21.9171 41.2127C22.0016 41.5053 22.2622 41.7125 22.5664 41.7288C22.8705 41.7454 23.1518 41.5674 23.2673 41.2858L36.4904 9.04816ZM12.3879 21.5422L29.2129 14.3791L19.8841 23.7078L12.3879 21.5422Z" fill="#023872" stroke="white" stroke-width="0.7" stroke-linejoin="round"/>
</svg>
