<svg width="118" height="129" viewBox="0 0 118 129" fill="none" xmlns="http://www.w3.org/2000/svg">
<path opacity="0.1" d="M112.559 8.61739C111.363 7.42181 109.425 7.42181 108.229 8.61739C107.371 9.47514 107.132 10.7144 107.505 11.7883L103.913 15.3812C102.813 14.4888 101.621 13.8294 100.466 13.4881C98.6726 12.9581 97.1285 13.2229 96.1188 14.2332C95.1697 15.182 94.8787 16.602 95.2858 18.2568C93.6866 17.8668 92.232 18.12 91.2552 19.0965C89.5339 20.8179 90.0583 24.0255 92.401 26.8927L90.2516 29.0421C90.0666 29.2269 89.9508 29.4534 89.8973 29.6909L87.9033 27.6969C86.3427 26.1363 83.8147 26.1382 82.256 27.6969L81.4766 28.4764C69.062 18.0098 56.6236 13.3467 51.9752 17.9952C40.1559 29.8144 38.2187 47.7707 46.1581 61.605L43.2369 64.5262L29.942 77.8184C28.2195 79.5408 27.2532 81.8782 27.2532 84.3141V86.7865H24.6006C20.8408 86.7865 17.7822 89.8453 17.7822 93.6051C17.7822 97.3649 20.8408 100.424 24.6006 100.424H27.2532V108.321H24.4377C21.497 108.321 19.1133 110.705 19.1133 113.646V122.431C19.1133 123.901 20.3052 125.093 21.7755 125.093H58.4179H95.5823H104.337C105.808 125.093 107 123.901 107 122.431V113.646C107 110.705 104.616 108.321 101.675 108.321H92.8999V104.662C92.8999 103.192 91.7081 102 90.2378 102H89.6388V95.9422C89.6388 95.6592 89.5491 95.3981 89.3984 95.1822C90.9616 94.7133 92.1013 93.2651 92.1013 91.5496C92.1013 89.4545 90.4028 87.756 88.3077 87.756C86.2126 87.756 84.5141 89.4545 84.5141 91.5496C84.5141 93.2654 85.6538 94.7133 87.217 95.1822C87.0663 95.3978 86.9766 95.6592 86.9766 95.9422V102H86.3776C84.9073 102 83.7154 103.192 83.7154 104.662V108.321H76.0617V102.264C76.0617 101.981 75.972 101.72 75.8213 101.504C77.3845 101.035 78.5242 99.5867 78.5242 97.8712C78.5242 95.7761 76.8257 94.0776 74.7306 94.0776C72.6355 94.0776 70.937 95.7761 70.937 97.8712C70.937 99.587 72.0767 101.035 73.6399 101.504C73.4892 101.719 73.3995 101.981 73.3995 102.264V108.321H45.6224V95.1433C49.5028 95.1433 52.6482 91.9977 52.6482 88.1176C52.6482 86.1776 51.862 84.4214 50.5908 83.1499L56.1274 77.6134L59.0355 74.7053C72.939 83.0067 91.2089 81.173 103.181 69.2007C107.83 64.5523 103.167 52.1138 92.7 39.6993L93.4795 38.9198C95.0382 37.3611 95.0401 34.8331 93.4795 33.2726L91.4855 31.2786C91.723 31.2251 91.9495 31.1093 92.134 30.9245L94.2843 28.7743C96.0086 30.1831 97.8553 30.9362 99.4289 30.9362C100.471 30.9362 101.394 30.6064 102.08 29.9204C103.057 28.9433 103.31 27.4874 102.918 25.8872C103.405 26.007 103.872 26.0695 104.312 26.0695C105.368 26.0695 106.273 25.7274 106.942 25.0576C107.953 24.0473 108.218 22.5035 107.688 20.7103C107.346 19.5547 106.687 18.3633 105.795 17.2639L109.388 13.6707C110.462 14.0437 111.701 13.8049 112.559 12.9471C113.754 11.7513 113.754 9.81297 112.559 8.61739ZM24.6008 97.7613C22.3092 97.7613 20.4447 95.8967 20.4447 93.6048C20.4447 91.313 22.3092 89.4484 24.6008 89.4484H27.2534V97.7615H24.6008V97.7613ZM98.0015 16.1157C98.1535 15.9637 98.4205 15.8867 98.7602 15.8867C99.037 15.8867 99.3621 15.9378 99.7116 16.0414C100.453 16.2605 101.254 16.6965 102.015 17.2785L99.164 20.1302C98.5821 19.3686 98.146 18.5678 97.9269 17.8264C97.6964 17.0472 97.7251 16.3917 98.0015 16.1157ZM93.1379 20.9787C93.2886 20.8282 93.5495 20.7486 93.8897 20.7486C94.6796 20.7486 95.8973 21.1791 97.1544 22.1394L94.3 24.9937C92.9271 23.1957 92.638 21.4789 93.1379 20.9787ZM100.197 28.0379C99.6973 28.5384 97.9804 28.2493 96.1824 26.8762L99.0354 24.0231C100.408 25.8209 100.697 27.5377 100.197 28.0379ZM105.135 21.4645C105.365 22.2434 105.336 22.8989 105.06 23.1749C104.784 23.451 104.128 23.4795 103.35 23.2495C102.608 23.0304 101.808 22.5943 101.046 22.0124L103.897 19.1609C104.48 19.9223 104.916 20.7231 105.135 21.4645Z" fill="#023872"/>
<path d="M92.8998 104.272H83.7153V98.2725C83.7153 96.8022 84.9072 95.6104 86.3775 95.6104H90.2377C91.708 95.6104 92.8998 96.8022 92.8998 98.2725V104.272Z" fill="white"/>
<path d="M63.4776 63.8735L56.1273 71.2238L45.6224 81.7287V104.272H27.2534V77.9244C27.2534 75.4886 28.2198 73.1512 29.9422 71.4287L43.2371 58.1365L50.4889 50.8848L63.4776 63.8735Z" fill="white"/>
<path d="M103.181 62.811C89.0406 76.9511 66.1151 76.9511 51.9752 62.811C37.8351 48.6709 37.8351 25.7453 51.9752 11.6055L103.181 62.811Z" fill="white"/>
<path d="M103.164 62.8108C108.545 57.4293 101.447 41.6057 87.3089 27.4677C73.171 13.3298 57.3473 6.23132 51.9658 11.6128C46.5843 16.9943 53.6828 32.818 67.8207 46.9559C81.9587 61.0938 97.7823 68.1923 103.164 62.8108Z" fill="#023872"/>
<path d="M87.9034 21.307L93.4793 26.8826C95.0399 28.4432 95.038 30.9712 93.4793 32.5299L73.68 52.3292C71.7203 50.6784 69.7607 48.8807 67.833 46.953C65.9054 45.0253 64.1076 43.0657 62.4568 41.1061L82.2562 21.3067C83.8149 19.7483 86.3431 19.7464 87.9034 21.307Z" fill="white"/>
<path d="M82.2694 28.816C82.7891 29.3357 82.7891 30.1788 82.2694 30.6984L67.8649 45.1029C67.3453 45.6226 66.5022 45.6226 65.9825 45.1029C65.4629 44.5833 65.4629 43.7402 65.9825 43.2205L80.387 28.816C80.9064 28.2964 81.7497 28.2964 82.2694 28.816Z" fill="#023872"/>
<path d="M110.394 7.45405C112.084 7.45405 113.455 6.08337 113.455 4.39255C113.455 2.70173 112.084 1.33105 110.394 1.33105C108.703 1.33105 107.332 2.70173 107.332 4.39255C107.332 6.08337 108.703 7.45405 110.394 7.45405Z" fill="white"/>
<path d="M85.567 34.5336C85.0471 35.0535 84.2045 35.0532 83.6846 34.5336L83.6628 34.512C83.1431 33.9924 83.1429 33.1495 83.6628 32.6296C84.1827 32.1097 85.0256 32.1099 85.5452 32.6296L85.5668 32.6512C86.0867 33.1711 86.087 34.0136 85.567 34.5336Z" fill="#023872"/>
<path d="M82.4306 37.6699C81.9107 38.1898 81.0681 38.1898 80.5482 37.6699L80.5267 37.6483C80.0067 37.1287 80.0067 36.2858 80.5267 35.7659C81.0466 35.246 81.8894 35.246 82.4091 35.7659L82.4306 35.7875C82.9506 36.3071 82.9506 37.15 82.4306 37.6699Z" fill="#023872"/>
<path d="M79.2939 40.8065C78.774 41.3264 77.9314 41.3262 77.4115 40.8065L77.3899 40.785C76.87 40.2653 76.87 39.4225 77.3899 38.9025C77.9099 38.3826 78.7527 38.3829 79.2724 38.9025L79.2939 38.9241C79.8139 39.4438 79.8139 40.2866 79.2939 40.8065Z" fill="#023872"/>
<path d="M45.6222 88.7536C49.5024 88.7536 52.6479 85.6081 52.6479 81.7279C52.6479 77.8477 49.5024 74.7021 45.6222 74.7021C41.742 74.7021 38.5964 77.8477 38.5964 81.7279C38.5964 85.6081 41.742 88.7536 45.6222 88.7536Z" fill="#023872"/>
<path d="M47.5166 81.7274C47.5166 82.7736 46.6684 83.6218 45.6224 83.6218C44.5762 83.6218 43.728 82.7736 43.728 81.7274C43.728 80.6812 44.5762 79.833 45.6224 79.833C46.6684 79.833 47.5166 80.6812 47.5166 81.7274Z" fill="#023872"/>
<path d="M104.337 118.703H21.7755C20.3051 118.703 19.1133 117.511 19.1133 116.041V107.256C19.1133 104.315 21.497 101.932 24.4376 101.932H101.675C104.616 101.932 107 104.315 107 107.256V116.041C107 117.511 105.808 118.703 104.337 118.703Z" fill="white"/>
<path d="M95.5824 118.703H58.418V112.98C58.418 111.509 59.6098 110.317 61.0801 110.317H92.9203C94.3906 110.317 95.5824 111.509 95.5824 112.98V118.703Z" fill="#023872"/>
<path d="M52.648 113.01C51.9127 113.01 51.3169 112.414 51.3169 111.679V111.648C51.3169 110.913 51.9127 110.317 52.648 110.317C53.3833 110.317 53.9791 110.913 53.9791 111.648V111.679C53.9791 112.414 53.383 113.01 52.648 113.01Z" fill="#023872"/>
<path d="M46.6966 113.01C45.9613 113.01 45.3655 112.414 45.3655 111.679V111.648C45.3655 110.913 45.9613 110.317 46.6966 110.317C47.4319 110.317 48.0276 110.913 48.0276 111.648V111.679C48.0276 112.414 47.4316 113.01 46.6966 113.01Z" fill="#023872"/>
<path d="M88.3078 88.9534C90.4029 88.9534 92.1013 87.2549 92.1013 85.1598C92.1013 83.0647 90.4029 81.3662 88.3078 81.3662C86.2126 81.3662 84.5142 83.0647 84.5142 85.1598C84.5142 87.2549 86.2126 88.9534 88.3078 88.9534Z" fill="#023872"/>
<path d="M74.7306 95.2747C76.8258 95.2747 78.5242 93.5762 78.5242 91.4811C78.5242 89.386 76.8258 87.6875 74.7306 87.6875C72.6355 87.6875 70.937 89.386 70.937 91.4811C70.937 93.5762 72.6355 95.2747 74.7306 95.2747Z" fill="#023872"/>
<path d="M28.0297 55.1435C27.2944 55.1435 26.6987 54.5474 26.6987 53.8124C26.6987 52.9315 25.9823 52.2151 25.1013 52.2151C24.3661 52.2151 23.7703 51.619 23.7703 50.884C23.7703 50.149 24.3661 49.5529 25.1013 49.5529C25.9823 49.5529 26.6987 48.8365 26.6987 47.9556C26.6987 47.2206 27.2944 46.6245 28.0297 46.6245C28.765 46.6245 29.3608 47.2206 29.3608 47.9556C29.3608 48.8365 30.0772 49.5529 30.9581 49.5529C31.6934 49.5529 32.2892 50.149 32.2892 50.884C32.2892 51.619 31.6934 52.2151 30.9581 52.2151C30.0772 52.2151 29.3608 52.9315 29.3608 53.8124C29.3608 54.5474 28.7648 55.1435 28.0297 55.1435Z" fill="#023872"/>
<path d="M107.153 82.4958C106.418 82.4958 105.822 81.8997 105.822 81.1647C105.822 80.2838 105.106 79.5674 104.225 79.5674C103.489 79.5674 102.894 78.9713 102.894 78.2363C102.894 77.5013 103.489 76.9052 104.225 76.9052C105.106 76.9052 105.822 76.1886 105.822 75.3077C105.822 74.5726 106.418 73.9766 107.153 73.9766C107.888 73.9766 108.484 74.5726 108.484 75.3077C108.484 76.1886 109.201 76.9052 110.081 76.9052C110.817 76.9052 111.413 77.5013 111.413 78.2363C111.413 78.9713 110.817 79.5674 110.081 79.5674C109.201 79.5674 108.484 80.2838 108.484 81.1647C108.484 81.8997 107.888 82.4958 107.153 82.4958Z" fill="#023872"/>
<path d="M113.456 40.0839C112.72 40.0839 112.124 39.4878 112.124 38.7528C112.124 37.8722 111.408 37.1555 110.527 37.1555C109.792 37.1555 109.196 36.5594 109.196 35.8244C109.196 35.0894 109.792 34.4933 110.527 34.4933C111.408 34.4933 112.124 33.7769 112.124 32.896C112.124 32.161 112.72 31.5649 113.456 31.5649C114.191 31.5649 114.787 32.161 114.787 32.896C114.787 33.7769 115.503 34.4933 116.384 34.4933C117.119 34.4933 117.715 35.0894 117.715 35.8244C117.715 36.5594 117.119 37.1555 116.384 37.1555C115.503 37.1555 114.787 37.8722 114.787 38.7528C114.787 39.4878 114.191 40.0839 113.456 40.0839Z" fill="#023872"/>
<path d="M17.7824 67.5128C17.4419 67.5128 17.1008 67.3829 16.8413 67.1231L13.9129 64.1947C13.393 63.6748 13.393 62.8319 13.9129 62.3123L16.8413 59.3839C17.3607 58.8642 18.204 58.8642 18.7234 59.3839L21.6518 62.3123C22.1717 62.8322 22.1717 63.675 21.6518 64.1947L18.7234 67.1231C18.4639 67.3829 18.1231 67.5128 17.7824 67.5128ZM16.7367 63.2534L17.7826 64.2993L18.8286 63.2534L17.7826 62.2074L16.7367 63.2534Z" fill="#023872"/>
<path d="M28.8546 26.0739C28.5141 26.0739 28.1731 25.944 27.9135 25.6841L24.9852 22.7557C24.4652 22.2358 24.4652 21.393 24.9852 20.8733L27.9135 17.9449C28.4329 17.4253 29.2763 17.4253 29.7957 17.9449L32.7241 20.8733C33.244 21.3932 33.244 22.2361 32.7241 22.7557L29.7957 25.6841C29.5361 25.9437 29.1954 26.0739 28.8546 26.0739ZM27.8089 21.8144L28.8549 22.8604L29.9009 21.8144L28.8549 20.7684L27.8089 21.8144Z" fill="#023872"/>
<path d="M110.394 8.7849C111.567 8.7849 112.671 8.32807 113.5 7.49854C115.213 5.7857 115.213 2.9992 113.5 1.28663C112.671 0.456829 111.567 0 110.394 0C109.221 0 108.117 0.456829 107.288 1.28663C105.904 2.67122 105.639 4.7573 106.493 6.41078L103.913 8.99175C102.813 8.09939 101.621 7.44024 100.466 7.09868C98.6728 6.56864 97.1288 6.83353 96.119 7.84382C95.1699 8.79262 94.879 10.2124 95.286 11.8674C93.6868 11.4774 92.2322 11.7306 91.2555 12.7068C89.5341 14.4282 90.0586 17.6358 92.4013 20.503L90.6916 22.2126L88.8452 20.3661C86.7961 18.3168 83.4793 18.2942 81.3972 20.2921C75.4701 15.4337 69.3751 11.7492 64.1575 9.88597C56.6385 7.20091 52.871 8.82696 51.0346 10.6639C39.0562 22.6423 36.8833 40.7674 44.5112 54.9786L29.0027 70.4874C27.0165 72.4734 25.9229 75.1142 25.9229 77.9231V80.3965H24.6014C20.8416 80.3965 17.783 83.4554 17.783 87.2151C17.783 90.9749 20.8416 94.0338 24.6014 94.0338H25.9229V100.601H24.4379C20.7681 100.601 17.7825 103.586 17.7825 107.256V116.041C17.7825 118.243 19.5738 120.034 21.7757 120.034H104.338C106.54 120.034 108.331 118.243 108.331 116.041V107.256C108.331 103.586 105.345 100.601 101.675 100.601H94.231V98.2722C94.231 96.0703 92.4396 94.2789 90.2377 94.2789H89.6387V90.1031C91.8201 89.5147 93.4323 87.5245 93.4323 85.16C93.4323 82.3343 91.1333 80.0353 88.3077 80.0353C85.482 80.0353 83.183 82.3343 83.183 85.16C83.183 87.5248 84.7952 89.5147 86.9766 90.1031V94.2789H86.3776C84.1754 94.2789 82.3843 96.0703 82.3843 98.2722V100.601H76.0617V96.4247C78.2431 95.8363 79.8553 93.8461 79.8553 91.4815C79.8553 88.6559 77.5562 86.3569 74.7306 86.3569C71.905 86.3569 69.6059 88.6559 69.6059 91.4815C69.6059 93.8463 71.2181 95.8363 73.3995 96.4247V100.601H66.5055C65.7702 100.601 65.1745 101.197 65.1745 101.932C65.1745 102.667 65.7702 103.263 66.5055 103.263H101.675C103.877 103.263 105.669 105.054 105.669 107.256V116.041C105.669 116.775 105.072 117.372 104.338 117.372H21.7757C21.0418 117.372 20.4446 116.775 20.4446 116.041V107.256C20.4446 105.054 22.236 103.263 24.4379 103.263H57.5447C58.28 103.263 58.8758 102.667 58.8758 101.932C58.8758 101.197 58.28 100.601 57.5447 100.601H46.9537V89.9774C50.931 89.338 53.9795 85.8827 53.9795 81.7276C53.9795 79.903 53.3901 78.2143 52.3939 76.8385L59.2567 69.9757C64.9282 73.1442 71.2535 74.729 77.5788 74.729C87.1917 74.729 96.8048 71.0699 104.123 63.7518C105.958 61.9163 107.584 58.1511 104.905 50.6398C103.043 45.4201 99.3565 39.3203 94.4953 33.3892C96.493 31.3074 96.4709 27.9909 94.4213 25.941L92.5746 24.0942L94.2848 22.3841C96.0091 23.7929 97.8561 24.546 99.4294 24.546C100.472 24.546 101.394 24.2162 102.08 23.5301C103.057 22.5531 103.31 21.0972 102.919 19.4969C103.405 19.6167 103.873 19.6793 104.312 19.6793C105.369 19.6793 106.273 19.3372 106.943 18.6674C107.953 17.6571 108.218 16.1133 107.688 14.3201C107.347 13.1644 106.688 11.9731 105.795 10.8734L108.375 8.29293C108.992 8.61346 109.68 8.7849 110.394 8.7849ZM85.8454 85.16C85.8454 83.802 86.95 82.6974 88.3079 82.6974C89.6656 82.6974 90.7704 83.802 90.7704 85.16C90.7704 86.5179 89.6656 87.6225 88.3079 87.6225C86.95 87.6225 85.8454 86.5177 85.8454 85.16ZM72.2683 91.4815C72.2683 90.1236 73.3729 89.019 74.7308 89.019C76.0886 89.019 77.1934 90.1236 77.1934 91.4815C77.1934 92.8395 76.0886 93.944 74.7308 93.944C73.3729 93.944 72.2683 92.8395 72.2683 91.4815ZM85.0468 98.2722C85.0468 97.5382 85.6439 96.9411 86.3778 96.9411H90.238C90.972 96.9411 91.5691 97.5382 91.5691 98.2722V100.601H85.0468V98.2722ZM24.6011 91.3716C22.3095 91.3716 20.4449 89.507 20.4449 87.2151C20.4449 84.9233 22.3095 83.0587 24.6011 83.0587H25.9226V91.3719H24.6011V91.3716ZM28.5848 100.601V83.0587H37.3729C37.9426 86.6026 40.7477 89.4077 44.2916 89.9774V100.601H28.5848ZM45.6227 87.4223C42.4826 87.4223 39.9277 84.8676 39.9277 81.7273C39.9277 78.587 42.4826 76.0324 45.6227 76.0324C48.7627 76.0324 51.3173 78.587 51.3173 81.7273C51.3171 84.8676 48.7627 87.4223 45.6227 87.4223ZM50.5115 74.9561C49.1357 73.9599 47.447 73.3705 45.6227 73.3705C41.4675 73.3705 38.0123 76.419 37.3729 80.3965H28.5848V77.9231C28.5848 75.8253 29.4015 73.8532 30.8849 72.3701L45.9014 57.3533C47.3456 59.6233 49.055 61.7722 51.0349 63.7518C52.8635 65.5805 54.8356 67.1807 56.9153 68.5525L50.5115 74.9561ZM52.9167 61.8697C40.8382 49.7909 39.4898 30.9837 48.8689 17.401C48.9911 20.0131 49.8238 23.0962 51.3687 26.54C54.4283 33.3605 59.9412 40.9445 66.8918 47.8949C73.842 54.8453 81.4259 60.3578 88.2464 63.4175C91.6905 64.9626 94.7733 65.7953 97.3854 65.9172C83.8025 75.2969 64.9958 73.9487 52.9167 61.8697ZM102.24 61.8697C100.087 64.0228 95.3837 63.7018 89.3358 60.9885C84.9842 59.0363 80.2913 56.0198 75.6538 52.2377L92.6068 35.285C101.921 46.7254 106.061 58.0489 102.24 61.8697ZM92.5386 31.5885L73.6095 50.5176C71.9776 49.1014 70.3598 47.5975 68.7742 46.0122C62.0469 39.2851 56.7284 31.9828 53.7979 25.4504C51.0852 19.4027 50.7641 14.6994 52.9167 12.5463C56.7391 8.72447 68.0594 12.8641 79.5015 22.1794L67.5262 34.1546C67.0063 34.6745 67.0063 35.5174 67.5262 36.037C68.0456 36.5567 68.889 36.5567 69.4084 36.037L83.1976 22.2478C84.2359 21.2098 85.9248 21.2101 86.9627 22.2478L92.5384 27.8234C93.5766 28.8617 93.5766 30.5508 92.5386 31.5885ZM109.171 3.16878C109.497 2.84213 109.932 2.66217 110.394 2.66217C110.856 2.66217 111.291 2.84213 111.618 3.16878H111.618C112.292 3.84338 112.292 4.94126 111.618 5.61612C111.291 5.94303 110.857 6.12273 110.394 6.12273C109.932 6.12273 109.497 5.94277 109.171 5.61585C108.496 4.94126 108.496 3.84338 109.171 3.16878ZM98.0017 9.72598C98.1537 9.57397 98.4207 9.49703 98.7604 9.49703C99.0373 9.49703 99.3623 9.54815 99.7119 9.6517C100.453 9.8708 101.254 10.3069 102.016 10.8888L99.1643 13.7403C98.5826 12.9786 98.1462 12.1778 97.9271 11.4364C97.6966 10.6575 97.7254 10.002 98.0017 9.72598ZM93.1382 14.589C93.2888 14.4386 93.5497 14.359 93.89 14.359C94.6798 14.359 95.8972 14.7894 97.1543 15.7497L94.3002 18.6041C92.9273 16.806 92.6382 15.0892 93.1382 14.589ZM100.198 21.6482C99.6975 22.1487 97.9807 21.8596 96.1826 20.4865L99.0357 17.6334C100.409 19.4309 100.698 21.148 100.198 21.6482ZM105.135 15.0748C105.365 15.8538 105.337 16.5092 105.06 16.7853C104.784 17.0616 104.129 17.0898 103.35 16.8598C102.609 16.6407 101.808 16.2046 101.046 15.6227L103.898 12.771C104.48 13.5326 104.916 14.3334 105.135 15.0748Z" fill="#023872"/>
</svg>
