<svg width="95" height="116" viewBox="0 0 95 116" fill="none" xmlns="http://www.w3.org/2000/svg">
<path opacity="0.1" d="M86.6014 100.614C82.7794 99.0116 78.5592 99.771 75.5583 102.224V94.2775C75.5583 94.2662 75.5552 94.2555 75.5549 94.2442H78.3848C79.0912 94.2442 79.664 93.6716 79.664 92.9649V73.8044C79.6638 72.4473 79.1247 71.1457 78.165 70.186L74.2365 66.2575L75.099 65.3948C75.5987 64.8954 75.5987 64.0853 75.099 63.5859C74.5998 63.0862 73.7893 63.0862 73.2901 63.5859L72.4273 64.4484L70.8077 62.8288L71.6705 61.966C72.1702 61.4666 72.1702 60.6565 71.6705 60.1571C71.1713 59.6574 70.3607 59.6574 69.8616 60.1571L68.9988 61.0198L65.8505 57.8718C66.5907 55.9779 66.1984 53.7437 64.6686 52.2137L61.418 48.963L61.5088 48.8722C62.5079 47.873 62.5079 46.2529 61.5088 45.2538L43.8775 27.6225C42.8784 26.6234 41.2583 26.6234 40.2591 27.6225L37.3191 30.5626L14.8863 8.12988L7.34412 15.6724L12.3482 20.6765L2.50454 30.5206C2.0248 31.0004 1.75513 31.6513 1.75513 32.3298V41.8818C1.75538 42.5604 2.0248 43.2113 2.50454 43.691L13.3481 54.5346L11.8649 56.0178C10.8658 57.0169 10.8658 58.637 11.8649 59.6362L15.8942 63.6654C16.3739 64.1452 17.0248 64.4148 17.7034 64.4148H44.9073C45.5859 64.4148 46.2368 64.1454 46.7165 63.6654L49.6512 60.7307L52.9017 63.9812C54.4527 65.5322 56.7283 65.9157 58.6385 65.1335L61.7621 68.2571L60.8451 69.1738C60.3454 69.6733 60.3454 70.4833 60.8451 70.9828C61.0948 71.2327 61.4223 71.3576 61.7495 71.3576C62.0768 71.3576 62.4045 71.2327 62.654 70.9828L63.5708 70.066L65.1903 71.6856L64.2736 72.6023C63.7739 73.1018 63.7739 73.9118 64.2736 74.4113C64.5233 74.6612 64.8508 74.7861 65.1781 74.7861C65.5053 74.7861 65.8331 74.6612 66.0825 74.4113L66.9993 73.4943L69.4289 75.9239L69.4286 92.9647C69.4286 93.6713 70.0013 94.244 70.7079 94.244H73.0022C73.002 94.2552 72.9989 94.266 72.9989 94.2772V102.224C69.9982 99.7705 65.7781 99.0111 61.956 100.613C57.5627 102.454 55.0243 106.854 55.3387 111.355C58.3279 114.735 63.2433 116.007 67.6366 114.166C70.808 112.837 73.0127 110.174 73.8747 107.101C74.0024 107.144 74.1365 107.172 74.2785 107.172C74.4205 107.172 74.5545 107.143 74.6822 107.101C75.5442 110.174 77.7492 112.836 80.9206 114.166C85.3139 116.007 90.2293 114.735 93.2185 111.355C93.5332 106.854 90.9948 102.455 86.6014 100.614ZM20.1151 47.7656L19.7768 39.6584C19.7497 39.0162 19.4818 38.4083 19.0297 37.9559L16.1966 35.1228C15.198 34.1242 13.5769 34.1242 12.5782 35.1228C12.0791 35.6222 11.8293 36.2772 11.8293 36.932C11.8293 37.587 12.0791 38.2417 12.5782 38.7411L14.706 40.8689L15.0429 48.9922L6.87257 40.8218V33.3893L15.9671 24.2948L29.7774 38.1051L20.1151 47.7656Z" fill="#023872"/>
<path d="M15.196 46.5433L14.7057 34.7275L12.578 32.5997C12.0786 32.1003 11.8291 31.4456 11.8291 30.7906C11.8291 30.1358 12.0788 29.4808 12.578 28.9814C13.5766 27.9828 15.1977 27.9828 16.1964 28.9814L19.0295 31.8145C19.4819 32.2669 19.7495 32.8748 19.7766 33.517L20.1149 41.6242L15.196 46.5433Z" fill="white"/>
<path d="M37.324 24.4189L29.7827 31.9602L7.35333 9.53076L14.8946 1.98953L37.324 24.4189Z" fill="white"/>
<path d="M37.3259 24.4189L33.5552 28.1897L20.4553 15.0898L24.226 11.3191L37.3259 24.4189Z" fill="#023872"/>
<path d="M9.36426 17.5137L12.3419 14.536L15.9605 18.1546L12.9828 21.1322L9.36426 17.5137Z" fill="#4369FD"/>
<path d="M2.50454 24.3791L12.3485 14.5352L15.9668 18.1535L6.87231 27.248V34.6805L16.9662 44.7744L13.3479 48.3928L2.50454 37.5497C2.02455 37.0697 1.75513 36.4191 1.75513 35.7405V26.1885C1.75513 25.5097 2.02455 24.8591 2.50454 24.3791Z" fill="white"/>
<path d="M59.1803 45.0605L78.1651 64.0453C79.1248 65.005 79.6639 66.3066 79.6641 67.6637V86.8242C79.6641 87.5306 79.0913 88.1035 78.3848 88.1035H70.7088C70.0021 88.1035 69.4295 87.5306 69.4295 86.8242L69.4298 69.7835L51.9438 52.2975L59.1803 45.0605Z" fill="white"/>
<path d="M69.4294 80.9378V86.8238C69.4294 87.5305 70.0021 88.1031 70.7087 88.1031H78.3848C79.0912 88.1031 79.6641 87.5302 79.6641 86.8238V80.9375H69.4294V80.9378Z" fill="#023872"/>
<path d="M46.7165 57.5242L61.5092 42.7314C62.5084 41.7323 62.5084 40.1122 61.5092 39.113L43.878 21.4818C42.8788 20.4826 41.2587 20.4826 40.2596 21.4818L11.8646 49.8765C10.8655 50.8757 10.8655 52.4958 11.8646 53.4949L15.8939 57.5242C16.3736 58.0039 17.0245 58.2736 17.703 58.2736H44.907C45.5858 58.2736 46.2365 58.0042 46.7165 57.5242Z" fill="white"/>
<path d="M51.8996 45.1036L54.2722 42.731C55.2713 41.7319 55.2713 40.1118 54.2722 39.1126L43.8777 28.7181C42.8785 27.719 41.2584 27.719 40.2593 28.7181L37.8867 31.0907C37.387 31.5904 37.387 32.4002 37.8867 32.8999L50.0904 45.1036C50.5901 45.603 51.4002 45.603 51.8996 45.1036Z" fill="#023872"/>
<path d="M49.6511 54.5892L61.4181 42.8223L64.6688 46.0727C66.731 48.1349 66.731 51.4782 64.6688 53.5402L60.3693 57.8397C58.3071 59.9019 54.9638 59.9019 52.9018 57.8397L49.6511 54.5892Z" fill="white"/>
<path d="M80.9212 108.025C85.3146 109.867 90.2299 108.595 93.2191 105.214C93.5335 100.713 90.9949 96.3138 86.6015 94.4724C82.211 92.6322 77.2944 93.9067 74.3055 97.2871C73.991 101.789 76.5307 106.185 80.9212 108.025Z" fill="white"/>
<path d="M88.5708 101.879L86.8589 101.162L87.3737 100.774C87.9381 100.349 88.0512 99.5474 87.6265 98.9827C87.202 98.4182 86.4001 98.3049 85.8349 98.7299L84.1258 100.016L74.7997 96.1073C74.1493 95.8348 73.3989 96.1411 73.1254 96.7928C72.8524 97.4444 73.1591 98.1941 73.8108 98.4671L79.9645 101.046L80.425 103.543C80.5386 104.159 81.0764 104.59 81.6816 104.59C81.7586 104.59 81.8366 104.583 81.9152 104.569C82.6101 104.441 83.0693 103.774 82.9412 103.079L82.7843 102.228L87.5819 104.239C87.7434 104.307 87.911 104.339 88.076 104.339C88.576 104.339 89.0511 104.044 89.2563 103.554C89.5295 102.902 89.2225 102.152 88.5708 101.879Z" fill="#023872"/>
<path d="M67.637 108.025C63.2437 109.867 58.3284 108.595 55.3392 105.214C55.0247 100.713 57.5633 96.3138 61.9567 94.4724C66.3472 92.6322 71.2638 93.9067 74.2528 97.2871C74.5672 101.789 72.0276 106.185 67.637 108.025Z" fill="white"/>
<path d="M75.4328 96.7928C75.1598 96.1409 74.4096 95.8349 73.7585 96.1074L64.4324 100.016L62.723 98.7299C62.1578 98.3049 61.3559 98.418 60.9314 98.9827C60.5067 99.5474 60.6198 100.35 61.1842 100.774L61.699 101.162L59.9871 101.879C59.3354 102.152 59.0286 102.902 59.3016 103.553C59.5071 104.044 59.982 104.338 60.4819 104.338C60.6469 104.338 60.8145 104.306 60.976 104.239L65.7736 102.228L65.6168 103.078C65.4886 103.773 65.9481 104.44 66.6427 104.568C66.7213 104.583 66.7993 104.59 66.8763 104.59C67.4812 104.59 68.0193 104.158 68.1329 103.542L68.5932 101.046L74.7471 98.4666C75.399 98.1941 75.7058 97.4445 75.4328 96.7928Z" fill="#023872"/>
<path d="M87.096 93.2929C83.2361 91.6756 78.897 92.186 75.5583 94.4829V89.3828H78.3848C79.7956 89.3828 80.9434 88.2351 80.9434 86.8242V67.6632C80.9431 65.9546 80.2776 64.3485 79.0697 63.1406L75.1371 59.2078C75.5946 58.7058 75.5849 57.93 75.0995 57.4449C74.6147 56.9596 73.8384 56.9498 73.3367 57.4073L71.7086 55.7793C72.1661 55.2773 72.1564 54.5015 71.671 54.0164C71.1862 53.531 70.4099 53.5213 69.9081 53.9788L67.3035 51.3742C67.8298 49.2196 67.2536 46.848 65.5741 45.168L63.1036 42.6977C63.8566 41.2513 63.6271 39.4214 62.4145 38.2086L44.7833 20.5774C43.287 19.0806 40.852 19.0806 39.3557 20.5774L37.3201 22.613L15.7918 1.08473C15.2927 0.585038 14.4821 0.585038 13.9829 1.08473C13.4832 1.58417 13.4832 2.39422 13.9829 2.89366L35.5112 24.4222L29.7779 30.1552L8.24859 8.62695C7.74941 8.12726 6.93885 8.12726 6.43967 8.62695C5.93997 9.12639 5.93997 9.93644 6.43967 10.4359L10.5393 14.5355L1.60009 23.4747C0.875495 24.1991 0.476098 25.1626 0.475586 26.1884V35.7409C0.476098 36.7661 0.875239 37.7297 1.60009 38.4543L11.5392 48.3931L10.9604 48.9719C9.46393 50.4684 9.46393 52.9029 10.9604 54.3994L14.9897 58.4287C15.7146 59.1536 16.6784 59.5527 17.7036 59.5527H44.9076C45.9326 59.5527 46.8962 59.1536 47.621 58.4287L49.6515 56.3985L51.9975 58.7444C53.2763 60.0232 54.9562 60.6629 56.6357 60.6629C57.1917 60.6629 57.7474 60.5912 58.2888 60.451L60.8579 63.0201L60.8456 63.0324C60.3459 63.5318 60.3459 64.3419 60.8456 64.8413C61.0953 65.0913 61.4228 65.2161 61.7501 65.2161C62.0773 65.2161 62.4051 65.0913 62.6545 64.8413L62.6668 64.829L64.2864 66.4486L64.2741 66.4609C63.7744 66.9604 63.7744 67.7704 64.2741 68.2698C64.5238 68.5198 64.8513 68.6447 65.1786 68.6447C65.5058 68.6447 65.8336 68.5198 66.0831 68.2698L66.0953 68.2575L68.1504 70.3126L68.1501 73.43C68.1501 74.1364 68.7228 74.7093 69.4294 74.7093C70.1359 74.7093 70.7087 74.1367 70.7087 73.43L70.709 69.7827C70.709 69.4435 70.5744 69.118 70.3342 68.8783L67.9043 66.4484L73.3321 61.0206L77.2605 64.949C77.9851 65.6739 78.3845 66.6377 78.3848 67.6629V86.8237H70.7087V81.8711C70.7087 81.1644 70.1361 80.5918 69.4294 80.5918C68.7228 80.5918 68.1501 81.1644 68.1501 81.8711V86.8237C68.1501 88.2345 69.2979 89.3823 70.7087 89.3823H72.9997V94.4824C69.6607 92.1858 65.3211 91.6751 61.4622 93.2926C56.6748 95.2991 53.7012 100.126 54.063 105.304C54.0827 105.585 54.1945 105.851 54.3808 106.062C56.7293 108.718 60.0522 110.148 63.4492 110.148C65.0238 110.148 66.615 109.841 68.1315 109.205C70.8697 108.058 73.0125 105.987 74.279 103.456C75.5455 105.987 77.6883 108.058 80.4265 109.205C81.9433 109.841 83.5339 110.148 85.1087 110.148C88.5055 110.148 91.8292 108.717 94.1772 106.062C94.3634 105.851 94.4753 105.585 94.4949 105.304C94.8567 100.126 91.8831 95.2993 87.096 93.2929ZM21.2706 38.6618L21.0541 33.464C21.0139 32.4994 20.6158 31.5926 19.9332 30.9103L17.1011 28.0784C15.6051 26.5821 13.1703 26.5816 11.6738 28.0784C10.1773 29.5749 10.1773 32.0094 11.6738 33.506L13.4471 35.2793L13.6283 39.6282L8.15162 34.1512V27.7785L15.9666 19.9633L27.9679 31.9647L21.2706 38.6618ZM3.03418 35.7409V26.1894C3.03444 25.8471 3.16748 25.5257 3.40876 25.2844C3.40901 25.2844 3.40901 25.2844 3.40901 25.2842L12.3482 16.345L14.1574 18.1539L5.96761 26.3439C5.72761 26.5839 5.59277 26.9091 5.59277 27.2484V34.6811C5.59277 35.0204 5.72736 35.3458 5.96761 35.5856L15.1568 44.775L13.3479 46.584L3.40876 36.6453C3.16723 36.4041 3.03444 36.0825 3.03418 35.7409ZM16.3005 42.3004L15.9827 34.6742C15.9691 34.3536 15.8358 34.0499 15.6089 33.823L13.4827 31.6968C12.984 31.1978 12.984 30.3863 13.4827 29.8873C13.7242 29.6458 14.0456 29.5128 14.3874 29.5128C14.729 29.5128 15.0504 29.6458 15.2919 29.8873L18.1237 32.7192C18.3512 32.9469 18.4837 33.2491 18.497 33.5704L18.8117 41.1203L16.966 42.9661L16.3005 42.3004ZM53.8064 56.9358L50.5562 53.6848C50.3162 53.4448 49.9908 53.31 49.6515 53.31C49.3122 53.31 48.9868 53.4446 48.747 53.6848L45.8118 56.62C45.5736 56.858 45.2438 56.9946 44.9074 56.9946H17.7034C17.3615 56.9946 17.0402 56.8616 16.7986 56.62L12.7694 52.5908C12.2707 52.0918 12.2707 51.2803 12.7694 50.7813C12.7694 50.7813 38.2248 25.3259 38.2253 25.3254L41.1641 22.3866C41.6633 21.8879 42.4744 21.8879 42.9736 22.3866L60.6046 40.0178C61.1033 40.5165 61.1033 41.3283 60.6048 41.8273L60.5291 41.9027C60.5237 41.9079 60.5189 41.9127 60.5135 41.9181C60.5084 41.9232 60.5035 41.9283 60.4984 41.9335L54.7155 47.7164C54.2158 48.2158 54.2158 49.0259 54.7155 49.5253C55.2147 50.025 56.0252 50.025 56.5244 49.5253L61.4182 44.632L63.7639 46.9777C65.3239 48.538 65.3239 51.0763 63.7642 52.6363L59.4645 56.936C58.7087 57.6916 57.7039 58.1079 56.6352 58.1079C55.5667 58.1076 54.5622 57.6913 53.8064 56.9358ZM60.7049 59.2495C60.9016 59.0937 61.0923 58.9264 61.2739 58.7447L65.5739 54.445C65.7742 54.2446 65.9569 54.0336 66.126 53.815L68.0949 55.7836L62.6671 61.2114L60.7049 59.2495ZM66.0953 64.6402L64.4757 63.0206L69.9035 57.5928L71.5231 59.2124L66.0953 64.6402ZM67.1426 106.846C63.5009 108.372 59.3194 107.501 56.5948 104.689C56.4996 100.772 58.8102 97.1784 62.4511 95.6527C66.0902 94.1275 70.2717 95.0002 72.9974 97.8137C73.0923 101.728 70.7822 105.32 67.1426 106.846ZM81.4157 106.846C77.7761 105.32 75.4659 101.728 75.5609 97.8137C78.2863 95.0002 82.468 94.1275 86.1071 95.6527C89.7475 97.1784 92.0584 100.772 91.9635 104.689C89.2391 107.501 85.0568 108.371 81.4157 106.846Z" fill="#023872"/>
<path d="M35.724 45.366L30.5508 40.1927C30.0511 39.693 30.0511 38.8833 30.5508 38.3836C31.0505 37.8839 31.8603 37.8839 32.36 38.3836L37.5332 43.5568C38.0329 44.0565 38.0329 44.8663 37.5332 45.366C37.0338 45.8657 36.2237 45.8657 35.724 45.366Z" fill="#023872"/>
<path d="M30.0267 45.6367L27.5672 43.1771C27.0675 42.6774 27.0675 41.8676 27.5672 41.3679C28.0668 40.8682 28.8766 40.8682 29.3763 41.3679L31.8359 43.8275C32.3356 44.3272 32.3356 45.137 31.8359 45.6367C31.3362 46.1364 30.5264 46.1364 30.0267 45.6367Z" fill="#023872"/>
<path d="M50.2991 82.1728C49.9718 82.1728 49.6443 82.0479 49.3946 81.7982C48.8949 81.2985 48.8949 80.4885 49.3943 79.989L50.2458 79.1375L48.966 78.3259C48.638 78.1177 48.4223 77.7723 48.3796 77.3862C48.3369 77.0001 48.472 76.6155 48.7465 76.341L50.7274 74.3601C51.2266 73.8604 52.0371 73.8604 52.5363 74.3601C53.036 74.8596 53.036 75.6696 52.5363 76.169L51.685 77.0205L52.9646 77.8321C53.2926 78.0404 53.5083 78.3858 53.551 78.7719C53.5938 79.158 53.4589 79.5426 53.1841 79.8171L51.2035 81.798C50.9541 82.0479 50.6266 82.1728 50.2991 82.1728Z" fill="#023872"/>
<path d="M73.8799 36.0585C73.5526 36.0585 73.2249 35.9337 72.9754 35.6837C72.4757 35.1843 72.4757 34.3742 72.9754 33.8748L73.8267 33.0233L72.5468 32.2117C72.2188 32.0037 72.0031 31.658 71.9604 31.2719C71.9177 30.8858 72.0525 30.5013 72.3276 30.2267L74.3084 28.2459C74.8076 27.7462 75.6182 27.7462 76.1174 28.2459C76.6171 28.7453 76.6171 29.5554 76.1174 30.0548L75.2661 30.9063L76.5459 31.7179C76.8739 31.9261 77.0896 32.2716 77.1324 32.6576C77.1751 33.0437 77.0403 33.4283 76.7652 33.7028L74.7843 35.6837C74.5349 35.9337 74.2074 36.0585 73.8799 36.0585Z" fill="#023872"/>
<path d="M81.1306 49.835C80.4239 49.835 79.8513 49.2623 79.8513 48.5557C79.8513 47.709 79.1628 47.0205 78.3162 47.0205C77.6095 47.0205 77.0369 46.4479 77.0369 45.7412C77.0369 45.0345 77.6095 44.4619 78.3162 44.4619C79.1628 44.4619 79.8513 43.7734 79.8513 42.9268C79.8513 42.2201 80.4239 41.6475 81.1306 41.6475C81.8373 41.6475 82.4099 42.2201 82.4099 42.9268C82.4099 43.7734 83.0984 44.4619 83.9451 44.4619C84.6518 44.4619 85.2244 45.0345 85.2244 45.7412C85.2244 46.4479 84.6518 47.0205 83.9451 47.0205C83.0984 47.0205 82.4099 47.709 82.4099 48.5557C82.4099 49.2621 81.8373 49.835 81.1306 49.835Z" fill="#023872"/>
<path d="M44.6853 96.5999C43.9786 96.5999 43.406 96.0272 43.406 95.3206C43.406 94.4739 42.7175 93.7854 41.8708 93.7854C41.1642 93.7854 40.5916 93.2128 40.5916 92.5061C40.5916 91.7994 41.1642 91.2268 41.8708 91.2268C42.7175 91.2268 43.406 90.538 43.406 89.6914C43.406 88.9847 43.9786 88.4121 44.6853 88.4121C45.392 88.4121 45.9646 88.9847 45.9646 89.6914C45.9646 90.538 46.6531 91.2268 47.4998 91.2268C48.2064 91.2268 48.779 91.7994 48.779 92.5061C48.779 93.2128 48.2064 93.7854 47.4998 93.7854C46.6531 93.7854 45.9646 94.4739 45.9646 95.3206C45.9646 96.0272 45.392 96.5999 44.6853 96.5999Z" fill="#023872"/>
<path d="M21.1392 76.5439C20.4325 76.5439 19.8599 75.9713 19.8599 75.2646C19.8599 74.418 19.1713 73.7295 18.3247 73.7295C17.618 73.7295 17.0454 73.1569 17.0454 72.4502C17.0454 71.7435 17.618 71.1709 18.3247 71.1709C19.1713 71.1709 19.8599 70.4824 19.8599 69.6357C19.8599 68.9291 20.4325 68.3564 21.1392 68.3564C21.8458 68.3564 22.4185 68.9291 22.4185 69.6357C22.4185 70.4824 23.107 71.1709 23.9536 71.1709C24.6603 71.1709 25.2329 71.7435 25.2329 72.4502C25.2329 73.1569 24.6603 73.7295 23.9536 73.7295C23.107 73.7295 22.4185 74.418 22.4185 75.2646C22.4185 75.9713 21.8456 76.5439 21.1392 76.5439Z" fill="#023872"/>
</svg>
