<svg width="131" height="137" viewBox="0 0 131 137" fill="none" xmlns="http://www.w3.org/2000/svg">
<g opacity="0.1">
<path opacity="0.1" d="M60.1854 83.4641C53.2806 83.6565 47.728 89.4024 47.7003 96.3739C47.6892 99.1349 48.5336 101.696 49.9807 103.804C51.6496 106.235 53.1098 108.805 54.3195 111.499L59.2288 122.433H58.8449C58.0387 122.433 57.385 123.093 57.385 123.907C57.385 124.721 58.0387 125.38 58.8449 125.38H62.4526C63.2587 125.38 63.9125 124.721 63.9125 123.907C63.9125 123.093 63.2587 122.433 62.4526 122.433H61.8698L66.8194 111.409C68.0238 108.726 69.5013 106.182 71.1521 103.753C72.5691 101.669 73.3983 99.1458 73.3983 96.427C73.398 89.1431 67.4478 83.2616 60.1854 83.4641Z" fill="#023872"/>
<path opacity="0.1" d="M121.59 69.8793C123.007 67.795 123.836 65.2718 123.836 62.5533C123.836 55.2691 117.886 49.3876 110.624 49.59C103.719 49.7825 98.1665 55.5284 98.1388 62.4999C98.1277 65.2609 98.9721 67.8221 100.419 69.9297C102.088 72.3606 103.548 74.9309 104.758 77.6247L109.667 88.5593H109.088C108.282 88.5593 107.628 89.2188 107.628 90.0328C107.628 90.8467 108.282 91.5062 109.088 91.5062H112.745C113.551 91.5062 114.205 90.8467 114.205 90.0328C114.205 89.2188 113.551 88.5593 112.745 88.5593H112.308L117.258 77.5348C118.462 74.852 119.939 72.3079 121.59 69.8793Z" fill="#023872"/>
<path opacity="0.1" d="M12.0181 51.3418L19.185 67.3053C19.6755 68.3981 21.2131 68.3981 21.7036 67.3053L28.9251 51.2204C30.5541 47.5919 32.5527 44.1507 34.7854 40.8658C35.1451 40.3365 35.4768 39.7863 35.7784 39.2173C37.4929 39.8738 39.3508 40.2363 41.2936 40.2363C49.8836 40.2363 56.847 33.2079 56.847 24.5383C56.847 15.8688 49.8836 8.84033 41.2936 8.84033C36.0526 8.84033 31.4207 11.4593 28.6028 15.4686C26.0348 14.0876 23.0847 13.335 19.952 13.4225C10.6128 13.6827 3.10251 21.4547 3.06484 30.8842C3.04995 34.6189 4.19188 38.083 6.14931 40.9339C8.40747 44.2217 10.3824 47.6982 12.0181 51.3418Z" fill="#023872"/>
<path opacity="0.1" d="M97.1759 133.774C105.663 132.404 111.442 124.35 110.085 115.784C108.728 107.219 100.748 101.385 92.2611 102.755C83.7742 104.125 77.9945 112.179 79.3517 120.745C80.7089 129.311 88.6891 135.144 97.1759 133.774Z" fill="#023872"/>
<path opacity="0.1" d="M42.9657 88.5596H41.2138C40.4076 88.5596 39.7539 89.2192 39.7539 90.0333C39.7539 90.8474 40.4076 91.5071 41.2138 91.5071H42.9657C43.7718 91.5071 44.4255 90.8474 44.4255 90.0333C44.4255 89.2192 43.7718 88.5596 42.9657 88.5596Z" fill="#023872"/>
<path opacity="0.1" d="M11.9627 89.8455C10.7499 90.3303 9.58429 90.9497 8.4993 91.6873C7.83038 92.1418 7.65315 93.0574 8.10367 93.7325C8.38572 94.1551 8.84646 94.3832 9.31596 94.3832C9.59626 94.3832 9.88006 94.3018 10.13 94.1318C11.0412 93.5124 12.0194 92.9925 13.0375 92.5859C13.787 92.2862 14.1543 91.4301 13.8577 90.6736C13.5604 89.9171 12.7122 89.547 11.9627 89.8455Z" fill="#023872"/>
<path opacity="0.1" d="M40.8059 122.434H37.1982C36.392 122.434 35.7383 123.093 35.7383 123.907C35.7383 124.722 36.392 125.381 37.1982 125.381H40.8059C41.612 125.381 42.2657 124.722 42.2657 123.907C42.2657 123.094 41.612 122.434 40.8059 122.434Z" fill="#023872"/>
<path opacity="0.1" d="M19.1592 122.434H18.6736C18.6722 122.434 18.671 122.434 18.6695 122.434C17.7182 122.434 16.7655 122.345 15.8385 122.17C15.0457 122.021 14.2834 122.547 14.135 123.347C13.9867 124.148 14.5091 124.918 15.3015 125.067C16.4052 125.276 17.5384 125.381 18.6692 125.381H18.6742H19.1595C19.9656 125.381 20.6194 124.722 20.6194 123.907C20.6191 123.094 19.9653 122.434 19.1592 122.434Z" fill="#023872"/>
<path opacity="0.1" d="M23.175 88.5596H19.5673C18.7612 88.5596 18.1074 89.2192 18.1074 90.0333C18.1074 90.8474 18.7612 91.5071 19.5673 91.5071H23.175C23.9811 91.5071 24.6349 90.8474 24.6349 90.0333C24.6349 89.2192 23.9811 88.5596 23.175 88.5596Z" fill="#023872"/>
<path opacity="0.1" d="M29.9821 122.434H26.3744C25.5683 122.434 24.9146 123.093 24.9146 123.907C24.9146 124.722 25.5683 125.381 26.3744 125.381H29.9821C30.7883 125.381 31.442 124.722 31.442 123.907C31.442 123.094 30.7886 122.434 29.9821 122.434Z" fill="#023872"/>
<path opacity="0.1" d="M33.9981 88.5596H30.3901C29.5839 88.5596 28.9302 89.2192 28.9302 90.0333C28.9302 90.8474 29.5839 91.5071 30.3901 91.5071H33.9981C34.8043 91.5071 35.458 90.8474 35.458 90.0333C35.458 89.2192 34.8043 88.5596 33.9981 88.5596Z" fill="#023872"/>
<path opacity="0.1" d="M3.42132 108.443C3.34541 107.633 2.63268 107.035 1.83061 107.115C1.02795 107.191 0.438726 107.91 0.514349 108.72C0.637274 110.035 0.901518 111.337 1.2992 112.591C1.49775 113.217 2.07149 113.616 2.68933 113.616C2.83678 113.616 2.98686 113.593 3.1346 113.545C3.90251 113.297 4.32589 112.468 4.07974 111.693C3.74601 110.64 3.52439 109.547 3.42132 108.443Z" fill="#023872"/>
<path opacity="0.1" d="M9.82433 119.595C8.9297 118.955 8.10048 118.215 7.36001 117.397C6.81634 116.797 5.89281 116.755 5.29746 117.303C4.70211 117.852 4.66065 118.784 5.20432 119.385C6.08522 120.359 7.07153 121.238 8.1358 121.999C8.39216 122.182 8.68677 122.271 8.97875 122.271C9.436 122.271 9.88652 122.054 10.1712 121.649C10.6375 120.985 10.4822 120.065 9.82433 119.595Z" fill="#023872"/>
<path opacity="0.1" d="M5.12355 96.8684C4.43623 96.4423 3.53723 96.6601 3.11561 97.3538C2.43151 98.4789 1.8677 99.6804 1.43937 100.925C1.17484 101.693 1.57777 102.533 2.33954 102.8C2.49808 102.855 2.65955 102.882 2.81867 102.882C3.42307 102.882 3.98834 102.5 4.19769 101.891C4.55682 100.848 5.03041 99.8395 5.60444 98.895C6.02605 98.2016 5.81087 97.2942 5.12355 96.8684Z" fill="#023872"/>
<path opacity="0.1" d="M51.6291 122.434H48.0214C47.2153 122.434 46.5615 123.093 46.5615 123.907C46.5615 124.722 47.2153 125.381 48.0214 125.381H51.6291C52.4352 125.381 53.089 124.722 53.089 123.907C53.089 123.094 52.4352 122.434 51.6291 122.434Z" fill="#023872"/>
<path opacity="0.1" d="M71.4501 122.434H69.6982C68.892 122.434 68.2383 123.093 68.2383 123.907C68.2383 124.722 68.892 125.381 69.6982 125.381H71.4501C72.2563 125.381 72.91 124.722 72.91 123.907C72.91 123.094 72.2566 122.434 71.4501 122.434Z" fill="#023872"/>
<path opacity="0.1" d="M128.638 74.3713C129.315 73.929 129.508 73.0167 129.07 72.3336C128.711 71.7743 128.304 71.2401 127.862 70.7459C127.321 70.1421 126.398 70.0956 125.8 70.6416C125.202 71.1874 125.155 72.1191 125.696 72.7223C126.034 73.0998 126.345 73.5079 126.619 73.9352C126.898 74.3707 127.367 74.6079 127.846 74.6079C128.118 74.6079 128.393 74.5316 128.638 74.3713Z" fill="#023872"/>
<path opacity="0.1" d="M129.67 78.7128C128.867 78.63 128.153 79.2232 128.073 80.0328C127.968 81.0981 127.687 82.1284 127.238 83.0959C126.896 83.8329 127.211 84.7102 127.941 85.055C128.141 85.1499 128.352 85.1947 128.559 85.1947C129.108 85.1947 129.634 84.8808 129.882 84.346C130.472 83.0758 130.841 81.7231 130.979 80.3254C131.058 79.5156 130.473 78.7938 129.67 78.7128Z" fill="#023872"/>
<path opacity="0.1" d="M87.1435 91.5071H90.8007C91.6069 91.5071 92.2606 90.8474 92.2606 90.0333C92.2606 89.2192 91.6069 88.5596 90.8007 88.5596H87.1435C86.3373 88.5596 85.6836 89.2192 85.6836 90.0333C85.6836 90.8474 86.3373 91.5071 87.1435 91.5071Z" fill="#023872"/>
<path opacity="0.1" d="M98.1157 91.5071H101.773C102.579 91.5071 103.233 90.8474 103.233 90.0333C103.233 89.2192 102.579 88.5596 101.773 88.5596H98.1157C97.3095 88.5596 96.6558 89.2192 96.6558 90.0333C96.6558 90.8474 97.3092 91.5071 98.1157 91.5071Z" fill="#023872"/>
<path opacity="0.1" d="M122.893 87.5782C121.945 88.0527 120.931 88.3592 119.879 88.4888C119.079 88.5872 118.509 89.3219 118.607 90.1296C118.697 90.8769 119.327 91.425 120.054 91.425C120.113 91.425 120.172 91.4212 120.233 91.4138C121.614 91.2438 122.945 90.8419 124.191 90.2183C124.913 89.8567 125.208 88.9724 124.85 88.2436C124.492 87.5149 123.616 87.2173 122.893 87.5782Z" fill="#023872"/>
<path opacity="0.1" d="M81.2776 90.0333C81.2776 89.2192 80.6239 88.5596 79.8177 88.5596H78.0658C77.2597 88.5596 76.606 89.2192 76.606 90.0333C76.606 90.8474 77.2597 91.5071 78.0658 91.5071H79.8177C80.6239 91.5071 81.2776 90.8474 81.2776 90.0333Z" fill="#023872"/>
<path opacity="0.1" d="M29.2641 66.6514C28.458 66.6514 27.8042 67.311 27.8042 68.1251C27.8042 68.9391 28.458 69.5988 29.2641 69.5988H31.016C31.8222 69.5988 32.476 68.9391 32.476 68.1251C32.476 67.311 31.8222 66.6514 31.016 66.6514H29.2641Z" fill="#023872"/>
<path opacity="0.1" d="M48.8114 66.6514C48.0053 66.6514 47.3516 67.311 47.3516 68.1251C47.3516 68.9391 48.0053 69.5988 48.8114 69.5988H52.3703C53.1765 69.5988 53.8302 68.9391 53.8302 68.1251C53.8302 67.311 53.1765 66.6514 52.3703 66.6514H48.8114Z" fill="#023872"/>
<path opacity="0.1" d="M38.1342 66.6514C37.3281 66.6514 36.6743 67.311 36.6743 68.1251C36.6743 68.9391 37.3281 69.5988 38.1342 69.5988H41.6932C42.4993 69.5988 43.1531 68.9391 43.1531 68.1251C43.1531 67.311 42.4993 66.6514 41.6932 66.6514H38.1342Z" fill="#023872"/>
<path opacity="0.1" d="M73.7249 66.6514H70.166C69.3598 66.6514 68.7061 67.311 68.7061 68.1251C68.7061 68.9391 69.3598 69.5988 70.166 69.5988H73.7249C74.5311 69.5988 75.1848 68.9391 75.1848 68.1251C75.1848 67.3113 74.5311 66.6514 73.7249 66.6514Z" fill="#023872"/>
<path opacity="0.1" d="M80.8432 69.5988H84.4021C85.2082 69.5988 85.8619 68.9391 85.8619 68.1251C85.8619 67.311 85.2082 66.6514 84.4021 66.6514H80.8432C80.037 66.6514 79.3833 67.311 79.3833 68.1251C79.3833 68.9391 80.037 69.5988 80.8432 69.5988Z" fill="#023872"/>
<path opacity="0.1" d="M59.4887 69.5988H63.0477C63.8538 69.5988 64.5076 68.9391 64.5076 68.1251C64.5076 67.311 63.8538 66.6514 63.0477 66.6514H59.4887C58.6826 66.6514 58.0288 67.311 58.0288 68.1251C58.0288 68.9391 58.6826 69.5988 59.4887 69.5988Z" fill="#023872"/>
<path opacity="0.1" d="M91.5204 69.5988H93.2723C94.0784 69.5988 94.7322 68.9391 94.7322 68.1251C94.7322 67.311 94.0784 66.6514 93.2723 66.6514H91.5204C90.7143 66.6514 90.0605 67.311 90.0605 68.1251C90.0605 68.9391 90.714 69.5988 91.5204 69.5988Z" fill="#023872"/>
</g>
<path d="M39.9122 23.6518C39.9122 13.6945 31.3048 5.65457 20.7992 5.93125C10.8109 6.19423 2.77872 14.0489 2.73844 23.5788C2.72251 27.3532 3.94379 30.8542 6.03725 33.7354C8.45172 37.0583 10.5639 40.5717 12.3136 44.2544L19.9785 60.3878C20.5031 61.4921 22.1475 61.4921 22.6721 60.3878L30.3955 44.1317C32.1377 40.4645 34.2751 36.9868 36.6631 33.6669C38.7125 30.8172 39.9122 27.3681 39.9122 23.6518Z" fill="#023872"/>
<path d="M30.7761 26.1504C32.109 20.3528 28.5328 14.5623 22.7886 13.2171C17.0443 11.8719 11.3072 15.4812 9.97438 21.2788C8.64153 27.0765 12.2177 32.8669 17.9619 34.2121C23.7061 35.5574 29.4433 31.948 30.7761 26.1504Z" fill="white"/>
<path d="M73.3981 89.06C73.3981 81.7759 67.4478 75.8944 60.1854 76.0969C53.2806 76.2893 47.728 82.0352 47.7003 89.0067C47.6892 91.7677 48.5336 94.3288 49.9807 96.4364C51.6496 98.8673 53.1098 101.438 54.3195 104.131L59.6184 115.933C59.981 116.741 61.1177 116.741 61.4803 115.933L66.8195 104.042C68.0239 101.359 69.5013 98.8149 71.1522 96.3861C72.5688 94.302 73.3981 91.7789 73.3981 89.06Z" fill="#023872"/>
<path d="M60.5044 96.6483C64.6043 96.6483 67.928 93.2938 67.928 89.1557C67.928 85.0176 64.6043 81.6631 60.5044 81.6631C56.4045 81.6631 53.0808 85.0176 53.0808 89.1557C53.0808 93.2938 56.4045 96.6483 60.5044 96.6483Z" fill="white"/>
<path d="M126.577 56.2809C126.577 48.8348 120.494 42.8226 113.071 43.0296C106.013 43.2263 100.337 49.0999 100.308 56.2264C100.297 59.0488 101.16 61.6671 102.639 63.8213C104.345 66.3063 105.838 68.9337 107.074 71.6874L112.491 83.7518C112.862 84.5775 114.024 84.5775 114.394 83.7518L119.852 71.5955C121.083 68.8533 122.594 66.2524 124.281 63.7698C125.729 61.6394 126.577 59.0602 126.577 56.2809Z" fill="#023872"/>
<path d="M113.397 64.0385C117.588 64.0385 120.985 60.6093 120.985 56.3793C120.985 52.1493 117.588 48.7202 113.397 48.7202C109.206 48.7202 105.808 52.1493 105.808 56.3793C105.808 60.6093 109.206 64.0385 113.397 64.0385Z" fill="white"/>
<path d="M42.9652 84.1401H41.2133C40.4072 84.1401 39.7534 83.4804 39.7534 82.6663C39.7534 81.8521 40.4072 81.1924 41.2133 81.1924H42.9652C43.7713 81.1924 44.425 81.8521 44.425 82.6663C44.425 83.4804 43.7716 84.1401 42.9652 84.1401Z" fill="#023872"/>
<path d="M70.5251 78.708C67.7323 75.9658 64.0455 74.5177 60.145 74.6247C52.5089 74.8377 46.271 81.2868 46.2404 89.0013C46.2284 91.9774 47.1067 94.8389 48.7809 97.2766C50.425 99.6713 51.8411 102.182 52.9897 104.74L57.8176 115.494C57.5504 115.761 57.3846 116.131 57.3846 116.54C57.3846 117.354 58.0383 118.014 58.8445 118.014H62.4522C63.2583 118.014 63.9121 117.354 63.9121 116.54C63.9121 116.063 63.6835 115.643 63.3346 115.374L68.1487 104.65C69.253 102.191 70.6291 99.7606 72.3555 97.2203C73.9924 94.8121 74.8578 91.9907 74.8578 89.0608C74.8578 85.1276 73.3191 81.4507 70.5251 78.708ZM69.9479 95.5535C68.1233 98.2376 66.6649 100.816 65.4891 103.434L60.5488 114.438L55.6488 103.524C54.428 100.805 52.9243 98.1383 51.1803 95.598C49.8489 93.6589 49.1502 91.3818 49.1599 89.0131C49.1844 82.8729 54.1483 77.7396 60.2253 77.5701C60.3342 77.5672 60.4425 77.5654 60.5511 77.5654C63.536 77.5654 66.344 78.7138 68.4892 80.82C70.7132 83.0034 71.9377 85.93 71.9377 89.0605C71.938 91.3928 71.2498 93.638 69.9479 95.5535Z" fill="#023872"/>
<path d="M19.1587 115.066H18.6737C17.7204 115.066 16.7662 114.977 15.838 114.802C15.0447 114.654 14.2826 115.18 14.1345 115.98C13.9862 116.78 14.5086 117.55 15.301 117.7C16.4059 117.909 17.5405 118.014 18.6734 118.014H19.1584C19.9645 118.014 20.6183 117.354 20.6183 116.54C20.6186 115.726 19.9651 115.066 19.1587 115.066Z" fill="#023872"/>
<path d="M11.9627 82.4784C10.7499 82.9632 9.58461 83.5826 8.49934 84.3203C7.83043 84.7747 7.65349 85.6904 8.10401 86.3655C8.38605 86.7881 8.84679 87.0162 9.31628 87.0162C9.59658 87.0162 9.88038 86.9349 10.1303 86.7649C11.0413 86.1454 12.0194 85.6255 13.0375 85.2188C13.787 84.9191 14.1543 84.063 13.8577 83.3065C13.5607 82.5497 12.7122 82.1798 11.9627 82.4784Z" fill="#023872"/>
<path d="M9.82429 112.229C8.92966 111.588 8.10045 110.849 7.35999 110.031C6.81633 109.431 5.8928 109.389 5.29745 109.937C4.70211 110.486 4.66065 111.418 5.20431 112.019C6.08521 112.992 7.07151 113.871 8.13578 114.633C8.39213 114.816 8.68674 114.904 8.97872 114.904C9.43595 114.904 9.88648 114.688 10.1709 114.283C10.6372 113.619 10.4821 112.699 9.82429 112.229Z" fill="#023872"/>
<path d="M3.42084 101.077C3.34492 100.266 2.6319 99.6692 1.83012 99.7482C1.02746 99.8248 0.438238 100.543 0.513861 101.353C0.636786 102.668 0.901029 103.971 1.29871 105.225C1.49726 105.85 2.071 106.25 2.68884 106.25C2.83629 106.25 2.98637 106.227 3.13411 106.179C3.90202 105.931 4.3254 105.102 4.07926 104.327C3.74581 103.274 3.5242 102.181 3.42084 101.077Z" fill="#023872"/>
<path d="M5.12369 89.5021C4.43636 89.0762 3.53733 89.2937 3.11571 89.9874C2.43188 91.1123 1.86776 92.314 1.43913 93.5579C1.17459 94.3265 1.57753 95.1663 2.33903 95.4333C2.49757 95.489 2.65934 95.5153 2.81818 95.5153C3.42258 95.5153 3.98758 95.1336 4.19722 94.5254C4.55666 93.4813 5.03026 92.4729 5.6043 91.5287C6.02593 90.8353 5.81073 89.9279 5.12369 89.5021Z" fill="#023872"/>
<path d="M33.9982 81.1924H30.3906C29.5844 81.1924 28.9307 81.8521 28.9307 82.6663C28.9307 83.4804 29.5844 84.1401 30.3906 84.1401H33.9982C34.8044 84.1401 35.4581 83.4804 35.4581 82.6663C35.4581 81.8521 34.8044 81.1924 33.9982 81.1924Z" fill="#023872"/>
<path d="M40.8054 115.066H37.1977C36.3915 115.066 35.7378 115.726 35.7378 116.54C35.7378 117.354 36.3915 118.014 37.1977 118.014H40.8054C41.6115 118.014 42.2653 117.354 42.2653 116.54C42.2653 115.726 41.6115 115.066 40.8054 115.066Z" fill="#023872"/>
<path d="M51.6286 115.066H48.0209C47.2148 115.066 46.561 115.726 46.561 116.54C46.561 117.354 47.2148 118.014 48.0209 118.014H51.6286C52.4348 118.014 53.0885 117.354 53.0885 116.54C53.0885 115.726 52.4348 115.066 51.6286 115.066Z" fill="#023872"/>
<path d="M23.1745 81.1924H19.5668C18.7607 81.1924 18.1069 81.8521 18.1069 82.6663C18.1069 83.4804 18.7607 84.1401 19.5668 84.1401H23.1745C23.9807 84.1401 24.6344 83.4804 24.6344 82.6663C24.6344 81.8521 23.9807 81.1924 23.1745 81.1924Z" fill="#023872"/>
<path d="M29.982 115.066H26.374C25.5678 115.066 24.9141 115.726 24.9141 116.54C24.9141 117.354 25.5678 118.014 26.374 118.014H29.982C30.7881 118.014 31.4419 117.354 31.4419 116.54C31.4419 115.726 30.7881 115.066 29.982 115.066Z" fill="#023872"/>
<path d="M71.45 118.014H69.6982C68.892 118.014 68.2383 117.354 68.2383 116.54C68.2383 115.726 68.892 115.066 69.6982 115.066H71.45C72.2562 115.066 72.9099 115.726 72.9099 116.54C72.9099 117.354 72.2562 118.014 71.45 118.014Z" fill="#023872"/>
<path d="M127.846 67.2413C127.367 67.2413 126.898 67.0038 126.619 66.5685C126.344 66.1409 126.033 65.7328 125.696 65.3556C125.155 64.752 125.201 63.8202 125.799 63.2747C126.397 62.729 127.32 62.7755 127.861 63.3791C128.304 63.873 128.71 64.407 129.069 64.9669C129.508 65.65 129.314 66.5624 128.637 67.0047C128.392 67.165 128.117 67.2413 127.846 67.2413Z" fill="#023872"/>
<path d="M110.583 40.7503C102.947 40.9633 96.7093 47.4127 96.6783 55.1271C96.6664 58.1035 97.5449 60.965 99.2189 63.4021C100.864 65.7976 102.28 68.309 103.428 70.8661L108.202 81.5012C107.855 81.7705 107.628 82.1896 107.628 82.6658C107.628 83.4798 108.281 84.1393 109.087 84.1393H112.745C113.551 84.1393 114.205 83.4798 114.205 82.6658C114.205 82.2382 114.021 81.8566 113.733 81.5875L118.587 70.7765C119.692 68.3158 121.068 65.8855 122.794 63.3464C124.431 60.9382 125.296 58.1168 125.296 55.1867C125.296 51.2537 123.757 47.5771 120.964 44.8341C118.171 42.092 114.488 40.6471 110.583 40.7503ZM120.386 61.6787C118.562 64.3619 117.104 66.9402 115.927 69.56L110.987 80.5638L106.087 69.6499C104.867 66.9313 103.363 64.2649 101.619 61.7235C100.288 59.785 99.5888 57.5079 99.5981 55.1392C99.6227 48.9987 104.587 43.8655 110.664 43.696C110.772 43.6931 110.881 43.6913 110.989 43.6913C113.974 43.6913 116.783 44.84 118.928 46.9462C121.151 49.1296 122.376 52.0559 122.376 55.1864C122.376 57.5189 121.688 59.7638 120.386 61.6787Z" fill="#023872"/>
<path d="M90.8008 81.1924H87.1435C86.3373 81.1924 85.6836 81.8521 85.6836 82.6663C85.6836 83.4804 86.3373 84.1401 87.1435 84.1401H90.8008C91.607 84.1401 92.2607 83.4804 92.2607 82.6663C92.2607 81.8521 91.607 81.1924 90.8008 81.1924Z" fill="#023872"/>
<path d="M101.772 81.1924H98.1151C97.309 81.1924 96.6553 81.8521 96.6553 82.6663C96.6553 83.4804 97.309 84.1401 98.1151 84.1401H101.772C102.579 84.1401 103.232 83.4804 103.232 82.6663C103.232 81.8521 102.579 81.1924 101.772 81.1924Z" fill="#023872"/>
<path d="M129.67 71.3457C128.871 71.2682 128.153 71.8561 128.073 72.6657C127.967 73.731 127.687 74.7615 127.238 75.7287C126.896 76.4657 127.21 77.343 127.941 77.6878C128.141 77.7827 128.351 77.8275 128.559 77.8275C129.108 77.8275 129.634 77.5137 129.882 76.9788C130.471 75.709 130.84 74.3563 130.978 72.9583C131.058 72.1485 130.473 71.4268 129.67 71.3457Z" fill="#023872"/>
<path d="M122.893 80.2111C121.945 80.6856 120.931 80.992 119.879 81.122C119.078 81.2207 118.509 81.9554 118.607 82.7631C118.697 83.5102 119.327 84.058 120.054 84.058C120.113 84.058 120.173 84.0541 120.233 84.0468C121.614 83.8764 122.946 83.4742 124.191 82.8509C124.913 82.4894 125.208 81.605 124.85 80.8762C124.492 80.1475 123.616 79.8501 122.893 80.2111Z" fill="#023872"/>
<path d="M79.8175 84.1401H78.0656C77.2595 84.1401 76.6057 83.4804 76.6057 82.6663C76.6057 81.8521 77.2595 81.1924 78.0656 81.1924H79.8175C80.6237 81.1924 81.2775 81.8521 81.2775 82.6663C81.2775 83.4804 80.624 84.1401 79.8175 84.1401Z" fill="#023872"/>
<path d="M31.0162 62.2319H29.2643C28.4582 62.2319 27.8044 61.5722 27.8044 60.7581C27.8044 59.9439 28.4582 59.2842 29.2643 59.2842H31.0162C31.8223 59.2842 32.4761 59.9439 32.4761 60.7581C32.4761 61.5722 31.8223 62.2319 31.0162 62.2319Z" fill="#023872"/>
<path d="M84.4023 62.2319H80.8431C80.0369 62.2319 79.3832 61.5722 79.3832 60.7581C79.3832 59.9439 80.0369 59.2842 80.8431 59.2842H84.4023C85.2084 59.2842 85.8622 59.9439 85.8622 60.7581C85.8622 61.5722 85.2084 62.2319 84.4023 62.2319ZM73.7249 62.2319H70.1657C69.3595 62.2319 68.7058 61.5722 68.7058 60.7581C68.7058 59.9439 69.3595 59.2842 70.1657 59.2842H73.7249C74.5311 59.2842 75.1848 59.9439 75.1848 60.7581C75.1848 61.5722 74.5311 62.2319 73.7249 62.2319ZM63.0478 62.2319H59.4889C58.6828 62.2319 58.029 61.5722 58.029 60.7581C58.029 59.9439 58.6828 59.2842 59.4889 59.2842H63.0478C63.854 59.2842 64.5077 59.9439 64.5077 60.7581C64.5077 61.5722 63.854 62.2319 63.0478 62.2319ZM52.3705 62.2319H48.8115C48.0054 62.2319 47.3516 61.5722 47.3516 60.7581C47.3516 59.9439 48.0054 59.2842 48.8115 59.2842H52.3705C53.1766 59.2842 53.8304 59.9439 53.8304 60.7581C53.8304 61.5722 53.1769 62.2319 52.3705 62.2319ZM41.6934 62.2319H38.1345C37.3283 62.2319 36.6746 61.5722 36.6746 60.7581C36.6746 59.9439 37.3283 59.2842 38.1345 59.2842H41.6934C42.4995 59.2842 43.1533 59.9439 43.1533 60.7581C43.1533 61.5722 42.4995 62.2319 41.6934 62.2319Z" fill="#023872"/>
<path d="M93.272 62.2319H91.5202C90.714 62.2319 90.0603 61.5722 90.0603 60.7581C90.0603 59.9439 90.714 59.2842 91.5202 59.2842H93.272C94.0782 59.2842 94.7319 59.9439 94.7319 60.7581C94.7319 61.5722 94.0785 62.2319 93.272 62.2319Z" fill="#023872"/>
<path d="M41.2937 32.8695C49.8836 32.8695 56.8472 25.8413 56.8472 17.1716C56.8472 8.50184 49.8836 1.47363 41.2937 1.47363C32.7038 1.47363 25.7402 8.50184 25.7402 17.1716C25.7402 25.8413 32.7038 32.8695 41.2937 32.8695Z" fill="white"/>
<path d="M45.0857 19.3061C46.2472 18.254 46.9833 16.7325 46.9833 15.0372C46.9833 11.8708 44.4311 9.29492 41.2938 9.29492C38.1564 9.29492 35.6042 11.8708 35.6042 15.0372C35.6042 16.7325 36.3403 18.254 37.5018 19.3061C36.3403 20.3581 35.6042 21.8796 35.6042 23.5749C35.6042 24.3885 36.258 25.0483 37.0641 25.0483C37.8703 25.0483 38.524 24.3885 38.524 23.5749C38.524 22.0337 39.7664 20.7795 41.2938 20.7795C42.8208 20.7795 44.0635 22.0334 44.0635 23.5749C44.0635 24.3885 44.7172 25.0483 45.5234 25.0483C46.3295 25.0483 46.9833 24.3885 46.9833 23.5749C46.9833 21.8796 46.2472 20.3581 45.0857 19.3061ZM38.524 15.0372C38.524 13.496 39.7664 12.2418 41.2938 12.2418C42.8208 12.2418 44.0635 13.4957 44.0635 15.0372C44.0635 16.5787 42.8211 17.8326 41.2938 17.8326C39.7664 17.8329 38.524 16.5787 38.524 15.0372Z" fill="#023872"/>
<path d="M41.294 0C36.0203 0 31.2996 2.43445 28.1766 6.24777C25.599 5.07784 22.7645 4.5029 19.9121 4.58217C15.0148 4.71891 10.4205 6.75582 6.97599 10.3184C3.53269 13.88 1.62519 18.565 1.60563 23.5109C1.58986 27.4291 2.74639 31.1967 4.94995 34.4059C7.19206 37.6714 9.12291 41.0954 10.6885 44.5828L17.8554 60.5466C18.322 61.5854 19.3141 62.2311 20.4447 62.2311C21.5749 62.2311 22.5671 61.5857 23.0334 60.5463L30.2549 44.4614C30.9518 42.9087 31.7635 41.3035 32.6678 39.6898C33.0646 38.9816 32.8176 38.0825 32.1157 37.682C31.414 37.2818 30.5232 37.5311 30.1264 38.2396C29.1795 39.9291 28.3281 41.6135 27.5952 43.2455L20.4441 59.1733L13.3481 43.3666C11.7101 39.7178 9.69198 36.1384 7.34973 32.7274C5.48865 30.0168 4.51198 26.8341 4.52542 23.5229C4.55958 14.9403 11.4985 7.76485 19.993 7.52821C22.2272 7.46456 24.4436 7.88302 26.4881 8.72908C25.086 11.2242 24.281 14.1037 24.281 17.1714C24.281 26.6399 31.913 34.3432 41.2943 34.3432C50.6756 34.3432 58.3076 26.6399 58.3076 17.1714C58.3073 7.70267 50.6753 0 41.294 0ZM41.294 31.3959C33.5227 31.3959 27.2005 25.015 27.2005 17.1711C27.2005 9.3279 33.5227 2.94663 41.294 2.94663C49.0653 2.94663 55.3875 9.3276 55.3875 17.1711C55.3875 25.0147 49.0653 31.3959 41.294 31.3959Z" fill="#023872"/>
<path d="M105.586 121.977C111.659 115.848 111.659 105.91 105.586 99.7805C99.5124 93.6509 89.666 93.651 83.593 99.7805C77.5199 105.91 77.5199 115.848 83.593 121.977C89.666 128.107 99.5124 128.107 105.586 121.977Z" fill="white"/>
<path d="M98.4048 113.014C99.5663 111.962 100.302 110.441 100.302 108.745C100.302 105.579 97.7502 103.003 94.6128 103.003C91.4755 103.003 88.9233 105.579 88.9233 108.745C88.9233 110.441 89.6594 111.962 90.8209 113.014C89.6594 114.066 88.9233 115.588 88.9233 117.283C88.9233 118.097 89.5771 118.757 90.3832 118.757C91.1894 118.757 91.8431 118.097 91.8431 117.283C91.8431 115.742 93.0855 114.488 94.6128 114.488C96.1399 114.488 97.3826 115.742 97.3826 117.283C97.3826 118.097 98.0363 118.757 98.8425 118.757C99.6486 118.757 100.302 118.097 100.302 117.283C100.302 115.588 99.5663 114.066 98.4048 113.014ZM91.8434 108.745C91.8434 107.204 93.0858 105.95 94.6131 105.95C96.1402 105.95 97.3829 107.204 97.3829 108.745C97.3829 110.287 96.1405 111.541 94.6131 111.541C93.0858 111.541 91.8434 110.287 91.8434 108.745Z" fill="#023872"/>
<path d="M94.6129 128.052C85.2316 128.052 77.5996 120.349 77.5996 110.88C77.5996 103.237 82.6853 96.4449 89.9673 94.3618C90.743 94.1402 91.5501 94.5949 91.7699 95.3776C91.9898 96.1603 91.5393 96.9751 90.7635 97.197C84.7321 98.9221 80.5194 104.549 80.5194 110.88C80.5194 118.723 86.8416 125.105 94.6129 125.105C102.384 125.105 108.707 118.724 108.707 110.88C108.707 104.569 104.511 98.9475 98.5044 97.2091C97.7292 96.9845 97.2813 96.1688 97.5035 95.3864C97.7257 94.604 98.5336 94.1519 99.3091 94.3759C106.562 96.4747 111.627 103.261 111.627 110.88C111.627 120.349 103.994 128.052 94.6129 128.052Z" fill="#023872"/>
<path d="M62.3951 48.2924C62.0214 48.2924 61.6479 48.1485 61.3627 47.8606L59.6213 46.1031L57.88 47.8606C57.3097 48.4362 56.3856 48.4362 55.8154 47.8606C55.2451 47.2854 55.2451 46.3524 55.8154 45.7771L58.5892 42.9776C59.1594 42.402 60.0835 42.402 60.6538 42.9776L63.4275 45.7771C63.9978 46.3524 63.9978 47.2854 63.4275 47.8606C63.1423 48.1483 62.7688 48.2924 62.3951 48.2924Z" fill="#023872"/>
<path d="M70.7018 35.7424C70.328 35.7424 69.9546 35.5986 69.6693 35.3107L67.928 33.5532L66.1866 35.3107C65.6164 35.8862 64.6922 35.8862 64.122 35.3107C63.5518 34.7355 63.5518 33.8025 64.122 33.2273L66.8958 30.4277C67.466 29.8522 68.3902 29.8522 68.9604 30.4277L71.7342 33.2273C72.3044 33.8025 72.3044 34.7355 71.7342 35.3107C71.4489 35.5983 71.0752 35.7424 70.7018 35.7424Z" fill="#023872"/>
<path d="M5.82048 60.2336C4.68965 60.2336 3.62627 59.7889 2.82654 58.9818C1.17598 57.3158 1.17598 54.6049 2.82654 52.939C4.47709 51.2731 7.16329 51.2728 8.81384 52.939C10.4644 54.6049 10.4644 57.3158 8.81384 58.9818C8.0147 59.7889 6.95131 60.2336 5.82048 60.2336ZM5.82048 54.635C5.48412 54.635 5.14747 54.7641 4.89141 55.0225C4.37928 55.5397 4.37928 56.3808 4.89141 56.898C5.13959 57.1488 5.46952 57.2864 5.82048 57.2864C6.17144 57.2864 6.50138 57.1485 6.74927 56.898C7.26169 56.3808 7.26169 55.5397 6.74927 55.0225C6.49349 54.7641 6.15713 54.635 5.82048 54.635Z" fill="#023872"/>
<path d="M118.366 133.648C117.282 133.649 116.198 133.232 115.372 132.399C113.722 130.733 113.722 128.022 115.372 126.356C117.023 124.69 119.709 124.69 121.36 126.356C122.159 127.163 122.6 128.236 122.6 129.378C122.6 130.519 122.159 131.592 121.36 132.399C120.534 133.232 119.45 133.648 118.366 133.648ZM118.366 128.052C118.03 128.052 117.693 128.181 117.437 128.44C116.925 128.957 116.925 129.798 117.437 130.315C117.949 130.832 118.783 130.832 119.295 130.315C119.543 130.064 119.68 129.732 119.68 129.377C119.68 129.023 119.543 128.69 119.295 128.44V128.439C119.039 128.181 118.703 128.052 118.366 128.052Z" fill="#023872"/>
<path d="M118.596 99.4531C117.512 99.4534 116.428 99.0367 115.602 98.2037C114.803 97.3968 114.362 96.3235 114.362 95.1822C114.362 94.0409 114.803 92.9676 115.603 92.1605C117.253 90.4946 119.939 90.4946 121.59 92.1608L121.589 92.1605C121.59 92.1608 121.59 92.1608 121.59 92.1608C122.389 92.9676 122.83 94.0409 122.83 95.1822C122.83 96.3235 122.389 97.3968 121.589 98.2039C120.764 99.0367 119.68 99.4531 118.596 99.4531ZM118.596 93.8567C118.26 93.8567 117.923 93.9861 117.667 94.2445C117.418 94.4953 117.282 94.828 117.282 95.1825C117.282 95.5367 117.419 95.8697 117.667 96.1202C118.179 96.6377 119.013 96.6374 119.525 96.1205C119.774 95.8697 119.91 95.537 119.91 95.1825C119.91 94.8283 119.773 94.4953 119.525 94.2448L119.525 94.2445C119.269 93.9858 118.932 93.8567 118.596 93.8567Z" fill="#023872"/>
</svg>
