<svg width="150" height="138" viewBox="0 0 150 138" fill="none" xmlns="http://www.w3.org/2000/svg">
<path opacity="0.1" d="M82.3799 113.604L92.9713 90.2303C96.4233 82.612 100.658 75.3871 105.39 68.4903C109.451 62.5712 111.828 55.406 111.828 47.6851C111.828 26.9992 94.773 10.2967 73.9576 10.8718C54.1673 11.4185 38.2523 27.7357 38.1727 47.5337C38.141 55.3747 40.5609 62.6479 44.7088 68.6333C49.4927 75.5365 53.678 82.8355 57.1444 90.4855L67.6201 113.604C37.9828 114.345 15.0322 119.487 15.0322 125.722C15.0322 132.466 41.8805 137.932 74.9997 137.932C108.119 137.932 134.967 132.466 134.967 125.722C134.967 119.487 112.017 114.345 82.3799 113.604Z" fill="#023872"/>
<path d="M74.9997 130.608C108.119 130.608 134.967 125.141 134.967 118.398C134.967 111.654 108.119 106.188 74.9997 106.188C41.8806 106.188 15.0322 111.654 15.0322 118.398C15.0322 125.141 41.8806 130.608 74.9997 130.608Z" fill="#023872"/>
<path d="M72.7822 106.195V109.034C72.7822 110.447 71.7744 111.658 70.3857 111.915L65.2356 112.868C63.8467 113.125 62.8389 114.337 62.8389 115.749V118.453C62.8389 120.071 61.5272 121.383 59.9092 121.383H53.86C53.083 121.383 52.3377 121.074 51.7884 120.525L49.1159 117.853C48.5666 117.303 47.8213 116.994 47.0443 116.994H38.99C37.9746 116.994 37.0315 116.469 36.4978 115.605L32.8564 109.711C43.1953 107.631 57.2344 106.31 72.7822 106.195Z" fill="white"/>
<path d="M134.968 118.397C134.968 125.141 108.12 130.608 75 130.608C74.4932 130.608 73.9863 130.608 73.4824 130.605L75.956 125.257C76.3307 124.447 77.1416 123.928 78.034 123.928H90.0729C90.9855 123.928 91.8108 123.386 92.1738 122.549L92.8181 121.063C93.181 120.225 94.0063 119.684 94.9189 119.684H99.9712C100.578 119.684 101.16 119.924 101.589 120.353L102.797 121.56C103.226 121.989 103.808 122.229 104.415 122.229H106.392C107.357 122.229 108.218 121.625 108.546 120.717L109.133 119.093C109.533 117.982 109.025 116.75 107.958 116.245L104.073 114.409C103.272 114.03 102.762 113.224 102.762 112.339C102.762 111.256 103.52 110.321 104.579 110.098L111.311 108.68C125.689 110.909 134.968 114.433 134.968 118.397Z" fill="white"/>
<path d="M111.828 40.3609C111.828 19.675 94.7731 2.97252 73.9576 3.54762C54.1673 4.0943 38.2524 20.4115 38.1727 40.2094C38.141 48.0505 40.561 55.3237 44.7088 61.309C49.4927 68.2123 53.678 75.5113 57.1445 83.1613L72.3317 116.677C73.3711 118.971 76.6292 118.971 77.6687 116.677L92.9716 82.9061C96.4237 75.2878 100.659 68.0629 105.39 61.1661C109.451 55.2469 111.828 48.0818 111.828 40.3609Z" fill="white"/>
<path d="M131.652 112.709C128.976 111.297 125.155 110.012 120.295 108.892C110.984 106.745 98.3694 105.329 84.623 104.879L94.3056 83.5108C97.5382 76.3773 101.559 69.3393 106.598 61.9951C110.116 56.8667 112.346 50.8928 113.046 44.7182C113.137 43.9143 112.559 43.1886 111.755 43.0978C110.952 43.0034 110.226 43.5844 110.135 44.388C109.488 50.088 107.43 55.6031 104.182 60.3372C99.045 67.8252 94.9417 75.0097 91.6376 82.3017L76.3343 116.072C75.9725 116.871 75.2216 116.933 74.9999 116.933C74.7784 116.933 74.0275 116.871 73.6657 116.072L58.4785 82.5569C55.0475 74.9848 50.8197 67.5554 45.9125 60.4746C41.7781 54.5086 39.6078 47.5031 39.6374 40.2155C39.6743 31.021 43.2558 22.3084 49.7219 15.6823C56.1892 9.05538 64.8104 5.26583 73.9979 5.01212C82.9162 4.7672 91.516 7.84806 98.2197 13.6904C104.858 19.476 109.082 27.4541 110.112 36.1553C110.208 36.9586 110.936 37.536 111.74 37.4376C112.543 37.3427 113.117 36.6141 113.022 35.8108C111.905 26.3862 107.332 17.746 100.145 11.4818C92.885 5.1548 83.5748 1.8129 73.917 2.08361C63.9643 2.35841 54.6271 6.46115 47.6251 13.6365C40.625 20.8096 36.7478 30.2446 36.7077 40.2038C36.676 48.0952 39.0265 55.6817 43.5048 62.1437C48.3116 69.08 52.4518 76.355 55.8101 83.7665L70.9973 117.282C71.7186 118.874 73.2523 119.863 74.9999 119.863C76.7474 119.863 78.2814 118.874 79.0027 117.282L83.3129 107.77C97.3463 108.169 110.233 109.579 119.637 111.747C133.114 114.854 133.503 118.044 133.503 118.398C133.503 119.377 132.051 120.661 129.62 121.831C126.75 123.213 122.424 124.515 117.111 125.597C105.878 127.884 90.923 129.144 75.0005 129.144C59.0779 129.144 44.1224 127.884 32.8894 125.597C19.9501 122.962 16.4978 119.832 16.4978 118.398C16.4978 116.986 19.5163 114.547 28.0229 112.322C35.9313 110.254 47.1245 108.742 59.5399 108.066C60.3476 108.022 60.9669 107.331 60.923 106.523C60.8791 105.715 60.1874 105.094 59.3805 105.14C51.7302 105.557 13.5681 108.156 13.5681 118.398C13.5681 122.548 19.8722 125.936 32.3049 128.468C43.7246 130.793 58.8875 132.074 75.0005 132.074C91.1134 132.074 106.276 130.793 117.696 128.468C130.129 125.936 136.433 122.548 136.433 118.398C136.432 116.297 134.824 114.383 131.652 112.709Z" fill="#023872"/>
<path d="M95.0424 60.82C106.19 49.6726 106.19 31.5989 95.0424 20.4514C83.8949 9.30397 65.8213 9.30396 54.6738 20.4514C43.5263 31.5989 43.5263 49.6726 54.6738 60.82C65.8213 71.9675 83.8949 71.9675 95.0424 60.82Z" fill="#023872"/>
<path d="M90.9065 58.5508H59.0933C57.9824 58.5508 57.0818 57.6502 57.0818 56.5393V24.7264C57.0818 23.6154 57.9824 22.7148 59.0933 22.7148H90.9062C92.0171 22.7148 92.9177 23.6154 92.9177 24.7264V56.5393C92.918 57.6502 92.0174 58.5508 90.9065 58.5508Z" fill="white"/>
<path d="M87.8889 27.7432V53.5218H62.1106V27.7432H87.8889Z" fill="#023872"/>
<path d="M87.374 24.7051L90.9294 28.2604L63.2406 55.9492L59.6852 52.3939L87.374 24.7051Z" fill="white"/>
<path d="M60.1912 29.1279L63.7465 25.5726L91.4353 53.2614L87.8799 56.8167L60.1912 29.1279Z" fill="white"/>
<path d="M131.393 103.478C131.018 103.478 130.643 103.335 130.357 103.049L128.61 101.302L126.862 103.049C126.29 103.621 125.363 103.621 124.791 103.049C124.219 102.477 124.219 101.55 124.791 100.978L127.574 98.1948C128.146 97.6226 129.073 97.6226 129.645 98.1948L132.429 100.978C133.001 101.55 133.001 102.477 132.429 103.049C132.142 103.335 131.768 103.478 131.393 103.478Z" fill="#023872"/>
<path d="M109.737 98.961C108.65 98.961 107.562 98.547 106.734 97.7188C105.077 96.0627 105.077 93.3673 106.734 91.7112C108.39 90.0545 111.085 90.0547 112.741 91.7112C114.398 93.3673 114.398 96.0627 112.741 97.7188C111.913 98.547 110.825 98.961 109.737 98.961ZM109.737 93.3972C109.4 93.3972 109.062 93.5258 108.805 93.7825C108.291 94.2966 108.291 95.1331 108.805 95.6472C109.319 96.1611 110.155 96.1611 110.67 95.6472C111.184 95.1331 111.184 94.2966 110.67 93.7825C110.413 93.5255 110.075 93.3972 109.737 93.3972Z" fill="#023872"/>
<path d="M29.5396 37.7673C28.4518 37.7673 27.3637 37.3533 26.5358 36.5251C24.8793 34.869 24.8793 32.1737 26.5358 30.5175C28.1919 28.8614 30.8873 28.8614 32.5434 30.5175C34.1999 32.1737 34.1999 34.8687 32.5434 36.5251C31.7152 37.3533 30.6271 37.7673 29.5396 37.7673ZM29.5393 32.2035C29.2018 32.2035 28.864 32.3319 28.6071 32.5888C28.0929 33.103 28.0929 33.9394 28.6071 34.4535C29.1209 34.9674 29.9577 34.9671 30.4715 34.4535C30.9857 33.9394 30.9857 33.103 30.4715 32.5888C30.2146 32.3319 29.8771 32.2035 29.5393 32.2035Z" fill="#023872"/>
<path d="M29.5395 48.8798C29.1645 48.8798 28.7898 48.7368 28.5035 48.4506L26.7563 46.7033L25.009 48.4506C24.4368 49.0228 23.5096 49.0228 22.9374 48.4506C22.3653 47.8787 22.3653 46.9512 22.9374 46.3793L25.7206 43.5961C26.2928 43.024 27.22 43.024 27.7922 43.5961L30.5754 46.3793C31.1476 46.9512 31.1476 47.8787 30.5754 48.4506C30.2892 48.7368 29.9145 48.8798 29.5395 48.8798Z" fill="#023872"/>
<path d="M121.621 22.912C121.246 22.912 120.871 22.7691 120.585 22.4828L118.837 20.7356L117.09 22.4828C116.518 23.055 115.591 23.055 115.018 22.4828C114.446 21.911 114.446 20.9834 115.018 20.4115L117.802 17.6283C118.374 17.0562 119.301 17.0562 119.873 17.6283L122.656 20.4115C123.229 20.9834 123.229 21.911 122.656 22.4828C122.37 22.7691 121.996 22.912 121.621 22.912Z" fill="#023872"/>
</svg>
