<svg width="139" height="119" viewBox="0 0 139 119" fill="none" xmlns="http://www.w3.org/2000/svg">
<path opacity="0.1" d="M134.243 97.2598V23.3117C134.243 21.6835 132.923 20.3638 131.295 20.3638H65.7278C63.6298 20.3638 61.6898 21.4787 60.6335 23.2916L56.7765 29.9117H32.7825C25.9227 29.9117 19.9709 34.646 18.4262 41.3318L5.50561 97.2598H4.82436C3.19624 97.2598 1.87646 98.5796 1.87646 100.208V105.85C1.87646 107.478 3.19624 108.798 4.82436 108.798H14.372C15.8282 113.639 20.3179 117.166 25.6332 117.166C30.9486 117.166 35.4382 113.639 36.8945 108.798H106.446C107.903 113.639 112.392 117.166 117.708 117.166C123.023 117.166 127.513 113.639 128.969 108.798H134.243C135.871 108.798 137.191 107.478 137.191 105.85V100.208C137.191 98.5799 135.871 97.2598 134.243 97.2598Z" fill="#023872"/>
<path d="M60.6336 15.922L56.7766 22.5421H32.7825C25.9228 22.5421 19.971 27.2764 18.4263 33.9622L4.82471 92.8375H134.243V15.942C134.243 14.3139 132.923 12.9941 131.295 12.9941H65.7279C63.6298 12.9941 61.6898 14.109 60.6336 15.922Z" fill="white"/>
<path d="M14.926 67.9473H10.575L8.69922 76.0669H14.926C17.1682 76.0669 18.9859 74.2493 18.9859 72.0071C18.9856 69.7649 17.1682 67.9473 14.926 67.9473Z" fill="#023872"/>
<path d="M56.7766 22.542H65.4888C66.4492 22.542 67.2281 21.7635 67.2281 20.8027C67.2281 19.8423 66.4495 19.0635 65.4888 19.0635H58.8033L56.7766 22.542Z" fill="#023872"/>
<path d="M134.243 49.7688H131.192C129.563 49.7688 128.244 48.4491 128.244 46.8209V25.8219C128.244 24.1938 129.563 22.874 131.192 22.874H134.243V49.7688Z" fill="#023872"/>
<path d="M128.244 42.5205V46.8215C128.244 48.4496 129.563 49.7693 131.192 49.7693H134.243V42.5205H128.244Z" fill="#023872"/>
<path d="M84.2734 66.3087H134.243V54.1914H92.8412L84.2734 66.3087Z" fill="#023872"/>
<path d="M88.2475 54.1909L79.6809 66.3097H71.0259L79.5925 54.1909H88.2475Z" fill="#023872"/>
<path d="M75.1423 54.1909L66.5758 66.3097H60.8687L69.4352 54.1909H75.1423Z" fill="#023872"/>
<path d="M47.5649 53.3501H50.9356V89.8895H47.5649V53.3501Z" fill="#023872"/>
<path d="M19.2062 31.5576C18.8819 32.3255 18.6181 33.128 18.4261 33.9622L13.2673 56.2984H47.9876C49.6157 56.2984 50.9355 54.9786 50.9355 53.3505V34.5055C50.9355 32.8774 49.6157 31.5576 47.9876 31.5576H19.2062Z" fill="#023872"/>
<path d="M134.243 77.9238V92.8372H4.82471L8.27079 77.9238H134.243Z" fill="white"/>
<path d="M47.5662 77.9238H50.9356V89.8893H47.5662V77.9238Z" fill="#023872"/>
<path d="M134.243 101.428H4.82436C3.19624 101.428 1.87646 100.108 1.87646 98.4801V92.8375C1.87646 91.2094 3.19624 89.8896 4.82436 89.8896H134.243C135.871 89.8896 137.191 91.2094 137.191 92.8375V98.4801C137.191 100.108 135.871 101.428 134.243 101.428Z" fill="white"/>
<path d="M25.6333 109.796C32.1282 109.796 37.3933 104.531 37.3933 98.0364C37.3933 91.5415 32.1282 86.2764 25.6333 86.2764C19.1384 86.2764 13.8733 91.5415 13.8733 98.0364C13.8733 104.531 19.1384 109.796 25.6333 109.796Z" fill="#023872"/>
<path d="M25.6333 103.362C28.5746 103.362 30.9589 100.978 30.9589 98.0366C30.9589 95.0953 28.5746 92.7109 25.6333 92.7109C22.692 92.7109 20.3076 95.0953 20.3076 98.0366C20.3076 100.978 22.692 103.362 25.6333 103.362Z" fill="white"/>
<path d="M117.708 109.796C124.203 109.796 129.468 104.531 129.468 98.0364C129.468 91.5415 124.203 86.2764 117.708 86.2764C111.213 86.2764 105.948 91.5415 105.948 98.0364C105.948 104.531 111.213 109.796 117.708 109.796Z" fill="#023872"/>
<path d="M135.717 88.6737V62.5009C135.717 61.6866 135.057 61.0269 134.243 61.0269C133.429 61.0269 132.769 61.6866 132.769 62.5009V88.4158H126.781C124.41 86.178 121.218 84.802 117.708 84.802C114.198 84.802 111.005 86.178 108.634 88.4158H34.7069C32.3356 86.178 29.1431 84.802 25.6333 84.802C22.1235 84.802 18.931 86.178 16.5597 88.4158H7.35873L19.8622 34.2937C21.2604 28.2419 26.5734 24.0155 32.7825 24.0155H56.7766C57.301 24.0155 57.786 23.737 58.0501 23.2836L61.9071 16.6638C62.6963 15.3092 64.1605 14.4679 65.7279 14.4679H131.295C132.108 14.4679 132.769 15.1291 132.769 15.9419V53.8777C132.769 54.6919 133.429 55.3516 134.243 55.3516C135.057 55.3516 135.717 54.6919 135.717 53.8777V15.9419C135.717 13.5037 133.734 11.52 131.295 11.52H65.7279C63.1155 11.52 60.6752 12.9223 59.3598 15.1798L55.9294 21.0679H32.7825C25.1932 21.0679 18.6993 26.2335 16.9901 33.6304L4.32653 88.4458C2.12209 88.6944 0.402588 90.5677 0.402588 92.8376V98.4802C0.402588 100.919 2.38622 102.902 4.82443 102.902H13.3303C15.2735 107.798 20.0541 111.27 25.6336 111.27C32.9308 111.27 38.8676 105.333 38.8676 98.0362C38.8676 95.6039 38.2049 93.3243 37.0552 91.3637H106.286C105.137 93.3243 104.474 95.6036 104.474 98.0362C104.474 98.6877 104.523 99.3277 104.615 99.9541H45.4148C44.6009 99.9541 43.9409 100.614 43.9409 101.428C43.9409 102.242 44.6009 102.902 45.4148 102.902H105.405C107.348 107.798 112.128 111.27 117.708 111.27C123.287 111.27 128.068 107.798 130.011 102.902H134.243C136.682 102.902 138.665 100.919 138.665 98.4802V92.8376C138.665 90.9168 137.432 89.2827 135.717 88.6737ZM4.82443 99.9541C4.01169 99.9541 3.35048 99.2929 3.35048 98.4802V92.8376C3.35048 92.0249 4.01169 91.3637 4.82443 91.3637H14.2117C13.062 93.3243 12.3993 95.6036 12.3993 98.0362C12.3993 98.6877 12.4486 99.3277 12.5399 99.9541H4.82443ZM25.6336 108.322C19.9619 108.322 15.3475 103.708 15.3475 98.0362C15.3475 92.3642 19.9619 87.7501 25.6336 87.7501C31.3053 87.7501 35.9197 92.3645 35.9197 98.0362C35.9197 103.708 31.3053 108.322 25.6336 108.322ZM117.708 108.322C112.036 108.322 107.422 103.708 107.422 98.0362C107.422 92.3642 112.036 87.7501 117.708 87.7501C123.38 87.7501 127.994 92.3645 127.994 98.0362C127.994 103.708 123.38 108.322 117.708 108.322ZM135.717 98.4802C135.717 99.2929 135.056 99.9541 134.243 99.9541H130.801C130.893 99.3277 130.942 98.6877 130.942 98.0362C130.942 95.6039 130.279 93.3243 129.129 91.3637H134.243C135.056 91.3637 135.717 92.0249 135.717 92.8376V98.4802H135.717Z" fill="#023872"/>
<path d="M117.708 103.362C120.649 103.362 123.033 100.978 123.033 98.0366C123.033 95.0953 120.649 92.7109 117.708 92.7109C114.766 92.7109 112.382 95.0953 112.382 98.0366C112.382 100.978 114.766 103.362 117.708 103.362Z" fill="white"/>
<path d="M38.356 61.0739C38.356 60.1167 39.1318 59.3408 40.089 59.3408H43.0369C43.9941 59.3408 44.77 60.1167 44.77 61.0739C44.77 62.0311 43.9941 62.807 43.0369 62.807H40.089C39.1318 62.8067 38.356 62.0308 38.356 61.0739Z" fill="#023872"/>
<path d="M113.63 25.1103C113.63 25.3586 113.674 25.6065 113.756 25.8438H90.4833C89.2485 25.8438 88.2471 26.8449 88.2471 28.08C88.2471 29.3152 89.2485 30.3163 90.4833 30.3163H113.756C113.484 31.1002 113.659 32.0049 114.285 32.6304C115.158 33.5039 116.574 33.5039 117.447 32.6304L120.415 29.6628C121.281 28.83 121.281 27.3307 120.415 26.4976L117.447 23.5297C116.574 22.6562 115.158 22.6562 114.285 23.5291C113.849 23.9654 113.63 24.5382 113.63 25.1103Z" fill="#023872"/>
<path d="M95.556 36.8334H118.828C120.063 36.8334 121.065 37.8345 121.065 39.0697C121.065 40.3049 120.063 41.306 118.828 41.306H95.556C95.6383 41.543 95.6819 41.7906 95.6819 42.0388C95.6819 42.611 95.4635 43.1835 95.0269 43.6198C94.1537 44.4932 92.7375 44.4932 91.8644 43.6198L88.897 40.6524C88.0309 39.8197 88.0306 38.3201 88.8967 37.487L91.8644 34.5194C92.7375 33.6459 94.1537 33.6459 95.0269 34.5194C95.6527 35.1452 95.8275 36.0496 95.556 36.8334Z" fill="#023872"/>
<path d="M79.4689 48.0984H64.9532C64.1393 48.0984 63.4792 47.4383 63.4792 46.6244V27.1268C63.4792 26.3129 64.1393 25.6528 64.9532 25.6528H79.4689C80.2828 25.6528 80.9428 26.3129 80.9428 27.1268V46.6244C80.9428 47.4383 80.2831 48.0984 79.4689 48.0984Z" fill="#023872"/>
<path d="M83.5115 32.88H69.1898C68.3759 32.88 67.7158 32.22 67.7158 31.4061C67.7158 30.5922 68.3759 29.9321 69.1898 29.9321H83.5115C84.3254 29.9321 84.9854 30.5922 84.9854 31.4061C84.9854 32.22 84.3254 32.88 83.5115 32.88Z" fill="#023872"/>
<path d="M74.6678 38.8707H69.1898C68.3759 38.8707 67.7158 38.2107 67.7158 37.3968C67.7158 36.5829 68.3759 35.9229 69.1898 35.9229H74.6678C75.4817 35.9229 76.1418 36.5829 76.1418 37.3968C76.1418 38.2107 75.4817 38.8707 74.6678 38.8707Z" fill="#023872"/>
<path d="M74.6678 43.9767H69.1898C68.3759 43.9767 67.7158 43.3167 67.7158 42.5027C67.7158 41.6888 68.3759 41.0288 69.1898 41.0288H74.6678C75.4817 41.0288 76.1418 41.6888 76.1418 42.5027C76.1418 43.3169 75.4817 43.9767 74.6678 43.9767Z" fill="#023872"/>
<path d="M49.0401 17.013C47.9456 17.013 46.851 16.5964 46.0177 15.7631C44.3512 14.0966 44.3512 11.3849 46.0177 9.71842C47.6841 8.05139 50.3962 8.05169 52.0626 9.71842C53.729 11.3849 53.729 14.0966 52.0626 15.7631C51.2295 16.5964 50.1347 17.013 49.0401 17.013ZM49.0401 11.4149C48.7002 11.4149 48.3606 11.5441 48.1021 11.8026C47.5851 12.3199 47.5851 13.1613 48.1021 13.6786C48.6189 14.1957 49.4608 14.1957 49.9781 13.6786C50.4952 13.1613 50.4952 12.3199 49.9781 11.8026C49.7196 11.5441 49.38 11.4149 49.0401 11.4149Z" fill="#023872"/>
<path d="M73.9734 115.543C72.8788 115.543 71.7843 115.126 70.9512 114.293C69.2845 112.627 69.2845 109.915 70.9512 108.248C72.6174 106.581 75.3297 106.582 76.9959 108.248C78.6626 109.915 78.6626 112.626 76.9959 114.293C76.1628 115.126 75.0682 115.543 73.9734 115.543ZM73.9734 109.945C73.6341 109.945 73.2942 110.074 73.0354 110.332C72.5183 110.85 72.5183 111.691 73.0354 112.209C73.553 112.726 74.3938 112.725 74.9114 112.209C75.4285 111.691 75.4285 110.85 74.9114 110.332C74.6529 110.074 74.3133 109.945 73.9734 109.945Z" fill="#023872"/>
<path d="M95.0749 118.64C94.6978 118.64 94.3205 118.496 94.0328 118.208L92.2744 116.45L90.516 118.208C89.9408 118.784 89.0069 118.784 88.4318 118.208C87.8561 117.633 87.8561 116.699 88.4318 116.124L91.2323 113.323C91.8074 112.748 92.7413 112.748 93.3165 113.323L96.117 116.124C96.6927 116.699 96.6927 117.633 96.117 118.208C95.8292 118.496 95.4519 118.64 95.0749 118.64Z" fill="#023872"/>
<path d="M126.666 6.30202C126.289 6.30202 125.911 6.15817 125.624 5.87016L123.865 4.11204L122.107 5.87016C121.532 6.44588 120.598 6.44588 120.023 5.87016C119.447 5.29473 119.447 4.36143 120.023 3.786L122.823 0.985503C123.398 0.40978 124.332 0.40978 124.908 0.985503L127.708 3.786C128.284 4.36143 128.284 5.29473 127.708 5.87016C127.42 6.15817 127.043 6.30202 126.666 6.30202Z" fill="#023872"/>
<path d="M40.9819 9.71902C40.6045 9.71902 40.2275 9.57516 39.9395 9.28715L38.1814 7.52903L36.4232 9.28715C35.8475 9.86288 34.9145 9.86288 34.3388 9.28715C33.7631 8.71173 33.7631 7.77842 34.3388 7.20299L37.1393 4.4025C37.715 3.82677 38.648 3.82677 39.2237 4.4025L42.0242 7.20299C42.5999 7.77842 42.5999 8.71173 42.0242 9.28715C41.7365 9.57487 41.3592 9.71902 40.9819 9.71902Z" fill="#023872"/>
</svg>
