<svg width="143" height="135" viewBox="0 0 143 135" fill="none" xmlns="http://www.w3.org/2000/svg">
<g opacity="0.1">
<path opacity="0.1" d="M137.954 111.79L137.953 84.6646C137.953 82.9905 136.597 81.6373 134.926 81.6373H127.503V55.9845C127.503 54.9731 126.683 54.1533 125.672 54.1533H71.7483C70.7372 54.1533 69.9171 54.9731 69.9171 55.9845V81.6373H62.2909V45.6543C62.2909 43.9832 60.9347 42.627 59.2636 42.627H33.7582C26.7136 42.627 20.6014 47.4889 19.015 54.3549L10.359 91.8225C9.65419 91.2676 8.8359 90.9437 7.95979 90.9437C5.33356 90.9437 3.20443 93.8027 3.20443 97.3295C3.20443 100.701 5.15132 103.455 7.61679 103.692L5.74619 111.79H5.04688C3.37487 111.79 2.01953 113.145 2.01953 114.817V120.612C2.01953 122.284 3.37487 123.639 5.04688 123.639H14.8518C16.3473 128.61 20.958 132.233 26.4166 132.233C31.8752 132.233 36.4858 128.611 37.9813 123.639H109.408C110.903 128.61 115.514 132.233 120.973 132.233C126.431 132.233 131.042 128.611 132.537 123.639H137.954C139.626 123.639 140.981 122.284 140.981 120.612V114.817C140.981 113.145 139.625 111.79 137.954 111.79Z" fill="#023872"/>
<g opacity="0.1">
<path opacity="0.1" d="M96.6471 41.2603L124.688 48.4939C125.668 48.7466 126.666 48.1575 126.919 47.1782L134.153 19.1368C134.405 18.1574 133.816 17.159 132.837 16.9065L104.795 9.67271C103.816 9.42023 102.818 10.009 102.565 10.9884L95.3314 39.0298C95.0789 40.0091 95.668 41.0075 96.6471 41.2603Z" fill="#023872"/>
<path opacity="0.1" d="M79.9187 46.7941C79.9187 47.6303 80.5965 48.3078 81.4324 48.3078C82.2682 48.3078 82.946 47.6303 82.946 46.7941C82.946 42.0273 85.9952 37.855 90.5332 36.4112C91.3296 36.1579 91.7701 35.3069 91.5167 34.5101C91.263 33.7133 90.4118 33.2737 89.6156 33.5265C83.8155 35.371 79.9187 40.7028 79.9187 46.7941Z" fill="#023872"/>
<path opacity="0.1" d="M74.746 48.3077C75.5819 48.3077 76.2597 47.6302 76.2597 46.794C76.2597 39.4733 80.9424 33.0656 87.912 30.8487C88.7084 30.5953 89.1489 29.7443 88.8955 28.9475C88.6421 28.151 87.7909 27.7112 86.9944 27.964C78.763 30.582 73.2327 38.1492 73.2327 46.794C73.2324 47.6299 73.9102 48.3077 74.746 48.3077Z" fill="#023872"/>
</g>
</g>
<path d="M100.708 79.2067H71.7485C70.7373 79.2067 69.9172 78.3869 69.9172 77.3755V48.4162C69.9172 47.4051 70.737 46.585 71.7485 46.585H100.708C101.719 46.585 102.539 47.4048 102.539 48.4162V77.3755C102.539 78.3869 101.719 79.2067 100.708 79.2067Z" fill="white"/>
<path d="M97.9614 51.1631V74.6292H74.4956V51.1631H97.9614Z" fill="#023872"/>
<path d="M97.4932 48.3906L100.73 51.627L75.5244 76.8322L72.288 73.5958L97.4932 48.3906Z" fill="white"/>
<path d="M125.672 79.2067H96.7128C95.7016 79.2067 94.8818 78.3869 94.8818 77.3755V48.4162C94.8818 47.4051 95.7016 46.585 96.7128 46.585H125.672C126.683 46.585 127.503 47.4048 127.503 48.4162V77.3755C127.503 78.3869 126.683 79.2067 125.672 79.2067Z" fill="white"/>
<path d="M122.926 51.1631V74.6292H99.4597V51.1631H122.926Z" fill="#023872"/>
<path d="M122.455 48.3877L125.691 51.6241L100.486 76.8291L97.2498 73.5927L122.455 48.3877Z" fill="white"/>
<path d="M124.688 40.9255L96.6471 33.692C95.6677 33.4395 95.0789 32.4408 95.3314 31.4614L102.565 3.42003C102.817 2.44069 103.816 1.85187 104.795 2.10435L132.837 9.33789C133.816 9.59037 134.405 10.5891 134.153 11.5684L126.919 39.6098C126.666 40.5889 125.668 41.178 124.688 40.9255Z" fill="white"/>
<path d="M129.016 13.0479L123.149 35.7631L100.434 29.8965L106.3 7.18131L129.016 13.0479Z" fill="#023872"/>
<path d="M125.145 42.497C124.869 42.497 124.59 42.4628 124.311 42.3908L96.2692 35.1572C94.4837 34.6965 93.4054 32.8686 93.8658 31.083L101.1 3.04136C101.56 1.25583 103.388 0.1787 105.174 0.638251L133.215 7.87178C135.001 8.33285 136.079 10.1605 135.619 11.946L128.385 39.9877C127.996 41.4944 126.634 42.497 125.145 42.497ZM125.067 39.4594C125.236 39.5033 125.41 39.401 125.453 39.2314L132.687 11.1901C132.73 11.0205 132.628 10.8471 132.458 10.8032L104.417 3.56993C104.248 3.52664 104.074 3.62836 104.03 3.79789L96.7969 31.8393C96.7533 32.0088 96.8556 32.1823 97.0252 32.2259L125.067 39.4594Z" fill="#023872"/>
<path d="M129.268 10.2607L131.593 14.2021L100.898 32.3126L98.5726 28.3712L129.268 10.2607Z" fill="white"/>
<path d="M137.953 77.0963V107.249H5.04688L19.015 46.7865C20.6014 39.9205 26.7136 35.0586 33.7582 35.0586H59.2636C60.9347 35.0586 62.2909 36.4148 62.2909 38.0859V74.0689H134.926C136.597 74.0689 137.953 75.4222 137.953 77.0963Z" fill="white"/>
<path d="M41.3706 66.6973H44.8321V104.221H41.3706V66.6973Z" fill="#023872"/>
<path d="M50.8293 66.6973H54.2908V104.221H50.8293V66.6973Z" fill="#023872"/>
<path d="M19.8162 44.3164C19.4832 45.105 19.2122 45.9291 19.0151 46.7858L13.7173 69.724H41.805C43.477 69.724 44.8323 68.3687 44.8323 66.6967V47.3438C44.8323 45.6717 43.477 44.3164 41.805 44.3164H19.8162Z" fill="#023872"/>
<path d="M62.2909 44.3154V69.7239H53.8567C52.1826 69.7239 50.8293 68.3677 50.8293 66.6966V47.3428C50.8293 45.6717 52.1826 44.3154 53.8567 44.3154H62.2909Z" fill="#023872"/>
<path d="M137.953 91.9326V107.248H5.04688L8.58584 91.9326H137.953Z" fill="white"/>
<path d="M133.371 89.7615H137.954V79.4482H133.371C130.524 79.4482 128.215 81.7569 128.215 84.605C128.215 87.4525 130.523 89.7615 133.371 89.7615Z" fill="#023872"/>
<path d="M137.953 116.071H5.04663C3.37463 116.071 2.01929 114.716 2.01929 113.044V107.249C2.01929 105.577 3.37463 104.222 5.04663 104.222H137.953C139.625 104.222 140.981 105.577 140.981 107.249V113.044C140.981 114.715 139.625 116.071 137.953 116.071Z" fill="white"/>
<path d="M26.4163 124.665C33.0863 124.665 38.4933 119.258 38.4933 112.588C38.4933 105.918 33.0863 100.511 26.4163 100.511C19.7464 100.511 14.3394 105.918 14.3394 112.588C14.3394 119.258 19.7464 124.665 26.4163 124.665Z" fill="#023872"/>
<path d="M26.4165 118.057C29.437 118.057 31.8857 115.608 31.8857 112.587C31.8857 109.567 29.437 107.118 26.4165 107.118C23.3959 107.118 20.9473 109.567 20.9473 112.587C20.9473 115.608 23.3959 118.057 26.4165 118.057Z" fill="white"/>
<path d="M120.972 124.665C127.642 124.665 133.049 119.258 133.049 112.588C133.049 105.918 127.642 100.511 120.972 100.511C114.302 100.511 108.895 105.918 108.895 112.588C108.895 119.258 114.302 124.665 120.972 124.665Z" fill="#023872"/>
<path d="M120.972 118.057C123.993 118.057 126.442 115.608 126.442 112.587C126.442 109.567 123.993 107.118 120.972 107.118C117.952 107.118 115.503 109.567 115.503 112.587C115.503 115.608 117.952 118.057 120.972 118.057Z" fill="white"/>
<path d="M132.142 97.9647C131.121 97.9647 130.292 97.1368 130.292 96.115V96.0724C130.292 95.0506 131.121 94.2227 132.142 94.2227C133.163 94.2227 133.992 95.0506 133.992 96.0724V96.115C133.992 97.1368 133.163 97.9647 132.142 97.9647Z" fill="#023872"/>
<path d="M81.4324 40.7393C80.5965 40.7393 79.9187 40.0618 79.9187 39.2257C79.9187 33.1346 83.8155 27.8029 89.6156 25.958C90.4118 25.7055 91.2634 26.1448 91.5167 26.9416C91.7701 27.7384 91.3297 28.5894 90.5332 28.8428C85.9952 30.2865 82.946 34.4588 82.946 39.2257C82.946 40.0615 82.2682 40.7393 81.4324 40.7393Z" fill="#023872"/>
<path d="M74.7461 40.7392C73.9102 40.7392 73.2324 40.0617 73.2324 39.2256C73.2324 30.5807 78.7628 23.0135 86.9941 20.3955C87.7906 20.143 88.6419 20.5826 88.8953 21.3791C89.1487 22.1759 88.7082 23.0269 87.9117 23.2802C80.9422 25.4972 76.2595 31.9048 76.2595 39.2256C76.2598 40.0614 75.5819 40.7392 74.7461 40.7392Z" fill="#023872"/>
<path d="M20.5942 90.3428H137.954V93.3701H20.5942V90.3428Z" fill="#023872"/>
<path d="M7.96021 83.375H14.5616C18.0885 83.375 20.9475 86.234 20.9475 89.7609C20.9475 93.2877 18.0885 96.1468 14.5616 96.1468H7.96021V83.375Z" fill="white"/>
<path d="M7.96019 96.1468C10.5865 96.1468 12.7155 93.2877 12.7155 89.7609C12.7155 86.2341 10.5865 83.375 7.96019 83.375C5.33388 83.375 3.20483 86.2341 3.20483 89.7609C3.20483 93.2877 5.33388 96.1468 7.96019 96.1468Z" fill="white"/>
<path d="M137.954 102.708H130.292C130.292 102.708 130.291 102.708 130.29 102.708C127.855 100.409 124.577 98.9963 120.972 98.9963C117.368 98.9963 114.089 100.409 111.654 102.708H35.7387C35.7375 102.708 35.7363 102.708 35.7351 102.708C33.2999 100.409 30.0212 98.9963 26.4166 98.9963C22.8122 98.9963 19.5336 100.409 17.0984 102.708H7.64918L8.81501 97.6607H14.5612C18.917 97.6607 22.4608 94.1168 22.4608 89.7608C22.4608 85.4051 18.917 81.8613 14.5612 81.8613H12.4648L20.4891 47.1252C21.9246 40.9113 27.3814 36.5713 33.7591 36.5713H59.2624C60.097 36.5713 60.776 37.2503 60.776 38.085V74.0668C60.776 74.9029 61.4538 75.5804 62.2897 75.5804H134.926C135.761 75.5804 136.44 76.2595 136.44 77.0941V95.5788C136.44 96.4149 137.118 97.0924 137.954 97.0924C138.789 97.0924 139.467 96.4149 139.467 95.5788V77.0941C139.467 74.5902 137.43 72.5531 134.926 72.5531H129.017V48.4158C129.017 46.5712 127.516 45.0709 125.672 45.0709H96.7127C94.8685 45.0709 93.3681 46.5712 93.3681 48.4158V72.5531H71.4314V48.4155C71.4314 48.2405 71.5737 48.0982 71.7486 48.0982H86.4615C87.2974 48.0982 87.9752 47.4207 87.9752 46.5845C87.9752 45.7484 87.2974 45.0709 86.4615 45.0709H71.7486C69.9044 45.0709 68.404 46.5712 68.404 48.4155V72.5531H63.804V38.085C63.804 35.581 61.7669 33.5439 59.263 33.5439H33.7597C25.9646 33.5439 19.2948 38.8485 17.5401 46.4441L9.35781 81.8613H7.95978C4.50286 81.8613 1.69076 85.4051 1.69076 89.7608C1.69076 93.1693 3.41271 96.0801 5.81794 97.1854L4.53525 102.738C2.27171 102.994 0.505859 104.918 0.505859 107.249V113.043C0.505859 115.547 2.54296 117.584 5.04688 117.584H13.782C15.7776 122.612 20.687 126.178 26.4166 126.178C32.1461 126.178 37.0559 122.612 39.0515 117.584H108.338C110.333 122.612 115.243 126.178 120.973 126.178C126.702 126.178 131.612 122.612 133.607 117.584H137.954C140.458 117.584 142.495 115.547 142.495 113.043V107.249C142.495 104.744 140.458 102.708 137.954 102.708ZM96.3951 48.4158C96.3951 48.2408 96.5374 48.0982 96.7124 48.0982H125.672C125.847 48.0982 125.989 48.2408 125.989 48.4158V72.5531H96.3948V48.4158H96.3951ZM12.8892 84.8886H14.5615C17.248 84.8886 19.4337 87.0743 19.4337 89.7611C19.4337 92.4476 17.248 94.6333 14.5615 94.6333H12.8892C13.7275 93.2898 14.2291 91.5984 14.2291 89.7608C14.2291 87.9235 13.7272 86.2321 12.8892 84.8886ZM7.96009 84.8886C9.71716 84.8886 11.2018 87.1197 11.2018 89.7608C11.2018 92.4022 9.71716 94.6333 7.96009 94.6333C6.20271 94.6333 4.71841 92.4022 4.71841 89.7608C4.7181 87.1201 6.20271 84.8886 7.96009 84.8886ZM12.8259 112.587C12.8259 113.256 12.8765 113.914 12.9703 114.557H5.04657C4.21193 114.557 3.5329 113.878 3.5329 113.043V107.249C3.5329 106.414 4.21193 105.735 5.04657 105.735H14.6868C13.5062 107.748 12.8259 110.089 12.8259 112.587ZM26.4166 123.15C20.592 123.15 15.8533 118.412 15.8533 112.587C15.8533 106.762 20.592 102.024 26.4166 102.024C32.2412 102.024 36.9799 106.762 36.9799 112.587C36.9799 118.412 32.2412 123.15 26.4166 123.15ZM107.382 112.587C107.382 113.256 107.432 113.914 107.526 114.557H39.8625C39.9564 113.914 40.0069 113.256 40.0069 112.587C40.0069 110.089 39.3264 107.748 38.1457 105.735H109.243C108.062 107.748 107.382 110.089 107.382 112.587ZM120.972 123.15C115.148 123.15 110.409 118.412 110.409 112.587C110.409 106.762 115.148 102.024 120.972 102.024C126.797 102.024 131.536 106.762 131.536 112.587C131.536 118.412 126.797 123.15 120.972 123.15ZM139.467 113.043C139.467 113.878 138.788 114.557 137.954 114.557H134.419C134.512 113.913 134.563 113.256 134.563 112.587C134.563 110.089 133.883 107.748 132.702 105.735H137.954C138.788 105.735 139.467 106.414 139.467 107.248V113.043Z" fill="#023872"/>
<path d="M29.2747 74.6284C29.2747 73.6454 30.0715 72.8486 31.0544 72.8486H35.5955C36.5784 72.8486 37.3752 73.6454 37.3752 74.6284C37.3752 75.6114 36.5784 76.4082 35.5955 76.4082H31.0544C30.0715 76.4082 29.2747 75.6114 29.2747 74.6284Z" fill="#023872"/>
<path d="M122.102 96.0944H109.528C108.692 96.0944 108.014 95.4166 108.014 94.5807V89.1318C108.014 88.296 108.692 87.6182 109.528 87.6182H122.102C122.938 87.6182 123.616 88.296 123.616 89.1318V94.5807C123.616 95.4169 122.938 96.0944 122.102 96.0944Z" fill="#023872"/>
<path d="M137.953 34.9186C136.829 34.9186 135.705 34.4908 134.849 33.635C133.138 31.9236 133.138 29.1388 134.849 27.4274C136.561 25.7155 139.346 25.7158 141.057 27.4274C142.769 29.1388 142.769 31.9236 141.057 33.635C140.202 34.4908 139.078 34.9186 137.953 34.9186ZM137.954 29.1696C137.605 29.1696 137.256 29.3022 136.99 29.5677C136.459 30.099 136.459 30.963 136.99 31.4943C137.521 32.0253 138.386 32.0253 138.917 31.4943C139.448 30.963 139.448 30.099 138.917 29.5677C138.651 29.3022 138.302 29.1696 137.954 29.1696Z" fill="#023872"/>
<path d="M63.6531 134.804C62.529 134.804 61.405 134.376 60.5491 133.52C58.8375 131.809 58.8375 129.024 60.5491 127.312C62.2605 125.6 65.0453 125.601 66.757 127.312C68.4687 129.024 68.4687 131.809 66.757 133.52C65.9012 134.376 64.7771 134.804 63.6531 134.804ZM63.6531 129.054C63.304 129.054 62.9553 129.187 62.6898 129.453C62.1585 129.984 62.1585 130.848 62.6898 131.379C63.2205 131.91 64.0851 131.911 64.6164 131.379C65.1477 130.848 65.1477 129.984 64.6164 129.453C64.3509 129.187 64.0018 129.054 63.6531 129.054Z" fill="#023872"/>
<path d="M25.9404 29.9073C24.7679 29.9073 23.6653 29.4505 22.8365 28.6213C21.1251 26.91 21.1251 24.1251 22.8368 22.4137C24.5481 20.7018 27.3333 20.7021 29.0446 22.4137C30.756 24.1251 30.756 26.91 29.0446 28.6213C28.2154 29.4505 27.1132 29.9073 25.9404 29.9073ZM25.9407 24.156C25.5916 24.156 25.2429 24.2886 24.9774 24.5541C24.4464 25.0854 24.4464 25.9494 24.9774 26.4807C25.2347 26.7383 25.5768 26.8797 25.9407 26.8797C26.3046 26.8797 26.6467 26.738 26.904 26.4807C27.4353 25.9494 27.4353 25.0854 26.904 24.5541C26.6385 24.2889 26.2894 24.156 25.9407 24.156Z" fill="#023872"/>
<path d="M53.7065 129.054C53.319 129.054 52.9318 128.906 52.636 128.61L50.8305 126.805L49.025 128.61C48.4337 129.201 47.4756 129.201 46.8843 128.61C46.2931 128.019 46.2931 127.061 46.8843 126.47L49.7603 123.594C50.3516 123.003 51.3097 123.003 51.901 123.594L54.7769 126.47C55.3682 127.061 55.3682 128.019 54.7769 128.61C54.4812 128.906 54.094 129.054 53.7065 129.054Z" fill="#023872"/>
<path d="M90.1427 13.4384C89.7552 13.4384 89.368 13.2907 89.0723 12.9949L87.2668 11.1894L85.4613 12.9949C84.87 13.5861 83.9119 13.5861 83.3206 12.9949C82.7294 12.404 82.7294 11.4455 83.3206 10.8546L86.1966 7.97859C86.7878 7.38735 87.746 7.38735 88.3372 7.97859L91.2132 10.8546C91.8044 11.4455 91.8044 12.404 91.2132 12.9949C90.9174 13.2907 90.5302 13.4384 90.1427 13.4384Z" fill="#023872"/>
</svg>
