<svg fill="none" height="55" viewBox="0 0 55 55" width="55" xmlns="http://www.w3.org/2000/svg" xmlns:xlink="http://www.w3.org/1999/xlink"><clipPath id="a"><path d="m0 0h38.2428v38.2428h-38.2428z" transform="matrix(-.707107 .707107 .707107 .707107 27.8516 0)"/></clipPath><g clip-path="url(#a)" fill="#f90" fill-opacity=".17"><path d="m26.5148 27.0426c0-.4131.3343-.7474.7473-.7474.412 0 .7463.3343.7468.7468-.0005.4125-.3348.7468-.7473.7474-.4125-.0006-.7468-.3349-.7468-.7468z"/><path d="m13.0705 27.0417c0-2.0639 1.6706-3.7347 3.7347-3.7347 2.0587 0 3.7341 1.6752 3.7347 3.735-.0006 2.0587-1.6755 3.7345-3.7347 3.7345-2.0639 0-3.7348-1.6706-3.7347-3.7348zm3.7346 2.2409c1.2352 0 2.2405-1.0053 2.2409-2.2407-.0004-1.2357-1.0056-2.2411-2.2408-2.241-1.2384 0-2.2409 1.0023-2.2409 2.2408-.0001 1.2383 1.0023 2.2409 2.2408 2.2409z"/><path d="m1.1193 27.0417c.00005-.2074.0854-.4052.23809-.5468.1237-.1151 3.08133-2.8442 7.65592-5.0295 3.66469-1.7521 7.29129-2.6404 10.77919-2.6404.7816 0 1.5763.0341 2.3706.1008.7093-2.7394 2.4094-3.8029 3.7504-4.2089 3.0876-.9349 7.2552.7428 9.3456 2.8332.2135.2138.2774.5351.1617.8141-.0382.0925-.0937.1743-.1617.2423-.1375.1375-.3263.2188-.5283.2189-2.1214 0-3.3634 1.3746-3.7345 1.8582v.3699c1.2301.5022 2.3847 1.0703 3.4375 1.6929.3808.2255.6754.5725.8534.9814.7429-.2742 1.5776-.4207 2.4319-.4207 2.7191.0001 6.3086 3.0374 6.46 3.1666.1662.142.2621.3495.2621.5681-.0001.1988-.0793.3887-.2188.5281-.0138.0138-.0282.0272-.0432.04-.1514.1293-3.741 3.1667-6.46 3.1667-.854 0-1.6886-.1465-2.4314-.4206-.1885.4328-.4932.7676-.8544.9815-1.0523.6223-2.2067 1.1904-3.437 1.6926v.37c.3713.4835 1.6132 1.8582 3.7345 1.8581.302.0001.5744.182.69.4611s.0517.6003-.1619.814c-2.0905 2.0904-6.258 3.768-9.3456 2.8332-1.3409-.406-3.041-1.4695-3.7503-4.2089-.794.0666-1.5887.1008-2.3706.1008-3.488 0-7.1146-.8884-10.77903-2.6403-4.5748-2.1854-7.53243-4.9146-7.65608-5.0297-.15184-.1413-.23804-.3393-.23809-.5467zm31.823-9.4467c-1.9159-1.2597-4.6112-2.0491-6.5962-1.4482-1.3263.4017-2.2254 1.3914-2.6799 2.9452 1.9806.2696 3.9364.738 5.8363 1.3981.003-.0127-.0215-.2273.1153-.4437.0562-.0891 1.1531-1.7871 3.3245-2.4514zm4.7768 11.6877c1.4525 0 3.5391-1.3206 4.7722-2.2409-1.2332-.9204-3.3198-2.2408-4.7722-2.2408-.8133 0-1.5932.1632-2.2408.4635v3.5547c.6476.3003 1.4274.4636 2.2408.4635zm-4.0466.7692c.192-.1138.3116-.3483.3118-.6113 0-1.3665 0-1.9011.0001-2.0688 0-.3076 0-1.0619-.0001-2.7281-.0003-.2637-.1198-.4982-.3114-.6117-.828-.4897-1.7252-.9444-2.6766-1.3578v8.7352c.9516-.4134 1.8486-.868 2.6762-1.3575zm-7.3264 7.8849c1.9849.6009 4.6802-.1884 6.596-1.4481-1.4589-.4464-2.7832-1.5475-3.3336-2.4678-.1278-.2137-.1023-.4111-.1061-.4274-1.8998.66-3.8556 1.1284-5.8362 1.3981.4545 1.5539 1.3538 2.5437 2.6799 2.9452zm-6.5537-4.1722c.9518 0 1.924-.0527 2.8896-.1567 2.3209-.2505 4.6128-.7887 6.8205-1.6003l.0001-9.9314c-2.2078-.8118-4.4997-1.35-6.8203-1.6004-.9664-.104-1.9386-.1568-2.89-.1567-3.1294-.0001-6.394.774-9.71 2.2972v8.8511c3.3158 1.5232 6.5805 2.2973 9.7101 2.2972zm-11.20405-3.0312v-7.3832c-2.63598 1.3866-4.61964 2.9024-5.57708 3.6917.95765.7894 2.94136 2.3051 5.57708 3.6915z"/><path d="m36.9718 34.5108c.0001-.4126.3347-.7469.7471-.7469l2.9878.0005c.4125.0002.7469.3346.7468.7471-.0002.4125-.3346.7469-.7471.7468l-2.9878-.0005c-.4125-.0001-.7468-.3346-.7468-.747z"/><path d="m36.9718 19.5728c-.0001-.4125.3343-.7469.7468-.747l2.9878-.0006c.4125-.0001.747.3343.7471.7468 0 .4123-.3341.7469-.7468.747l-2.9878.0006c-.4125.0001-.747-.3343-.7471-.7468z"/><path d="m41.4536 31.5237c-.0001-.4124.3344-.7468.7469-.7469l7.1549-.0006c.4126 0 .747.3344.747.7469.0001.4124-.3342.747-.7468.747l-7.155.0005c-.4126.0001-.747-.3344-.747-.7469z"/><path d="m45.6787 27.2986c0-.4124.3344-.7469.7469-.7469l7.1549-.0006c.4126 0 .747.3344.747.7469.0001.4124-.3343.747-.7469.747l-7.1549.0005c-.4126.0001-.747-.3344-.747-.7469z"/><path d="m41.4537 22.5597c0-.4124.3344-.7468.7469-.7468l7.155.0005c.4125 0 .7469.3344.7469.747 0 .4125-.3344.7469-.747.7469l-7.1549-.0006c-.4126 0-.7469-.3344-.7469-.747z"/><path d="m22.0331 27.0417c0-.4126.3343-.7469.7469-.747h1.4937c.4125 0 .7469.3344.7469.747 0 .4125-.3344.7469-.7469.747h-1.4937c-.4125 0-.7469-.3345-.7469-.747z"/></g></svg>