<svg fill="none" height="17" viewBox="0 0 17 17" width="17" xmlns="http://www.w3.org/2000/svg" xmlns:xlink="http://www.w3.org/1999/xlink"><clipPath id="a"><path d="m0 0h17v17h-17z"/></clipPath><g clip-path="url(#a)" fill="#00458e"><path d="m7.48644 0c-4.12791 0-7.48644 3.35853-7.48644 7.48644 0 4.12816 3.35853 7.48646 7.48644 7.48646 4.12816 0 7.48646-3.3583 7.48646-7.48646 0-4.12791-3.3583-7.48644-7.48646-7.48644zm0 13.5908c-3.3659 0-6.10433-2.7384-6.10433-6.10432 0-3.36591 2.73843-6.10437 6.10433-6.10437 3.36586 0 6.10436 2.73843 6.10436 6.10433 0 3.36586-2.7385 6.10436-6.10436 6.10436z"/><path d="m16.7975 15.8204-3.9621-3.9621c-.27-.27-.7072-.27-.9772 0-.2699.2697-.2699.7074 0 .9772l3.9621 3.962c.135.135.3117.2025.4886.2025.1767 0 .3536-.0675.4886-.2025.27-.2697.27-.7074 0-.9771z"/></g></svg>