<svg fill="none" height="12" viewBox="0 0 93 12" width="93" xmlns="http://www.w3.org/2000/svg"><g fill="#200e32"><path d="m22.7759 6.63438c0 1.23819-.4519 2.26341-1.3581 3.07147-.9061.80805-2.0834 1.21315-3.5294 1.21315-1.4365 0-2.6042-.4051-3.5032-1.21315-.8966-.80806-1.3461-1.83328-1.3461-3.07147v-1.81657c0-1.23402.4471-2.25714 1.3413-3.0673.8943-.810144 2.062-1.217307 3.4985-1.217307 1.4484 0 2.6257.405075 3.5342 1.217307.9085.81225 1.3628 1.83328 1.3628 3.0673zm-2.3403-1.82492c0-.78718-.2283-1.43238-.6802-1.93768s-1.0797-.75795-1.8765-.75795c-.7967 0-1.4127.25056-1.8503.75378-.4376.50321-.6564 1.15049-.6564 1.94185v1.83327c0 .8018.2212 1.45326.6659 1.95856.4424.5053 1.0607.75795 1.8503.75795.8015 0 1.427-.25265 1.8765-.75795s.6731-1.15676.6731-1.95856v-1.83327z"/><path d="m26.8783 6.73886v4.03404h-2.3402v-10.093457h4.3999c1.3294 0 2.3711.26309 3.1227.787177.7515.5241 1.1249 1.25699 1.1249 2.19451 0 .522-.157.97092-.4733 1.34468-.3163.37375-.7777.67652-1.3865.90828.6897.1754 1.1844.46981 1.4864.88115.3021.41134.4519.92081.4519 1.52425v.74124c0 .28188.0452.57629.1332.88323s.2378.53454.4519.68274v.1462h-2.4116c-.2141-.1482-.352-.3946-.4163-.7412-.0642-.34665-.0951-.67447-.0951-.9835v-.7141c0-.50321-.1593-.89576-.4756-1.17555-.3187-.27979-.7659-.41969-1.3414-.41969zm0-1.55975h2.0192c.6564 0 1.1464-.1211 1.4698-.36122.3235-.24012.4852-.59717.4852-1.06698 0-.46145-.1617-.82894-.4852-1.10247-.3234-.27353-.7991-.40925-1.4317-.40925h-2.0596v2.93992z"/><path d="m41.4833 8.59632h-4.0954l-.7944 2.17778h-2.364l4.0146-10.093436h2.3973l4.0003 10.093436h-2.364zm-3.5175-1.58689h2.942l-1.4437-3.96514h-.0475z"/><path d="m55.0022 10.7729h-2.3331l-4.7115-6.89879-.0475.00626v6.89043h-2.3403v-10.091357h2.3403l4.7114 6.890447.0476-.00626v-6.884187h2.3331z"/><path d="m66.082 9.39338c-.3472.39672-.8894.75172-1.622 1.06072-.7349.309-1.6624.4635-2.785.4635-1.4269 0-2.5923-.3842-3.4937-1.15047-.9037-.7663-1.3556-1.76228-1.3556-2.98795v-2.1068c0-1.2194.4352-2.21538 1.3033-2.98377.8681-.77048 1.9859-1.154674 3.3534-1.154674 1.4222 0 2.5091.298585 3.2654.897844.7563.59926 1.1416 1.38644 1.1582 2.36155l-.0166.04176h-2.2047c-.0428-.53662-.2402-.96049-.5922-1.2716-.352-.31112-.8681-.46772-1.5459-.46772-.7159 0-1.2938.23803-1.7314.71619-.4376.47815-.6564 1.09203-.6564 1.8458v2.11934c0 .7663.2259 1.38852.6802 1.86668.4543.47815 1.0655.71619 1.836.71619.5447 0 .9823-.04803 1.3152-.14616.3306-.09605.5827-.21716.754-.35914v-1.86669h-2.0668v-1.40105h4.407v3.80645z"/><path d="m75.2038 6.33587h-4.8328v2.87729h5.6509v1.55974h-7.9911v-10.093457h7.9744v1.559747h-5.6342v2.53694h4.8328z"/><path d="m83.1177 4.82198v-4.155232h1.4959c.6374 0 1.1511.167044 1.5364.501132.3853.33409.5803.76632.5803 1.2946v.56795c0 .53036-.1926.96259-.5803 1.29459-.3853.332-.899.49904-1.5364.49904h-1.4959zm.6611-3.71256v3.27198h.8372c.4519 0 .8063-.12737 1.0655-.38003.2592-.25265.39-.5763.39-.97303v-.57422c0-.39255-.1308-.71411-.39-.96677-.2592-.25265-.616-.38002-1.0655-.38002h-.8372z"/><path d="m88.3834.666748 1.553 3.376382h.019l1.553-3.376382h.8443v4.157312h-.6588v-1.64538l.0666-1.68924-.0166-.00209-1.5816 3.33671h-.4376l-1.5744-3.32835-.0167.00208.0642 1.68089v1.64538h-.6587v-4.157312z"/></g><path d="m10.3963 10.6008v-10.181122l-7.32989 2.223732z" fill="#eb6309"/><path d="m9.33107 11.0696-6.39764-6.08449-2.93245344 4.79825z" fill="#eb6309"/><path d="m79.9122.00219727h-.4757v11.69290273h.4757z" fill="#200e32"/></svg>