<svg fill="none" height="12" viewBox="0 0 93 12" width="93" xmlns="http://www.w3.org/2000/svg" xmlns:xlink="http://www.w3.org/1999/xlink"><clipPath id="a"><path d="m0 0h92.5161v11.6929h-92.5161z"/></clipPath><g clip-path="url(#a)"><g fill="#200e32"><path d="m22.7746 6.63243c0 1.23819-.4518 2.2634-1.358 3.07147-.9061.8081-2.0834 1.2131-3.5294 1.2131-1.4365 0-2.6042-.405-3.5032-1.2131-.8967-.80807-1.3462-1.83328-1.3462-3.07147v-1.81657c0-1.23402.4472-2.25715 1.3414-3.0673.8943-.810148 2.062-1.21731 3.4985-1.21731 1.4484 0 2.6256.405074 3.5342 1.21731.9085.81224 1.3627 1.83328 1.3627 3.0673zm-2.3402-1.82493c0-.78718-.2283-1.43237-.6802-1.93767s-1.0798-.75795-1.8765-.75795-1.4127.25056-1.8503.75377-.6564 1.1505-.6564 1.94185v1.83328c0 .8018.2211 1.45326.6659 1.95856.4424.5053 1.0607.75794 1.8503.75794.8015 0 1.427-.25264 1.8765-.75794s.6731-1.15676.6731-1.95856v-1.83328z"/><path d="m26.8774 6.73666v4.03404h-2.3403v-10.093454h4.3999c1.3295 0 2.3712.26309 3.1227.787184.7515.52409 1.1249 1.25698 1.1249 2.1945 0 .522-.1569.97093-.4733 1.34468-.3163.37376-.7777.67652-1.3865.90829.6897.17539 1.1844.4698 1.4864.88114.3021.41134.4519.92081.4519 1.52425v.74124c0 .28189.0452.5763.1332.88323.088.30694.2378.53454.4519.68274v.1462h-2.4116c-.2141-.1482-.352-.3946-.4162-.7412-.0642-.34665-.0952-.67447-.0952-.98349v-.7141c0-.50322-.1593-.89576-.4756-1.17556-.3187-.27979-.7658-.41969-1.3414-.41969zm0-1.55974h2.0191c.6565 0 1.1464-.12111 1.4698-.36123.3235-.24012.4852-.59717.4852-1.06697 0-.46145-.1617-.82895-.4852-1.10248-.3234-.27352-.7991-.40925-1.4317-.40925h-2.0596v2.93993z"/><path d="m41.4823 8.59388h-4.0954l-.7943 2.17782h-2.3641l4.0146-10.093477h2.3973l4.0003 10.093477h-2.364zm-3.5175-1.58689h2.942l-1.4436-3.96514h-.0476z"/><path d="m55.0012 10.7707h-2.3331l-4.7114-6.89879-.0476.00626v6.89043h-2.3403v-10.091354h2.3403l4.7114 6.890444.0476-.00626v-6.884184h2.3331z"/><path d="m66.0813 9.39118c-.3472.39672-.8895.75172-1.622 1.06072-.7349.309-1.6624.4635-2.785.4635-1.427 0-2.5923-.3842-3.4937-1.15047-.9038-.7663-1.3556-1.76228-1.3556-2.98794v-2.10681c0-1.2194.4352-2.21538 1.3033-2.98377.868-.770477 1.9858-1.154672 3.3534-1.154672 1.4222 0 2.5091.298586 3.2654.897842.7563.59926 1.1416 1.38645 1.1582 2.36155l-.0166.04176h-2.2047c-.0428-.53662-.2402-.96049-.5922-1.2716-.352-.31112-.8681-.46772-1.5459-.46772-.7159 0-1.2938.23804-1.7314.71619-.4376.47816-.6564 1.09203-.6564 1.84581v2.11933c0 .7663.2259 1.38853.6802 1.86668.4542.47816 1.0654.71619 1.836.71619.5446 0 .9823-.04802 1.3152-.14616.3306-.09605.5827-.21715.7539-.35914v-1.86668h-2.0667v-1.40106h4.407v3.80645z"/><path d="m75.2025 6.33368h-4.8327v2.87728h5.6509v1.55974h-7.9912v-10.093454h7.9745v1.559744h-5.6342v2.53694h4.8327z"/><path d="m83.1167 4.81978v-4.155229h1.4959c.6374 0 1.1512.167044 1.5364.501129.3853.33409.5803.76632.5803 1.2946v.56795c0 .53036-.1926.96259-.5803 1.29459-.3852.332-.899.49905-1.5364.49905h-1.4959zm.6612-3.71256v3.27198h.8371c.4519 0 .8063-.12737 1.0655-.38003.2592-.25265.3901-.5763.3901-.97303v-.57421c0-.39256-.1309-.71412-.3901-.96677-.2592-.25266-.616-.38003-1.0655-.38003h-.8371z"/><path d="m88.3824.664551 1.553 3.376379h.019l1.5531-3.376379h.8443v4.157319h-.6588v-1.64539l.0666-1.68924-.0167-.00208-1.5816 3.33671h-.4376l-1.5744-3.32836-.0166.00209.0642 1.68088v1.64539h-.6588v-4.157319z"/></g><path d="m10.3954 10.5986v-10.18112l-7.32997 2.22373z" fill="#eb6309"/><path d="m9.3301 11.0674-6.39765-6.08449-2.93245 4.79825z" fill="#eb6309"/><path d="m79.9112 0h-.4757v11.6929h.4757z" fill="#200e32"/></g></svg>