<svg fill="none" height="28" viewBox="0 0 28 28" width="28" xmlns="http://www.w3.org/2000/svg"><g fill="#000"><path d="m12.2561 16.6232 4.554-2.6229-4.554-2.6229z"/><path d="m14 0c-7.7308 0-14 6.2692-14 14s6.2692 14 14 14 14-6.2692 14-14-6.2692-14-14-14zm8.7479 14.0143s0 2.8393-.3602 4.2084c-.2019.7494-.7928 1.3403-1.5421 1.5419-1.3692.3604-6.8456.3604-6.8456.3604s-5.46213 0-6.84555-.3747c-.74939-.2017-1.34027-.7927-1.54215-1.5421-.36038-1.3546-.36038-4.2082-.36038-4.2082s0-2.8391.36038-4.20816c.20166-.74939.80707-1.3548 1.54215-1.55646 1.36911-.36038 6.84555-.36038 6.84555-.36038s5.4764 0 6.8456.37469c.7493.20166 1.3402.79276 1.5421 1.54215.3747 1.36906.3602 4.22246.3602 4.22246z"/></g></svg>